<?xml version="1.0" encoding="UTF-8" standalone="no"?>
<!-- Created with Inkscape (http://www.inkscape.org/) -->

<svg
   width="16"
   height="16"
   viewBox="0 0 4.2333333 4.2333332"
   version="1.1"
   id="svg1"
   inkscape:version="1.3.2 (091e20ef0f, 2023-11-25, custom)"
   sodipodi:docname="gif-symbolic.svg"
   xmlns:inkscape="http://www.inkscape.org/namespaces/inkscape"
   xmlns:sodipodi="http://sodipodi.sourceforge.net/DTD/sodipodi-0.dtd"
   xmlns="http://www.w3.org/2000/svg"
   xmlns:svg="http://www.w3.org/2000/svg">
  <sodipodi:namedview
     id="namedview1"
     pagecolor="#ffffff"
     bordercolor="#000000"
     borderopacity="0.25"
     inkscape:showpageshadow="2"
     inkscape:pageopacity="0.0"
     inkscape:pagecheckerboard="0"
     inkscape:deskcolor="#d1d1d1"
     inkscape:document-units="mm"
     inkscape:zoom="31.186981"
     inkscape:cx="4.937958"
     inkscape:cy="5.7395745"
     inkscape:window-width="1920"
     inkscape:window-height="1014"
     inkscape:window-x="0"
     inkscape:window-y="29"
     inkscape:window-maximized="1"
     inkscape:current-layer="layer1" />
  <defs
     id="defs1" />
  <g
     inkscape:label="main"
     inkscape:groupmode="layer"
     id="layer1">
    <path
       id="rect6"
       style="fill:#000000;fill-opacity:1;stroke:none;stroke-width:0.138652;stroke-linecap:round;stroke-linejoin:round;stroke-dasharray:none"
       d="m 1.386849,0.75316682 c -0.75512306,0 -1.36349996,0.60837658 -1.36349996,1.36349998 0,0.755123 0.6083769,1.3634997 1.36349996,1.3634997 h 1.4596353 c 0.7551233,0 1.3635,-0.6083767 1.3635,-1.3634997 0,-0.7551234 -0.6083767,-1.36349998 -1.3635,-1.36349998 z M 1.362477,1.457258 c 0.013887,-5.298e-4 0.027763,0 0.041975,0 0.1460466,0 0.2917178,0.029478 0.4007906,0.081242 L 1.7158766,1.788994 C 1.6308366,1.759415 1.5040461,1.738895 1.3949736,1.738895 c -0.2606654,0 -0.39943644,0.1284589 -0.39943644,0.3669402 0,0.2440268 0.14397764,0.3940202 0.37506384,0.3940202 0.071458,0 0.132424,-0.015083 0.1773771,-0.039267 V 2.2683172 H 1.2758192 V 1.9988669 H 1.8526324 V 2.5932824 C 1.7084346,2.715296 1.5346899,2.7760753 1.3313341,2.7760753 c -0.40301453,0 -0.67294874,-0.2581381 -0.67294874,-0.6445143 0,-0.3886295 0.27360621,-0.6578752 0.70409164,-0.674303 z M 2.0719844,1.47486 H 2.3969496 V 2.7584727 H 2.0719842 Z m 0.5876457,0 H 3.5749482 V 1.756497 H 2.9845946 V 2.0015748 H 3.5072469 V 2.2832114 H 2.9845946 V 2.7584732 H 2.6596295 Z" />
  </g>
</svg>
