<?xml version="1.0" encoding="UTF-8" standalone="no"?>
<!-- Created with Inkscape (http://www.inkscape.org/) -->

<svg
   width="16"
   height="16"
   viewBox="0 0 4.2333333 4.2333332"
   version="1.1"
   id="svg1"
   inkscape:version="1.3.2 (091e20ef0f, 2023-11-25, custom)"
   sodipodi:docname="library-symbolic.svg"
   xmlns:inkscape="http://www.inkscape.org/namespaces/inkscape"
   xmlns:sodipodi="http://sodipodi.sourceforge.net/DTD/sodipodi-0.dtd"
   xmlns="http://www.w3.org/2000/svg"
   xmlns:svg="http://www.w3.org/2000/svg">
  <sodipodi:namedview
     id="namedview1"
     pagecolor="#ffffff"
     bordercolor="#000000"
     borderopacity="0.25"
     inkscape:showpageshadow="2"
     inkscape:pageopacity="0.0"
     inkscape:pagecheckerboard="0"
     inkscape:deskcolor="#d1d1d1"
     inkscape:document-units="mm"
     inkscape:zoom="20.48"
     inkscape:cx="7.7636719"
     inkscape:cy="8.0810547"
     inkscape:window-width="1444"
     inkscape:window-height="751"
     inkscape:window-x="215"
     inkscape:window-y="119"
     inkscape:window-maximized="0"
     inkscape:current-layer="layer2" />
  <defs
     id="defs1">
    <inkscape:path-effect
       effect="fillet_chamfer"
       id="path-effect10"
       is_visible="true"
       lpeversion="1"
       nodesatellites_param="F,0,0,1,0,0,0,1 @ F,0,0,1,0,0,0,1 @ F,0,0,1,0,0,0,1 @ F,0,0,1,0,0,0,1 @ F,0,0,1,0,0,0,1 @ F,0,0,1,0,0,0,1 @ F,0,0,1,0,0,0,1 @ F,0,0,1,0,0,0,1"
       radius="0"
       unit="px"
       method="auto"
       mode="F"
       chamfer_steps="1"
       flexible="false"
       use_knot_distance="true"
       apply_no_radius="true"
       apply_with_radius="true"
       only_selected="false"
       hide_knots="false" />
    <inkscape:path-effect
       effect="fillet_chamfer"
       id="path-effect8"
       is_visible="true"
       lpeversion="1"
       nodesatellites_param="F,0,0,1,0,0,0,1 @ F,0,0,1,0,0,0,1 @ F,0,0,1,0,0,0,1 @ F,0,0,1,0,0,0,1 @ F,0,0,1,0,0,0,1 @ F,0,0,1,0,0,0,1 @ F,0,0,1,0,0,0,1 @ F,0,0,1,0,0,0,1"
       radius="0"
       unit="px"
       method="auto"
       mode="F"
       chamfer_steps="1"
       flexible="false"
       use_knot_distance="true"
       apply_no_radius="true"
       apply_with_radius="true"
       only_selected="false"
       hide_knots="false" />
    <inkscape:path-effect
       effect="fillet_chamfer"
       id="path-effect1"
       is_visible="true"
       lpeversion="1"
       nodesatellites_param="F,0,0,1,0,0,0,1 @ F,0,0,1,0,0,0,1 @ F,0,0,1,0,0,0,1 @ F,0,0,1,0,0,0,1 @ F,0,0,1,0,0,0,1 @ F,0,0,1,0,0,0,1 @ F,0,0,1,0,0,0,1 @ F,0,0,1,0,0,0,1"
       radius="0"
       unit="px"
       method="auto"
       mode="F"
       chamfer_steps="1"
       flexible="false"
       use_knot_distance="true"
       apply_no_radius="true"
       apply_with_radius="true"
       only_selected="false"
       hide_knots="false" />
  </defs>
  <g
     inkscape:groupmode="layer"
     id="layer2"
     inkscape:label="main"
     transform="matrix(0.08101978,0,0,0.08101978,-0.10651356,-0.05056163)">
    <path
       id="rect1"
       style="fill:#000000;stroke-width:0.217504;stroke-linecap:round;stroke-linejoin:round"
       d="M 37.979802,6.2104607 C 27.636246,6.2128307 17.292325,6.2037807 6.9489434,6.2290367 6.4821791,6.2625567 6.0445952,6.356409 5.6249664,6.5002903 4.0558974,7.0266505 2.7742332,8.2706277 2.1233292,9.7833435 1.6981933,10.719586 1.5574352,11.756084 1.5687612,12.777124 c -0.010374,3.876076 -1.253e-4,7.752323 -0.00457,11.628463 0.00576,3.05266 -0.00423,6.106204 0.031187,9.15834 0.1223617,1.39159 0.6796549,2.702851 1.6086769,3.747664 0.9111607,1.032291 2.2157459,1.70747 3.5939499,1.863993 0.1138545,-0.01976 0.3864454,0.118613 0.3393112,-0.08067 -0.016855,-6.03188 -0.014896,-12.063862 -6.973e-4,-18.095742 0.012038,-0.962838 -0.00228,-1.927305 0.039506,-2.888991 0.2700847,-2.911867 2.1123924,-5.676064 4.7962311,-6.891974 1.380359,-0.649172 2.93693,-0.778665 4.442226,-0.708839 H 43.769709 C 43.201736,8.6132425 41.697688,6.961881 39.764374,6.4271053 39.177054,6.2589278 38.584732,6.1906895 37.979941,6.2104619 Z M 15.488959,12.026286 c -3.844747,0 -6.9400712,3.297908 -6.9400712,7.394285 v 20.477016 c 0,4.096382 3.0953242,7.394011 6.9400712,7.394011 h 30.886982 c 3.844748,0 6.94007,-3.297629 6.94007,-7.394011 V 19.420571 c 0,-4.096377 -3.095322,-7.394285 -6.94007,-7.394285 z m 8.80004,7.583623 a 3.7711335,3.9324773 0 0 1 0.531422,0.07914 3.7711335,3.9324773 0 0 1 2.890517,4.661921 L 27.699298,24.406 A 3.7711335,3.9324773 0 0 1 23.197885,27.36984 3.7711335,3.9324773 0 0 1 20.339524,22.686438 3.7711335,3.9324773 0 0 1 24.289,19.60991 Z m 12.546047,5.590865 10.989343,10.722386 v 5.369233 H 13.971763 l 0.09592,-1.926086 8.082056,-8.852436 4.345757,4.542301 z" />
  </g>
</svg>
