<?xml version="1.0" encoding="UTF-8" standalone="no"?>
<!-- Created with Inkscape (http://www.inkscape.org/) -->

<svg
   width="16"
   height="16"
   viewBox="0 0 4.2333333 4.2333333"
   version="1.1"
   id="svg1"
   inkscape:version="1.3.2 (091e20ef0f, 2023-11-25, custom)"
   sodipodi:docname="loupe-zoom-symbolic.svg"
   xmlns:inkscape="http://www.inkscape.org/namespaces/inkscape"
   xmlns:sodipodi="http://sodipodi.sourceforge.net/DTD/sodipodi-0.dtd"
   xmlns="http://www.w3.org/2000/svg"
   xmlns:svg="http://www.w3.org/2000/svg">
  <sodipodi:namedview
     id="namedview1"
     pagecolor="#ffffff"
     bordercolor="#000000"
     borderopacity="0.25"
     inkscape:showpageshadow="2"
     inkscape:pageopacity="0.0"
     inkscape:pagecheckerboard="0"
     inkscape:deskcolor="#d1d1d1"
     inkscape:document-units="mm"
     inkscape:zoom="17.900952"
     inkscape:cx="9.4408385"
     inkscape:cy="7.2621835"
     inkscape:window-width="1920"
     inkscape:window-height="1014"
     inkscape:window-x="0"
     inkscape:window-y="29"
     inkscape:window-maximized="1"
     inkscape:current-layer="layer1" />
  <defs
     id="defs1" />
  <g
     inkscape:label="icon"
     inkscape:groupmode="layer"
     id="layer1">
    <g
       id="g243"
       transform="translate(-151.86853,-4210.3315)"
       style="fill:#000000;fill-opacity:1">
      <g
         id="g242"
         transform="translate(853.94443,1971.5629)"
         style="fill:#000000;fill-opacity:1">
        <g
           fill="#222222"
           id="g240"
           transform="matrix(0.26458333,0,0,0.26458333,-701.96626,2238.8812)"
           style="fill:#000000;fill-opacity:1">
          <path
             d="m 10.875,10.0625 c -0.8125,0.148438 -1.105469,1.160156 -0.5,1.71875 l 3,3 c 0.957031,0.9375 2.363281,-0.5 1.40625,-1.4375 l -3,-3 C 11.546875,10.105469 11.207031,9.996094 10.875,10.0625 Z m 0,0"
             id="path239"
             style="fill:#000000;fill-opacity:1" />
          <path
             d="m 6.570312,0.0625 c -3.578124,0 -6.4999995,2.921875 -6.4999995,6.5 0,3.578125 2.9218755,6.5 6.4999995,6.5 3.578126,0 6.5,-2.921875 6.5,-6.5 0,-3.578125 -2.921874,-6.5 -6.5,-6.5 z m 0,2 c 2.5,0 4.5,2.003906 4.5,4.5 0,2.5 -2,4.5 -4.5,4.5 -2.496093,0 -4.5,-2 -4.5,-4.5 0,-2.496094 2.003907,-4.5 4.5,-4.5 z m 0,0"
             id="path240"
             style="fill:#000000;fill-opacity:1" />
        </g>
        <path
           style="opacity:1;fill:none;fill-opacity:1;stroke:#000000;stroke-width:0.264583;stroke-linecap:round;stroke-dasharray:none;stroke-opacity:1"
           d="m -700.21976,2240.0928 v 1.0621"
           id="path241" />
        <path
           style="opacity:1;fill:none;fill-opacity:1;stroke:#000000;stroke-width:0.264583;stroke-linecap:round;stroke-dasharray:none;stroke-opacity:1"
           d="m -699.68878,2240.6239 -1.06196,-1e-4"
           id="path242" />
      </g>
    </g>
  </g>
</svg>
