<?xml version="1.0" encoding="UTF-8" standalone="no"?>
<!-- Created with Inkscape (http://www.inkscape.org/) -->

<svg
   width="16"
   height="16"
   viewBox="0 0 4.2333333 4.2333332"
   version="1.1"
   id="svg1"
   inkscape:version="1.3.2 (091e20ef0f, 2023-11-25, custom)"
   sodipodi:docname="screenshot-symbolic.svg"
   xmlns:inkscape="http://www.inkscape.org/namespaces/inkscape"
   xmlns:sodipodi="http://sodipodi.sourceforge.net/DTD/sodipodi-0.dtd"
   xmlns="http://www.w3.org/2000/svg"
   xmlns:svg="http://www.w3.org/2000/svg">
  <sodipodi:namedview
     id="namedview1"
     pagecolor="#ffffff"
     bordercolor="#000000"
     borderopacity="0.25"
     inkscape:showpageshadow="2"
     inkscape:pageopacity="0.0"
     inkscape:pagecheckerboard="0"
     inkscape:deskcolor="#d1d1d1"
     inkscape:document-units="mm"
     inkscape:zoom="16.287423"
     inkscape:cx="5.9555156"
     inkscape:cy="5.1880523"
     inkscape:window-width="1444"
     inkscape:window-height="751"
     inkscape:window-x="264"
     inkscape:window-y="146"
     inkscape:window-maximized="0"
     inkscape:current-layer="layer1" />
  <defs
     id="defs1" />
  <g
     inkscape:label="main"
     inkscape:groupmode="layer"
     id="layer1"
     transform="matrix(0.02205854,0,0,0.02205854,-0.08918731,-0.08918729)">
    <path
       id="rect1"
       style="fill:#000000;stroke-width:4.11519;stroke-linecap:round;stroke-linejoin:round"
       d="M 82.289224 43.494194 C 76.223227 43.494194 71.338477 48.346139 71.137996 54.434579 L 45.790036 54.434579 C 39.595872 54.434579 34.61538 59.480515 34.61538 65.749797 L 34.61538 137.64711 C 34.61538 143.91639 39.595872 148.96232 45.790036 148.96232 L 154.20996 148.96232 C 160.40414 148.96232 165.38462 143.91639 165.38462 137.64711 L 165.38462 65.749797 C 165.38462 59.480515 160.40414 54.434579 154.20996 54.434579 L 128.862 54.434579 C 128.66151 48.346131 123.77679 43.494194 117.71077 43.494194 L 82.289224 43.494194 z M 97.493315 66.312043 A 34.890727 33.781462 0 0 1 102.45983 66.312043 A 34.890727 33.781462 0 0 1 107.37949 66.991425 A 34.890727 33.781462 0 0 1 134.13307 107.02808 L 134.01593 107.49662 A 34.890727 33.781462 0 0 1 92.362813 132.96172 A 34.890727 33.781462 0 0 1 65.937213 92.737643 A 34.890727 33.781462 0 0 1 97.493315 66.312043 z M 97.961854 72.40305 A 28.585065 27.676273 0 0 0 72.075074 94.049553 A 28.585065 27.676273 0 0 0 93.745003 127.01127 A 28.585065 27.676273 0 0 0 127.87807 106.13786 L 127.94835 105.76303 A 28.585065 27.676273 0 0 0 106.04415 72.94187 A 28.585065 27.676273 0 0 0 102.01472 72.40305 A 28.585065 27.676273 0 0 0 97.961854 72.40305 z "
       inkscape:label="path1" />
    <path
       style="fill:#000000;stroke-width:10.0812;stroke-linecap:round;stroke-linejoin:round;stroke-dasharray:none"
       d="m 16.975328,131.10383 c -3.02315,0.2636 -6.158288,-0.387 -9.1010529,0.52611 -2.2420604,1.08247 -2.8601382,3.85971 -2.5279399,6.13128 0.081925,9.63267 -0.2218484,19.27773 0.2612699,28.90107 1.4675495,12.817 11.6025579,24.1831 24.2492749,26.89767 6.353957,1.41391 12.897859,0.66722 19.344214,0.84803 5.464967,-0.0168 10.936865,0.0604 16.396869,-0.12661 2.698572,-0.68717 3.792422,-3.84545 3.370702,-6.36001 -0.133245,-2.77956 0.399609,-5.67354 -0.519021,-8.3572 -1.146272,-2.23209 -3.958419,-2.65853 -6.220319,-2.41807 -7.340794,-0.11312 -14.750901,0.29441 -22.018598,-0.34766 -2.589683,-0.45091 -4.982231,-1.38112 -7.305208,-2.8014 -2.819764,-1.75649 -5.115202,-3.96479 -6.937835,-6.77382 -2.209394,-3.37336 -3.232409,-7.36488 -3.325447,-11.33124 -0.103871,-7.09304 0.142839,-14.19579 -0.139264,-21.28595 -0.477458,-2.50548 -3.217277,-3.63565 -5.527645,-3.50213 z"
       id="path5" />
    <path
       style="fill:#000000;stroke-width:9.92933;stroke-linecap:round;stroke-linejoin:round;stroke-dasharray:none"
       d="m 189.1373,132.05087 c -2.98348,0.26742 -6.08096,-0.38376 -8.98387,0.52139 -2.20359,1.0656 -2.81049,3.79171 -2.49288,6.02551 -0.10431,7.16068 0.28479,14.38872 -0.33014,21.47792 -1.03263,5.98666 -4.93175,11.35422 -10.05677,14.42324 -3.30191,2.07478 -7.30474,2.83797 -11.09669,2.90689 -4.21056,0.063 -8.42141,-0.0671 -12.6325,-0.003 -2.87229,0.0222 -5.78231,-0.12512 -8.6265,0.26777 -2.43596,0.88205 -3.22801,3.81559 -2.89672,6.15884 0.14585,2.72374 -0.39978,5.56245 0.51397,8.19051 1.15717,2.24422 3.99573,2.61565 6.25835,2.37779 9.59737,-0.0991 19.20892,0.24864 28.7955,-0.27911 12.56978,-1.54976 23.67866,-11.5411 26.29255,-23.97527 1.36331,-6.22404 0.63639,-12.62794 0.81171,-18.93934 -0.0158,-5.24164 0.05,-10.4886 -0.11157,-15.7264 -0.51383,-2.42857 -3.17754,-3.55455 -5.44433,-3.42649 z"
       id="path4" />
    <path
       style="fill:#000000;stroke-width:9.95821;stroke-linecap:round;stroke-linejoin:round;stroke-dasharray:none"
       d="m 161.73468,5.5812265 c -8.82295,0.032673 -17.6522,-0.094684 -26.47102,0.109458 -2.64991,0.6354036 -3.91755,3.6943433 -3.42158,6.1963245 0.11629,2.746501 -0.36159,5.598205 0.45739,8.260302 1.08721,2.212212 3.85161,2.750806 6.09062,2.479808 7.23419,0.108828 14.52592,-0.283327 21.71754,0.327093 8.26541,1.357349 15.3841,8.104864 17.00509,16.352203 0.84902,3.922603 0.38064,7.962024 0.49704,11.939679 0.0465,4.360458 -0.10061,8.729535 0.12864,13.083548 0.18302,2.441031 2.74973,3.785973 4.97447,3.776694 2.60542,-0.176841 5.22558,0.125055 7.82703,-0.144216 1.62485,-0.04133 3.14137,-1.047888 3.69716,-2.596665 0.88867,-2.17589 0.29229,-4.562481 0.43701,-6.835535 -0.0411,-8.564723 0.21318,-17.142537 -0.25938,-25.696998 C 192.89361,20.190797 182.84708,8.9999868 170.33827,6.397704 167.52036,5.7586515 164.62147,5.5088171 161.73468,5.5812265 Z"
       id="path3" />
    <path
       style="fill:#000000;stroke-width:10.0357;stroke-linecap:round;stroke-linejoin:round;stroke-dasharray:none"
       d="M 62.452085,5.5720881 C 52.629329,5.7138533 42.793804,5.3482894 32.980132,5.8456241 20.400073,7.2862815 9.2025074,17.088486 6.3015607,29.44622 4.7542331,35.756955 5.4855511,42.298701 5.3308643,48.723862 c 0.015299,5.490908 -0.063623,10.988727 0.1242453,16.474686 0.6840699,2.686386 3.8280789,3.775295 6.3312864,3.35548 2.776406,-0.132837 5.666608,0.398144 8.347675,-0.516677 2.221093,-1.140574 2.646429,-3.938701 2.407289,-6.189662 0.121132,-7.189964 -0.302022,-14.440838 0.348475,-21.585237 1.450205,-8.432835 8.49572,-15.666919 16.971766,-17.089489 4.242842,-0.724057 8.721758,-0.303921 13.06174,-0.400035 4.218524,-0.04927 8.453043,0.153052 12.658472,-0.223345 2.524869,-0.781208 3.435239,-3.766715 3.093815,-6.154279 C 68.518285,13.584562 69.097996,10.640522 68.132124,7.9372201 67.071336,5.9192466 64.540309,5.393868 62.452085,5.5720881 Z"
       id="rect3"
       inkscape:label="path2" />
  </g>
</svg>
