<?xml version="1.0" encoding="UTF-8" standalone="no"?>
<!-- Created with Inkscape (http://www.inkscape.org/) -->

<svg
   width="200mm"
   height="200mm"
   viewBox="0 0 200 200"
   version="1.1"
   id="svg1"
   inkscape:version="1.3.2 (091e20ef0f, 2023-11-25, custom)"
   sodipodi:docname="albums-symbolic.svg"
   xmlns:inkscape="http://www.inkscape.org/namespaces/inkscape"
   xmlns:sodipodi="http://sodipodi.sourceforge.net/DTD/sodipodi-0.dtd"
   xmlns="http://www.w3.org/2000/svg"
   xmlns:svg="http://www.w3.org/2000/svg">
  <sodipodi:namedview
     id="namedview1"
     pagecolor="#ffffff"
     bordercolor="#000000"
     borderopacity="0.25"
     inkscape:showpageshadow="2"
     inkscape:pageopacity="0.0"
     inkscape:pagecheckerboard="0"
     inkscape:deskcolor="#d1d1d1"
     inkscape:document-units="mm"
     inkscape:zoom="0.48729658"
     inkscape:cx="369.3849"
     inkscape:cy="453.52258"
     inkscape:window-width="1920"
     inkscape:window-height="1012"
     inkscape:window-x="0"
     inkscape:window-y="38"
     inkscape:window-maximized="1"
     inkscape:current-layer="layer1" />
  <defs
     id="defs1">
    <inkscape:path-effect
       effect="fillet_chamfer"
       id="path-effect7"
       is_visible="true"
       lpeversion="1"
       nodesatellites_param="F,0,0,1,0,0,0,1 @ F,0,0,1,0,0,0,1 @ F,0,0,1,0,0,0,1 @ F,0,0,1,0,0,0,1 @ F,0,0,1,0,0,0,1 @ F,0,0,1,0,0,0,1 @ F,0,0,1,0,0,0,1 @ F,0,0,1,0,0,0,1"
       radius="0"
       unit="px"
       method="auto"
       mode="F"
       chamfer_steps="1"
       flexible="false"
       use_knot_distance="true"
       apply_no_radius="true"
       apply_with_radius="true"
       only_selected="false"
       hide_knots="false" />
    <inkscape:path-effect
       effect="fillet_chamfer"
       id="path-effect5"
       is_visible="true"
       lpeversion="1"
       nodesatellites_param="F,0,0,1,0,0,0,1 @ F,0,0,1,0,0,0,1 @ F,0,0,1,0,0,0,1 @ F,0,0,1,0,0,0,1 @ F,0,0,1,0,0,0,1 @ F,0,0,1,0,0,0,1 @ F,0,0,1,0,0,0,1 @ F,0,0,1,0,0,0,1"
       radius="0"
       unit="px"
       method="auto"
       mode="F"
       chamfer_steps="1"
       flexible="false"
       use_knot_distance="true"
       apply_no_radius="true"
       apply_with_radius="true"
       only_selected="false"
       hide_knots="false" />
    <inkscape:path-effect
       effect="fillet_chamfer"
       id="path-effect3"
       is_visible="true"
       lpeversion="1"
       nodesatellites_param="F,0,0,1,0,0,0,1 @ F,0,0,1,0,0,0,1 @ F,0,0,1,0,0,0,1 @ F,0,0,1,0,0,0,1 @ F,0,0,1,0,0,0,1 @ F,0,0,1,0,0,0,1 @ F,0,0,1,0,0,0,1 @ F,0,0,1,0,0,0,1"
       radius="0"
       unit="px"
       method="auto"
       mode="F"
       chamfer_steps="1"
       flexible="false"
       use_knot_distance="true"
       apply_no_radius="true"
       apply_with_radius="true"
       only_selected="false"
       hide_knots="false" />
    <inkscape:path-effect
       effect="fillet_chamfer"
       id="path-effect1"
       is_visible="true"
       lpeversion="1"
       nodesatellites_param="F,0,0,1,0,0,0,1 @ F,0,0,1,0,0,0,1 @ F,0,0,1,0,0,0,1 @ F,0,0,1,0,0,0,1 @ F,0,0,1,0,0,0,1 @ F,0,0,1,0,0,0,1 @ F,0,0,1,0,0,0,1 @ F,0,0,1,0,0,0,1"
       radius="0"
       unit="px"
       method="auto"
       mode="F"
       chamfer_steps="1"
       flexible="false"
       use_knot_distance="true"
       apply_no_radius="true"
       apply_with_radius="true"
       only_selected="false"
       hide_knots="false" />
  </defs>
  <g
     inkscape:label="main"
     inkscape:groupmode="layer"
     id="layer1">
    <path
       id="path2"
       style="fill:#000000;fill-opacity:1;stroke:none;stroke-width:5.06907;stroke-linecap:round;stroke-linejoin:round"
       d="m 98.409914,5.0208742 c -17.522156,0.00144 -35.04414,0.011406 -52.565784,0.050643 -5.172748,0.3013486 -10.614621,2.167773 -13.648779,6.2104738 -1.524552,2.10027 -1.48081,4.713424 -1.372526,7.130831 0.152412,0.481713 -0.307508,1.769625 0.23151,1.742013 4.028159,-1.414956 8.402991,-1.519876 12.659693,-1.381311 39.095919,-0.03605 78.193612,-0.06475 117.288962,-0.02015 2.78071,0.146621 5.56106,0.582082 8.17728,1.475879 -0.0334,-2.550516 0.34467,-5.224978 -0.65629,-7.662582 -1.83674,-3.7867202 -6.13487,-6.0267085 -10.37353,-6.9509969 -2.30894,-0.4931783 -4.76014,-0.6402826 -7.17424,-0.5927287 -17.52197,0.00354 -35.04416,-0.0035 -52.566296,-0.00207 z M 98.224395,24.447078 c -19.967419,0.0013 -39.935295,0.01027 -59.902286,0.04341 -3.591515,0.166844 -7.366,1.093893 -10.4035,2.658236 -2.991857,1.527935 -5.405027,3.681303 -6.570141,6.299357 -1.25413,3.059036 -0.624949,6.294551 -0.762228,9.438701 -0.223074,0.758759 0.68972,0.03919 1.145667,-0.08165 5.283946,-2.136697 11.396624,-2.885483 17.347261,-2.637049 42.261085,7.23e-4 84.522912,-0.0036 126.783472,0.04031 4.76197,0.184339 9.46795,1.24262 13.55525,3.090768 -0.0274,-2.989159 0.24524,-6.033936 -0.39326,-8.945191 -1.08035,-3.401739 -4.50438,-6.326358 -8.61653,-7.993827 -3.72969,-1.568418 -8.06317,-2.008814 -12.28193,-1.910478 -19.96728,0.0028 -39.93434,-0.004 -59.901775,-0.0026 z M 35.76981,49.590246 c -13.395613,0 -24.17992,8.44369 -24.17992,18.932178 V 176.05281 c 0,10.48849 10.784307,18.9327 24.17992,18.9327 h 128.46038 c 13.3956,0 24.17992,-8.44421 24.17992,-18.9327 V 68.522424 c 0,-10.488488 -10.78432,-18.932178 -24.17992,-18.932178 z"
       inkscape:label="path1" />
  </g>
</svg>
