<?xml version="1.0" encoding="UTF-8" standalone="no"?>
<!-- Created with Inkscape (http://www.inkscape.org/) -->

<svg
   width="16"
   height="16"
   viewBox="0 0 4.2333333 4.2333332"
   version="1.1"
   id="svg1"
   inkscape:version="1.3.2 (091e20ef0f, 2023-11-25, custom)"
   sodipodi:docname="albums-symbolic.svg"
   xmlns:inkscape="http://www.inkscape.org/namespaces/inkscape"
   xmlns:sodipodi="http://sodipodi.sourceforge.net/DTD/sodipodi-0.dtd"
   xmlns="http://www.w3.org/2000/svg"
   xmlns:svg="http://www.w3.org/2000/svg">
  <sodipodi:namedview
     id="namedview1"
     pagecolor="#ffffff"
     bordercolor="#000000"
     borderopacity="0.25"
     inkscape:showpageshadow="2"
     inkscape:pageopacity="0.0"
     inkscape:pagecheckerboard="0"
     inkscape:deskcolor="#d1d1d1"
     inkscape:document-units="mm"
     inkscape:zoom="22.052525"
     inkscape:cx="9.3866802"
     inkscape:cy="6.4391719"
     inkscape:window-width="1920"
     inkscape:window-height="1014"
     inkscape:window-x="0"
     inkscape:window-y="29"
     inkscape:window-maximized="1"
     inkscape:current-layer="layer1" />
  <defs
     id="defs1">
    <inkscape:path-effect
       effect="fillet_chamfer"
       id="path-effect7"
       is_visible="true"
       lpeversion="1"
       nodesatellites_param="F,0,0,1,0,0,0,1 @ F,0,0,1,0,0,0,1 @ F,0,0,1,0,0,0,1 @ F,0,0,1,0,0,0,1 @ F,0,0,1,0,0,0,1 @ F,0,0,1,0,0,0,1 @ F,0,0,1,0,0,0,1 @ F,0,0,1,0,0,0,1"
       radius="0"
       unit="px"
       method="auto"
       mode="F"
       chamfer_steps="1"
       flexible="false"
       use_knot_distance="true"
       apply_no_radius="true"
       apply_with_radius="true"
       only_selected="false"
       hide_knots="false" />
    <inkscape:path-effect
       effect="fillet_chamfer"
       id="path-effect5"
       is_visible="true"
       lpeversion="1"
       nodesatellites_param="F,0,0,1,0,0,0,1 @ F,0,0,1,0,0,0,1 @ F,0,0,1,0,0,0,1 @ F,0,0,1,0,0,0,1 @ F,0,0,1,0,0,0,1 @ F,0,0,1,0,0,0,1 @ F,0,0,1,0,0,0,1 @ F,0,0,1,0,0,0,1"
       radius="0"
       unit="px"
       method="auto"
       mode="F"
       chamfer_steps="1"
       flexible="false"
       use_knot_distance="true"
       apply_no_radius="true"
       apply_with_radius="true"
       only_selected="false"
       hide_knots="false" />
    <inkscape:path-effect
       effect="fillet_chamfer"
       id="path-effect3"
       is_visible="true"
       lpeversion="1"
       nodesatellites_param="F,0,0,1,0,0,0,1 @ F,0,0,1,0,0,0,1 @ F,0,0,1,0,0,0,1 @ F,0,0,1,0,0,0,1 @ F,0,0,1,0,0,0,1 @ F,0,0,1,0,0,0,1 @ F,0,0,1,0,0,0,1 @ F,0,0,1,0,0,0,1"
       radius="0"
       unit="px"
       method="auto"
       mode="F"
       chamfer_steps="1"
       flexible="false"
       use_knot_distance="true"
       apply_no_radius="true"
       apply_with_radius="true"
       only_selected="false"
       hide_knots="false" />
    <inkscape:path-effect
       effect="fillet_chamfer"
       id="path-effect1"
       is_visible="true"
       lpeversion="1"
       nodesatellites_param="F,0,0,1,0,0,0,1 @ F,0,0,1,0,0,0,1 @ F,0,0,1,0,0,0,1 @ F,0,0,1,0,0,0,1 @ F,0,0,1,0,0,0,1 @ F,0,0,1,0,0,0,1 @ F,0,0,1,0,0,0,1 @ F,0,0,1,0,0,0,1"
       radius="0"
       unit="px"
       method="auto"
       mode="F"
       chamfer_steps="1"
       flexible="false"
       use_knot_distance="true"
       apply_no_radius="true"
       apply_with_radius="true"
       only_selected="false"
       hide_knots="false" />
  </defs>
  <g
     inkscape:label="main"
     inkscape:groupmode="layer"
     id="layer1"
     transform="matrix(0.02205308,0,0,0.02205308,-0.08864133,-0.08864134)">
    <path
       id="path3"
       style="fill:#000000;fill-opacity:1;stroke:none;stroke-width:5.06907;stroke-linecap:round;stroke-linejoin:round"
       d="M 98.406573 5.0270622 C 80.884434 5.0285022 63.36854 5.0346908 45.846913 5.0739277 C 40.67417 5.375276 35.219775 7.2409099 32.18562 11.283607 C 30.661069 13.383875 30.718236 15.989758 30.82652 18.407163 C 30.978932 18.888875 30.52183 20.192231 31.060848 20.164619 C 35.089003 18.749665 39.457835 18.643522 43.714533 18.782087 C 82.810413 18.746037 121.90014 18.714054 160.99545 18.758654 C 163.77616 18.905275 166.55726 19.341121 169.17348 20.234917 C 169.14008 17.684404 169.51832 15.010009 168.51736 12.572408 C 166.68062 8.7856915 162.39874 6.5371685 158.16009 5.612881 C 155.85115 5.1197032 153.38033 4.9795084 150.96623 5.0270622 C 133.44428 5.0306022 115.92869 5.0256322 98.406573 5.0270622 z M 98.219111 25.436988 C 78.251712 25.438288 58.291971 25.450714 38.325 25.483853 C 34.733489 25.650697 30.958356 26.567413 27.920859 28.131754 C 24.929005 29.659688 22.524802 31.817113 21.359689 34.435164 C 20.10556 37.494197 20.723687 40.734416 20.586408 43.878563 C 20.363334 44.637321 21.278666 43.905672 21.734613 43.784832 C 27.018554 41.648137 33.124217 40.91193 39.074848 41.160364 C 81.335891 41.161087 123.60894 41.139886 165.86946 41.183796 C 170.63143 41.368135 175.3263 42.428773 179.41359 44.276919 C 179.38619 41.287763 179.65373 38.260294 179.01523 35.349041 C 177.93489 31.947306 174.52756 29.002508 170.41542 27.335041 C 166.68573 25.766624 162.35541 25.338652 158.13665 25.436988 C 138.16939 25.439788 118.18652 25.435588 98.219111 25.436988 z M 35.770831 49.596154 C 22.375231 49.596154 11.588232 58.041339 11.588232 68.529816 L 11.588232 176.06271 C 11.588232 186.55119 22.375231 194.99637 35.770831 194.99637 L 164.22917 194.99637 C 177.62476 194.99637 188.41177 186.55119 188.41177 176.06271 L 188.41177 68.529816 C 188.41177 58.041339 177.62476 49.596154 164.22917 49.596154 L 35.770831 49.596154 z " />
  </g>
</svg>
