<?xml version="1.0" encoding="UTF-8" standalone="no"?>
<!-- Created with Inkscape (http://www.inkscape.org/) -->

<svg
   width="16"
   height="16"
   viewBox="0 0 4.2333332 4.2333333"
   version="1.1"
   id="svg1"
   xml:space="preserve"
   inkscape:version="1.3.2 (091e20ef0f, 2023-11-25, custom)"
   sodipodi:docname="live-photo-symbolic.svg"
   xmlns:inkscape="http://www.inkscape.org/namespaces/inkscape"
   xmlns:sodipodi="http://sodipodi.sourceforge.net/DTD/sodipodi-0.dtd"
   xmlns="http://www.w3.org/2000/svg"
   xmlns:svg="http://www.w3.org/2000/svg"><sodipodi:namedview
     id="namedview1"
     pagecolor="#ffffff"
     bordercolor="#000000"
     borderopacity="0.25"
     inkscape:showpageshadow="2"
     inkscape:pageopacity="0.0"
     inkscape:pagecheckerboard="0"
     inkscape:deskcolor="#d1d1d1"
     inkscape:document-units="mm"
     inkscape:zoom="15.59349"
     inkscape:cx="6.9900963"
     inkscape:cy="6.7656437"
     inkscape:window-width="1444"
     inkscape:window-height="751"
     inkscape:window-x="109"
     inkscape:window-y="169"
     inkscape:window-maximized="0"
     inkscape:current-layer="layer1" /><defs
     id="defs1" /><g
     inkscape:label="main"
     inkscape:groupmode="layer"
     id="layer1"><path
       style="fill:#000000"
       d="m 1.7049883,4.1337989 c -0.095149,-0.095149 0.018997,-0.2548945 0.1321599,-0.1849562 0.055398,0.034238 0.041027,0.1822227 -0.01997,0.2056292 -0.070209,0.026942 -0.063303,0.028214 -0.1121902,-0.020673 z m 0.3203219,-0.00801 c -0.03471,-0.090453 0.01394,-0.1652128 0.099598,-0.1530494 0.057616,0.00818 0.078593,0.034422 0.078593,0.098313 0,0.1029041 -0.1428665,0.1467898 -0.1781906,0.054737 z m 0.3786414,0.026759 C 2.3518669,4.1315277 2.345604,3.97971 2.3955483,3.9488427 2.508711,3.8789044 2.6228569,4.0386502 2.5277082,4.1337989 2.4831219,4.1783852 2.4721215,4.1800515 2.4039516,4.1525443 Z M 1.3629509,4.0212026 c -0.03471,-0.090453 0.01394,-0.1652128 0.099598,-0.1530494 0.057616,0.00818 0.078593,0.034422 0.078593,0.098313 0,0.1029042 -0.1428665,0.1467899 -0.1781907,0.054737 z m 1.3247185,0 c -0.03471,-0.090453 0.01394,-0.1652128 0.099598,-0.1530494 0.057616,0.00818 0.078593,0.034422 0.078593,0.098313 0,0.1029042 -0.1428664,0.1467899 -0.1781906,0.054737 z M 1.0603681,3.9098349 C 1.0141993,3.863666 1.0354059,3.7299947 1.092367,3.7081367 1.1696265,3.6784894 1.2504802,3.7525835 1.23779,3.841402 1.2274807,3.9135568 1.1095693,3.9590361 1.0603681,3.9098349 Z m 1.9522167,0 c -0.079666,-0.079666 0.024581,-0.241286 0.1296306,-0.2009745 0.085389,0.032767 0.058836,0.2022447 -0.033763,0.2154999 -0.039136,0.0056 -0.082277,-9.343e-4 -0.095868,-0.014525 z M 0.77031371,3.6725925 c -0.03471,-0.090453 0.0139403,-0.1652128 0.0995975,-0.1530494 0.0576159,0.00818 0.0785931,0.034422 0.0785931,0.098313 0,0.1029042 -0.14286649,0.1467899 -0.17819066,0.054737 z m 2.50999289,0 c -0.03471,-0.090453 0.01394,-0.1652128 0.099598,-0.1530494 0.057616,0.00818 0.078593,0.034422 0.078593,0.098313 0,0.1029042 -0.1428665,0.1467899 -0.1781907,0.054737 z M 1.6452694,3.5570611 C 0.02147251,2.9777998 0.399682,0.63723935 2.1170813,0.63723935 c 1.9598388,0 2.0103829,2.91329525 0.051558,2.97175955 -0.2669033,0.00797 -0.3895702,-0.00421 -0.5233704,-0.051938 z M 2.6453692,3.2964333 C 3.9076399,2.7179841 3.5035202,0.84640542 2.1163483,0.84640542 c -1.47923015,0 -1.78431666,2.05330628 -0.3734995,2.51374248 0.2335048,0.076207 0.663418,0.045857 0.9025204,-0.063715 z M 1.7851687,2.8196829 C 1.043282,2.4762006 1.2969613,1.3518901 2.1163483,1.3518901 c 0.4448952,0 0.765411,0.321157 0.765411,0.7669423 0,0.5696738 -0.5796934,0.9401661 -1.0965906,0.7008505 z M 2.381292,2.3837761 c 0.1681431,-0.1681432 0.1681431,-0.3617442 0,-0.5298874 -0.2458495,-0.2458495 -0.6484149,-0.08136 -0.6484149,0.2649437 0,0.2096665 0.1738046,0.3834711 0.3834712,0.3834711 0.1200312,0 0.1677755,-0.021359 0.2649437,-0.1185274 z M 0.52628663,3.4285654 c -0.03471,-0.090453 0.0139403,-0.1652128 0.0995975,-0.1530494 0.0576159,0.00818 0.0785931,0.034422 0.0785931,0.098313 0,0.1029042 -0.14286648,0.1467899 -0.17819065,0.054737 z m 2.99804707,0 c -0.03471,-0.090453 0.01394,-0.1652128 0.099597,-0.1530494 0.057616,0.00818 0.078593,0.034422 0.078593,0.098313 0,0.1029042 -0.1428664,0.1467899 -0.1781906,0.054737 z M 0.31712055,3.1496773 c -0.03471,-0.090453 0.0139403,-0.1652128 0.0995975,-0.1530494 0.0576159,0.00818 0.0785931,0.034422 0.0785931,0.098313 0,0.1029042 -0.14286649,0.1467899 -0.17819066,0.054737 z m 3.41637925,0 c -0.03471,-0.090453 0.01394,-0.1652128 0.099597,-0.1530494 0.057616,0.00818 0.078593,0.034422 0.078593,0.098313 0,0.1029042 -0.1428665,0.1467899 -0.1781906,0.054737 z M 0.17767651,2.8359282 c -0.03471,-0.090453 0.0139403,-0.1652128 0.0995975,-0.1530494 0.11171559,0.015864 0.11171559,0.1807619 0,0.1966256 -0.0471418,0.00669 -0.0869987,-0.010744 -0.0995975,-0.043576 z m 3.69526729,0 c -0.03471,-0.090453 0.01394,-0.1652128 0.099598,-0.1530494 0.057616,0.00818 0.078593,0.034422 0.078593,0.098313 0,0.1029042 -0.1428665,0.1467899 -0.1781907,0.054737 z M 0.09807666,2.5241526 c -0.05849483,-0.070482 -0.008775,-0.1612931 0.08830928,-0.1612931 0.0994886,0 0.14308071,0.083673 0.0819602,0.1573185 -0.0537474,0.064762 -0.11856509,0.066275 -0.17026952,0.00397 z M 3.9643504,2.520178 c -0.06112,-0.073646 -0.017528,-0.1573185 0.08196,-0.1573185 0.097084,0 0.1468041,0.090811 0.088309,0.1612931 -0.051704,0.0623 -0.1165222,0.060787 -0.1702695,-0.00397 z M 0.07309347,2.1735689 C 0.03838345,2.0831161 0.08703379,2.0083561 0.17269099,2.0205195 c 0.1117156,0.015864 0.1117156,0.180762 0,0.1966257 -0.0471418,0.00669 -0.08699865,-0.010744 -0.09959752,-0.043576 z m 3.90443333,0 c -0.03471,-0.090453 0.01394,-0.1652128 0.099598,-0.1530494 0.057616,0.00818 0.078593,0.034422 0.078593,0.098313 0,0.1029041 -0.1428665,0.1467898 -0.1781907,0.054736 z M 0.08015151,1.8182103 C 0.04604402,1.7293276 0.14761143,1.6381447 0.22579248,1.68746 c 0.033194,0.020938 0.0603527,0.067735 0.0603527,0.1039921 0,0.089683 -0.17321314,0.1121828 -0.20599363,0.026758 z m 3.86140569,0.00386 c -0.023104,-0.060207 0.044299,-0.1564306 0.1095773,-0.1564306 0.066758,0 0.1258709,0.088828 0.1014547,0.152456 -0.027429,0.071478 -0.1839968,0.074427 -0.211032,0.00397 z M 0.17767651,1.5112097 c -0.03471,-0.090453 0.0139403,-0.1652128 0.0995975,-0.1530494 0.11171559,0.015864 0.11171559,0.180762 0,0.1966257 -0.0471418,0.00669 -0.0869987,-0.010744 -0.0995975,-0.043576 z m 3.69526729,0 c -0.03471,-0.090453 0.01394,-0.1652128 0.099598,-0.1530494 0.057616,0.00818 0.078593,0.034422 0.078593,0.098313 0,0.1029042 -0.1428665,0.1467899 -0.1781907,0.054737 z M 0.31712055,1.1974606 c -0.03471,-0.090453 0.0139403,-0.1652128 0.0995975,-0.1530494 0.11171559,0.015864 0.11171559,0.1807619 0,0.1966257 -0.0471418,0.00669 -0.0869987,-0.010744 -0.0995975,-0.043576 z m 3.41637925,0 c -0.03471,-0.090453 0.01394,-0.1652128 0.099597,-0.1530494 0.057616,0.00818 0.078593,0.034422 0.078593,0.098313 0,0.1029042 -0.1428665,0.1467899 -0.1781906,0.054737 z M 0.52628663,0.91857249 c -0.03471,-0.0904528 0.0139403,-0.16521278 0.0995975,-0.15304939 0.0576159,0.008182 0.0785931,0.0344221 0.0785931,0.0983128 0,0.10290418 -0.14286648,0.14678987 -0.17819065,0.0547366 z m 2.99804707,0 c -0.03471,-0.0904528 0.01394,-0.16521278 0.099597,-0.15304939 0.057616,0.008182 0.078593,0.0344221 0.078593,0.0983128 0,0.10290418 -0.1428664,0.14678987 -0.1781906,0.0547366 z M 0.77031371,0.6745454 c -0.03471,-0.0904528 0.0139403,-0.16521278 0.0995975,-0.15304938 0.0576159,0.008182 0.0785931,0.0344221 0.0785931,0.0983128 0,0.10290418 -0.14286649,0.14678987 -0.17819066,0.0547366 z m 2.50999289,0 c -0.03471,-0.0904528 0.01394,-0.16521278 0.099598,-0.15304938 0.057616,0.008182 0.078593,0.0344221 0.078593,0.0983128 0,0.10290418 -0.1428665,0.14678987 -0.1781907,0.0547366 z M 1.0761831,0.51946481 c -0.0818497,-0.0518809 -0.035102,-0.19597457 0.063579,-0.19597457 0.09857,0 0.1358123,0.0952464 0.06881,0.17597976 -0.048209,0.0580878 -0.067658,0.0610252 -0.132389,0.0199948 z M 3.0241245,0.49947 c -0.067003,-0.0807333 -0.029761,-0.17597976 0.068809,-0.17597976 0.064832,0 0.08964,0.0209703 0.09844,0.0832101 0.017445,0.12338021 -0.091633,0.18388305 -0.16725,0.0927697 z M 1.3555584,0.28247683 c 0.00902,-0.0787445 0.028709,-0.0984306 0.098431,-0.0984306 0.1356798,0 0.125353,0.16992808 -0.011278,0.18558317 -0.089538,0.0102592 -0.097412,0.002385 -0.087152,-0.0871525 z m 1.3311727,0.0410134 c -0.033863,-0.0882447 0.015798,-0.16263718 0.1005358,-0.15060434 0.1242804,0.0176479 0.1334951,0.20289586 0.010093,0.20289586 -0.049809,0 -0.099592,-0.0235312 -0.1106284,-0.0522915 z M 1.7067314,0.28337316 c -0.058072,-0.0239671 -0.055505,-0.13318161 0.0043,-0.18281241 0.0769,-0.06382141 0.1665902,-0.0078718 0.1544637,0.096356 -0.010368,0.0891128 -0.07157,0.12244144 -0.1587604,0.0864564 z M 2.383616,0.28281906 C 2.3386589,0.23786194 2.361017,0.10410692 2.4170855,0.08259143 2.487558,0.05554857 2.5695414,0.11976902 2.5695414,0.2020155 c 0,0.0798964 -0.130233,0.13649595 -0.1859254,0.0808036 z M 2.0253102,0.22135224 c -0.03471,-0.0904528 0.01394,-0.16521278 0.099598,-0.15304938 0.1117156,0.01586371 0.1117156,0.18076194 0,0.19662565 -0.047142,0.006694 -0.086999,-0.0107441 -0.099598,-0.0435763 z"
       id="path2" /></g></svg>
