<?xml version="1.0" encoding="UTF-8" standalone="no"?>
<!-- Created with Inkscape (http://www.inkscape.org/) -->

<svg
   width="200mm"
   height="200mm"
   viewBox="0 0 200 200"
   version="1.1"
   id="svg1"
   inkscape:version="1.3.2 (091e20ef0f, 2023-11-25, custom)"
   sodipodi:docname="screenshot-symbolic.svg"
   xmlns:inkscape="http://www.inkscape.org/namespaces/inkscape"
   xmlns:sodipodi="http://sodipodi.sourceforge.net/DTD/sodipodi-0.dtd"
   xmlns="http://www.w3.org/2000/svg"
   xmlns:svg="http://www.w3.org/2000/svg">
  <sodipodi:namedview
     id="namedview1"
     pagecolor="#ffffff"
     bordercolor="#000000"
     borderopacity="0.25"
     inkscape:showpageshadow="2"
     inkscape:pageopacity="0.0"
     inkscape:pagecheckerboard="0"
     inkscape:deskcolor="#d1d1d1"
     inkscape:document-units="mm"
     inkscape:zoom="0.50898197"
     inkscape:cx="431.253"
     inkscape:cy="390.97652"
     inkscape:window-width="1920"
     inkscape:window-height="1012"
     inkscape:window-x="0"
     inkscape:window-y="38"
     inkscape:window-maximized="1"
     inkscape:current-layer="layer1" />
  <defs
     id="defs1" />
  <g
     inkscape:label="main"
     inkscape:groupmode="layer"
     id="layer1">
    <path
       id="rect1"
       style="fill:#000000;stroke-width:4.11519;stroke-linecap:round;stroke-linejoin:round"
       d="m 82.29825,43.503034 c -6.066003,0 -10.961144,4.843893 -11.161625,10.93234 H 45.789184 c -6.19417,0 -11.180897,5.047221 -11.180897,11.316509 v 71.896327 c 0,6.26929 4.986727,11.31651 11.180897,11.31651 H 154.2108 c 6.19418,0 11.18091,-5.04722 11.18091,-11.31651 V 65.751883 c 0,-6.269288 -4.98673,-11.316509 -11.18091,-11.316509 h -25.34743 c -0.20049,-6.088455 -5.0961,-10.93234 -11.16212,-10.93234 z m 57.81471,22.955161 a 5.1394174,4.933001 0 0 1 0.72455,0.09954 5.1394174,4.933001 0 0 1 3.93899,5.847588 l -0.0159,0.06903 a 5.1394174,4.933001 0 0 1 -6.13435,3.718145 5.1394174,4.933001 0 0 1 -3.89549,-5.8751 5.1394174,4.933001 0 0 1 5.38213,-3.859209 z m -37.64677,3.130886 a 34.879189,33.77029 0 0 1 4.91509,0.680302 34.879189,33.77029 0 0 1 26.73424,40.034227 l -0.10775,0.47221 A 34.879189,33.77029 0 0 1 92.374556,136.22859 34.879189,33.77029 0 0 1 65.937347,96.010276 34.879189,33.77029 0 0 1 102.46619,69.589081 Z m -0.17545,2.400063 a 32.394284,31.364388 0 0 0 -33.926733,24.538873 32.394284,31.364388 0 0 0 24.5542,37.353023 32.394284,31.364388 0 0 0 38.666873,-23.63946 l 0.0998,-0.43869 a 32.394284,31.364388 0 0 0 -24.82944,-37.181966 32.394284,31.364388 0 0 0 -4.5647,-0.63178 z"
       inkscape:label="camera" />
    <path
       id="rect3"
       style="fill:#000000;stroke-width:7.24736;stroke-linecap:round;stroke-linejoin:round"
       d="M 46.6046,5.5631045 C 39.505074,5.6655671 32.396318,5.401351 25.303358,5.7608062 16.210954,6.8020604 8.1177657,13.886733 6.0210682,22.818448 c -1.1183514,4.561167 -0.5897817,9.2893 -0.7015836,13.93317 0.011058,3.968626 -0.045985,7.942247 0.0898,11.907297 0.4944204,1.941621 2.7667944,2.728644 4.5760213,2.425217 2.0066841,-0.09601 4.0956151,0.287764 6.0333911,-0.373435 1.605325,-0.824365 1.912742,-2.846748 1.7399,-4.473659 0.08755,-5.196642 -0.21829,-10.437307 0.251865,-15.601015 1.048155,-6.094943 6.140394,-11.323473 12.266568,-12.351654 3.06657,-0.523322 6.303766,-0.219663 9.440545,-0.28913 3.048993,-0.03561 6.109548,0.11062 9.149078,-0.161426 1.824882,-0.564629 2.482864,-2.722443 2.236095,-4.448086 C 50.989026,11.354226 51.40802,9.2263816 50.709923,7.2725349 49.943225,5.8140179 48.113891,5.4342935 46.6046,5.5631045 Z m 124.09398,0.014833 c -6.42655,0.023798 -12.85768,-0.068967 -19.28122,0.079728 -1.93016,0.4628213 -2.8535,2.6909211 -2.49224,4.5133383 0.0847,2.000522 -0.26338,4.077674 0.33316,6.016717 0.79191,1.611352 2.80548,2.003658 4.43634,1.806266 5.26931,0.07927 10.58053,-0.206372 15.81884,0.238252 6.02044,0.988678 11.20562,5.903497 12.38632,11.910774 0.61842,2.857183 0.27726,5.799455 0.36204,8.696737 0.0339,3.176112 -0.0733,6.358502 0.0937,9.52992 0.13331,1.778021 2.00288,2.757663 3.62335,2.750904 1.89777,-0.128808 3.80626,0.09109 5.70113,-0.105045 1.18352,-0.0301 2.28814,-0.763271 2.69298,-1.891384 0.64728,-1.584895 0.21289,-3.323264 0.31831,-4.978932 -0.0299,-6.238455 0.15528,-12.486445 -0.18893,-18.717425 C 193.39441,16.219396 186.07664,8.0681267 176.96534,6.1726511 174.91281,5.7071719 172.80129,5.5251952 170.69858,5.5779376 Z M 190.64544,148.8697 c -2.17946,0.19535 -4.4422,-0.28034 -6.56279,0.38088 -1.60974,0.77843 -2.05309,2.76988 -1.82107,4.40169 -0.0762,5.23093 0.20804,10.51107 -0.24117,15.68979 -0.75434,4.37331 -3.60268,8.29435 -7.34655,10.5363 -2.41208,1.51564 -5.33618,2.07316 -8.10623,2.12351 -3.07585,0.046 -6.15191,-0.0491 -9.22814,-0.002 -2.09824,0.0162 -4.22403,-0.0914 -6.30174,0.19561 -1.77948,0.64434 -2.35808,2.78732 -2.11607,4.49908 0.10654,1.98972 -0.29204,4.06342 0.37546,5.98324 0.84532,1.63942 2.91891,1.91075 4.57177,1.737 7.01096,-0.0724 14.03228,0.18163 21.03536,-0.2039 9.18233,-1.13211 17.29745,-8.43087 19.20692,-17.51414 0.99591,-4.54671 0.46489,-9.22481 0.59296,-13.83534 -0.0116,-3.82906 0.0365,-7.66201 -0.0815,-11.48826 -0.37536,-1.77409 -2.32122,-2.59663 -3.97713,-2.50309 z m -176.95556,0.002 c -2.175154,0.18967 -4.4308826,-0.27845 -6.5481998,0.37855 -1.6131604,0.77882 -2.0578668,2.77705 -1.8188505,4.41144 0.058945,6.93069 -0.1596197,13.87031 0.1879836,20.79429 1.0559005,9.22182 8.3480297,17.39973 17.4473317,19.35285 4.571665,1.01731 9.279998,0.48007 13.918145,0.61016 3.932038,-0.012 7.869064,0.0435 11.797532,-0.0911 1.94162,-0.49442 2.728644,-2.76679 2.425217,-4.57602 -0.09587,-1.99989 0.287518,-4.08211 -0.373436,-6.013 -0.824742,-1.60599 -2.848079,-1.91281 -4.475513,-1.73979 -5.281696,-0.0814 -10.61326,0.21182 -15.842362,-0.25015 -1.863274,-0.32443 -3.584711,-0.99371 -5.25609,-2.0156 -2.028818,-1.2638 -3.680383,-2.85266 -4.991766,-4.87376 -1.589657,-2.42713 -2.325716,-5.29902 -2.392656,-8.15282 -0.07474,-5.10343 0.102772,-10.21385 -0.100202,-15.31522 -0.343529,-1.80269 -2.314827,-2.61584 -3.977134,-2.51977 z"
       inkscape:label="selection" />
  </g>
</svg>
