<?xml version="1.0" encoding="UTF-8" standalone="no"?>
<svg
   height="16px"
   viewBox="0 0 16 16"
   width="16px"
   version="1.1"
   id="svg1"
   sodipodi:docname="org.gnome.Settings-trash-file-history-symbolic.svg"
   inkscape:version="1.3.2 (091e20ef0f, 2023-11-25, custom)"
   xmlns:inkscape="http://www.inkscape.org/namespaces/inkscape"
   xmlns:sodipodi="http://sodipodi.sourceforge.net/DTD/sodipodi-0.dtd"
   xmlns="http://www.w3.org/2000/svg"
   xmlns:svg="http://www.w3.org/2000/svg">
  <defs
     id="defs1" />
  <sodipodi:namedview
     id="namedview1"
     pagecolor="#ffffff"
     bordercolor="#000000"
     borderopacity="0.25"
     inkscape:showpageshadow="2"
     inkscape:pageopacity="0.0"
     inkscape:pagecheckerboard="0"
     inkscape:deskcolor="#d1d1d1"
     inkscape:zoom="34.1875"
     inkscape:cx="7.9853748"
     inkscape:cy="5.6599634"
     inkscape:window-width="1444"
     inkscape:window-height="751"
     inkscape:window-x="50"
     inkscape:window-y="116"
     inkscape:window-maximized="0"
     inkscape:current-layer="svg1" />
  <path
     d="m 6.507812 0 c -1.382812 0 -2.5 1.113281 -2.5 2.5 v 0.5 h -3 c -0.546874 0 -0.9999995 0.449219 -0.9999995 1 s 0.4531255 1 0.9999995 1 h 1 v 8 c 0 1.660156 1.34375 3 3 3 h 6.003907 c 1.65625 0 3 -1.339844 3 -3 v -8 h 1 c 0.546875 0 1 -0.449219 1 -1 s -0.453125 -1 -1 -1 h -3.019531 v -0.5 c 0 -1.386719 -1.121094 -2.5 -2.503907 -2.5 z m 0 2 h 2.980469 c 0.269531 0 0.5 0.230469 0.5 0.5 v 0.5 h -3.980469 v -0.5 c 0 -0.269531 0.234376 -0.5 0.5 -0.5 z m -2.5 3 h 8.003907 v 8 c 0 0.546875 -0.457031 1 -1 1 h -6.003907 c -0.542968 0 -1 -0.453125 -1 -1 z m 2.5 1.5 c -0.273437 0 -0.5 0.222656 -0.5 0.5 v 5 c 0 0.277344 0.226563 0.5 0.5 0.5 c 0.277344 0 0.5 -0.222656 0.5 -0.5 v -5 c 0 -0.277344 -0.222656 -0.5 -0.5 -0.5 z m 3.003907 0 c -0.277344 0 -0.5 0.222656 -0.5 0.5 v 5 c 0 0.277344 0.222656 0.5 0.5 0.5 c 0.273437 0 0.5 -0.222656 0.5 -0.5 v -5 c 0 -0.277344 -0.226563 -0.5 -0.5 -0.5 z m 0 0"
     fill="#222222"
     id="path1"
     style="fill:#000000;fill-opacity:1" />
</svg>
