<?xml version="1.0" encoding="UTF-8" standalone="no"?>
<!-- Created with Inkscape (http://www.inkscape.org/) -->

<svg
   width="16"
   height="16"
   viewBox="0 0 4.2333333 4.2333332"
   version="1.1"
   id="svg1"
   inkscape:version="1.3.2 (091e20ef0f, 2023-11-25, custom)"
   sodipodi:docname="video-symbolic.svg"
   xmlns:inkscape="http://www.inkscape.org/namespaces/inkscape"
   xmlns:sodipodi="http://sodipodi.sourceforge.net/DTD/sodipodi-0.dtd"
   xmlns="http://www.w3.org/2000/svg"
   xmlns:svg="http://www.w3.org/2000/svg">
  <sodipodi:namedview
     id="namedview1"
     pagecolor="#ffffff"
     bordercolor="#000000"
     borderopacity="0.25"
     inkscape:showpageshadow="2"
     inkscape:pageopacity="0.0"
     inkscape:pagecheckerboard="0"
     inkscape:deskcolor="#d1d1d1"
     inkscape:document-units="mm"
     inkscape:zoom="23.033894"
     inkscape:cx="8.8130994"
     inkscape:cy="5.9260496"
     inkscape:window-width="1444"
     inkscape:window-height="751"
     inkscape:window-x="254"
     inkscape:window-y="140"
     inkscape:window-maximized="0"
     inkscape:current-layer="layer1" />
  <defs
     id="defs1" />
  <g
     inkscape:label="main"
     inkscape:groupmode="layer"
     id="layer1"
     transform="matrix(0.02163031,0,0,0.02163031,-0.04636431,-0.04636429)">
    <path
       id="path2"
       style="fill:#000000;fill-opacity:1;stroke-width:4.59081;stroke-linecap:round;stroke-linejoin:round"
       inkscape:label="camera"
       inkscape:transform-center-x="14.378074"
       d="m 135.11572,39.038613 c -39.141977,0.0017 -78.284789,-0.01389 -117.426246,0.0307 C 10.879231,39.3892 4.6555856,44.785987 3.496583,51.526892 2.9284442,54.866139 3.3103484,58.264576 3.1996535,61.631189 c 0.00918,28.301802 -0.029498,56.604821 0.038008,84.905851 0.3483137,6.78789 5.7417667,12.9678 12.4603495,14.1222 3.335773,0.56199 6.729707,0.18314 10.092322,0.29347 37.395629,-0.002 74.792077,0.0134 112.187187,-0.0307 6.82575,-0.30513 13.07288,-5.71392 14.22624,-12.47182 0.56408,-3.33492 0.18436,-6.72819 0.29477,-10.0901 0,-3.78685 0,-7.57369 0,-11.36054 13.95899,8.05989 27.91797,16.11979 41.87696,24.17968 1.4177,0.51835 2.77721,-1.13048 2.3789,-2.47851 0,-32.83724 0,-65.674479 0,-98.511719 -0.25498,-1.482437 -2.35905,-1.846423 -3.32617,-0.830078 -13.64323,7.877604 -27.28646,15.755209 -40.92969,23.632813 -0.0386,-6.742839 0.0925,-13.490477 -0.0948,-20.2301 -0.66847,-6.728128 -6.26916,-12.664808 -13.00993,-13.525158 -1.41454,-0.210377 -2.85046,-0.237392 -4.27806,-0.197867 z M 25.184083,47.933144 c 9.992085,0.04086 19.985489,0.0044 29.978125,0.01861 25.7966,0.01052 51.593782,-0.0094 77.390012,0.02016 5.27707,0.208745 10.031,4.802892 10.22155,10.119708 0.17428,2.647541 -0.02,5.302996 0.0608,7.954016 -0.01,25.33478 0.0315,50.671082 -0.0405,76.004892 -0.3564,5.17797 -4.90209,9.75315 -10.128,9.93631 -2.73869,0.15292 -5.48374,-0.0112 -8.22531,0.0557 -33.804255,-0.004 -67.609199,0.0197 -101.413023,-0.0306 -4.68235,-0.26236 -8.953494,-3.89158 -9.88776,-8.50281 -0.511088,-2.32703 -0.196117,-4.729 -0.283553,-7.08967 0.01552,-26.12632 -0.02602,-52.253623 0.04094,-78.379317 0.303288,-5.229437 4.898866,-9.864616 10.168009,-10.042959 0.704303,-0.05971 1.412341,-0.06339 2.118748,-0.06405 z m 162.824217,52.0625 c 0,11.955076 0,23.910156 0,35.865226 -11.75391,-6.7858 -23.50781,-13.57161 -35.26172,-20.35742 0,-10.33854 0,-20.677077 0,-31.015618 11.75391,-6.785808 23.50781,-13.571615 35.26172,-20.357422 0,11.955078 0,23.910156 0,35.865234 z" />
  </g>
</svg>
