<?xml version="1.0" encoding="UTF-8"?>
<svg height="128px" viewBox="0 0 128 128" width="128px" xmlns="http://www.w3.org/2000/svg" xmlns:xlink="http://www.w3.org/1999/xlink">
    <filter id="a" height="100%" width="100%" x="0%" y="0%">
        <feColorMatrix color-interpolation-filters="sRGB" values="0 0 0 0 1 0 0 0 0 1 0 0 0 0 1 0 0 0 1 0"/>
    </filter>
    <linearGradient id="b" gradientUnits="userSpaceOnUse" x1="26.43840522198" x2="84.28443343879" y1="113.53195486743" y2="112.65708675801">
        <stop offset="0" stop-color="#5b361c"/>
        <stop offset="1" stop-color="#5b361c" stop-opacity="0"/>
    </linearGradient>
    <linearGradient id="c" gradientUnits="userSpaceOnUse">
        <stop offset="0" stop-color="#8c8c8c"/>
        <stop offset="1" stop-color="#8c8c8c" stop-opacity="0"/>
    </linearGradient>
    <linearGradient id="d" x1="91.47772545571" x2="27.65492758223" xlink:href="#c" y1="109.08125068108" y2="109.08125068108"/>
    <linearGradient id="e" gradientUnits="userSpaceOnUse">
        <stop offset="0" stop-color="#ffffff"/>
        <stop offset="1" stop-color="#ffffff" stop-opacity="0"/>
    </linearGradient>
    <linearGradient id="f" x1="-0.07275210057" x2="30.09374434003" xlink:href="#e" y1="106.90723115473" y2="106.90723115473"/>
    <linearGradient id="g" x1="136.090446916" x2="104.32185729773" xlink:href="#e" y1="106.90723115473" y2="106.90723115473"/>
    <linearGradient id="h" x1="90.6212794201" x2="27.74993448767" xlink:href="#c" y1="104.79056865954" y2="104.79056865954"/>
    <linearGradient id="i" gradientUnits="userSpaceOnUse">
        <stop offset="0"/>
        <stop offset="1" stop-opacity="0"/>
    </linearGradient>
    <linearGradient id="j" x1="8.8798167296" x2="28.43790141548" xlink:href="#i" y1="71.16213300368" y2="71.16213300368"/>
    <linearGradient id="k" gradientUnits="userSpaceOnUse" x1="87.75494051196" x2="64.65406283011" y1="7.91506764506" y2="44.43889235332">
        <stop offset="0" stop-color="#707070"/>
        <stop offset="1" stop-color="#4d4d4d" stop-opacity="0"/>
    </linearGradient>
    <linearGradient id="l" gradientUnits="userSpaceOnUse">
        <stop offset="0" stop-color="#11499d"/>
        <stop offset="1" stop-color="#11499d" stop-opacity="0"/>
    </linearGradient>
    <linearGradient id="m" x1="116.11456362006" x2="94.64924673321" xlink:href="#l" y1="121.91808763686" y2="78.24209548231"/>
    <linearGradient id="n" x1="33.59231925935" x2="64.62657059409" xlink:href="#l" y1="135.07303237343" y2="77.93918049414"/>
    <linearGradient id="o" x1="18.60037185671" x2="62.49242497716" xlink:href="#l" y1="-36.41630348992" y2="41.87996176201"/>
    <linearGradient id="p" x1="25.07516428682" x2="29.36578830115" xlink:href="#i" y1="30.23556420811" y2="26.15596855509"/>
    <linearGradient id="q" x1="12.0278822427" x2="17.473529488" xlink:href="#i" y1="55.42156169334" y2="20.18997661842"/>
    <linearGradient id="r" x1="25.07516428682" x2="29.36578830115" xlink:href="#i" y1="49.16055520811" y2="45.08095955509"/>
    <linearGradient id="s" x1="12.0278822427" x2="17.473529488" xlink:href="#i" y1="74.34655169334" y2="39.11496661842"/>
    <linearGradient id="t" x1="25.07516428682" x2="29.36578830115" xlink:href="#i" y1="67.73824220811" y2="63.65864655509"/>
    <linearGradient id="u" x1="12.0278822427" x2="17.473529488" xlink:href="#i" y1="92.92423969334" y2="57.69265461842"/>
    <linearGradient id="v" x1="25.07516428682" x2="29.36578830115" xlink:href="#i" y1="86.66323120811" y2="82.58363555509"/>
    <linearGradient id="w" x1="12.0278822427" x2="17.473529488" xlink:href="#i" y1="111.84922769334" y2="76.61764261842"/>
    <clipPath id="x">
        <rect height="128" width="128"/>
    </clipPath>
    <clipPath id="y">
        <rect height="128" width="128"/>
    </clipPath>
    <mask id="z">
        <g filter="url(#a)">
            <g clip-path="url(#y)" filter="url(#a)">
                <g clip-path="url(#x)">
                    <path d="m 29.585938 20.285156 h 75.425781 c 6.140625 0 11.117187 4.976563 11.117187 11.117188 v 73.480468 c 0 6.140626 -4.976562 11.117188 -11.117187 11.117188 h -75.425781 c -6.140626 0 -11.117188 -4.976562 -11.117188 -11.117188 v -73.480468 c 0 -6.140625 4.976562 -11.117188 11.117188 -11.117188 z m 0 0" fill="#755037"/>
                    <path d="m 29.585938 20.285156 h 75.425781 c 6.140625 0 11.117187 4.976563 11.117187 11.117188 v 73.480468 c 0 6.140626 -4.976562 11.117188 -11.117187 11.117188 h -75.425781 c -6.140626 0 -11.117188 -4.976562 -11.117188 -11.117188 v -73.480468 c 0 -6.140625 4.976562 -11.117188 11.117188 -11.117188 z m 0 0" fill="url(#b)"/>
                    <path d="m 29.625 16.046875 h 75.347656 c 6.160156 0 11.15625 4.996094 11.15625 11.160156 v 73.746094 c 0 6.164063 -4.996094 11.15625 -11.15625 11.15625 h -75.347656 c -6.160156 0 -11.15625 -4.992187 -11.15625 -11.15625 v -73.746094 c 0 -6.164062 4.996094 -11.160156 11.15625 -11.160156 z m 0 0" fill="#464646"/>
                    <path d="m 18.46875 98.113281 v 0.46875 c 0 5.96875 4.804688 10.773438 10.773438 10.773438 h 76.113281 c 5.96875 0 10.773437 -4.804688 10.773437 -10.773438 v -0.46875 c 0 5.933594 -4.777344 10.710938 -10.710937 10.710938 h -76.238281 c -5.933594 0 -10.710938 -4.777344 -10.710938 -10.710938 z m 0 0" fill="url(#d)"/>
                    <path d="m 29.585938 20.285156 h 75.425781 c 6.140625 0 11.117187 4.976563 11.117187 11.117188 v 73.480468 c 0 6.140626 -4.976562 11.117188 -11.117187 11.117188 h -75.425781 c -6.140626 0 -11.117188 -4.976562 -11.117188 -11.117188 v -73.480468 c 0 -6.140625 4.976562 -11.117188 11.117188 -11.117188 z m 0 0" fill="url(#f)"/>
                    <path d="m 29.585938 20.285156 h 75.425781 c 6.140625 0 11.117187 4.976563 11.117187 11.117188 v 73.480468 c 0 6.140626 -4.976562 11.117188 -11.117187 11.117188 h -75.425781 c -6.140626 0 -11.117188 -4.976562 -11.117188 -11.117188 v -73.480468 c 0 -6.140625 4.976562 -11.117188 11.117188 -11.117188 z m 0 0" fill="url(#g)"/>
                    <path d="m 18.46875 94.3125 v 0.472656 c 0 5.96875 4.804688 10.773438 10.773438 10.773438 h 76.113281 c 5.96875 0 10.773437 -4.804688 10.773437 -10.773438 v -0.472656 c 0 5.9375 -4.777344 10.714844 -10.710937 10.714844 h -76.238281 c -5.933594 0 -10.710938 -4.777344 -10.710938 -10.714844 z m 0 0" fill="url(#h)"/>
                    <path d="m 29.316406 8.160156 h 75.964844 c 5.992188 0 10.847656 4.859375 10.847656 10.847656 v 71.695313 c 0 5.992187 -4.855468 10.847656 -10.847656 10.847656 h -75.964844 c -5.992187 0 -10.847656 -4.855469 -10.847656 -10.847656 v -71.695313 c 0 -5.988281 4.855469 -10.847656 10.847656 -10.847656 z m 0 0" fill="#212121"/>
                    <path d="m 29.316406 8.160156 h 75.964844 c 5.992188 0 10.847656 4.859375 10.847656 10.847656 v 71.695313 c 0 5.992187 -4.855468 10.847656 -10.847656 10.847656 h -75.964844 c -5.992187 0 -10.847656 -4.855469 -10.847656 -10.847656 v -71.695313 c 0 -5.988281 4.855469 -10.847656 10.847656 -10.847656 z m 0 0" fill="url(#j)"/>
                    <path d="m 29.316406 8.160156 h 75.964844 c 5.992188 0 10.847656 4.859375 10.847656 10.847656 v 71.695313 c 0 5.992187 -4.855468 10.847656 -10.847656 10.847656 h -75.964844 c -5.992187 0 -10.847656 -4.855469 -10.847656 -10.847656 v -71.695313 c 0 -5.988281 4.855469 -10.847656 10.847656 -10.847656 z m 0 0" fill="url(#k)"/>
                    <path d="m 91.898438 60.09375 h 7.242187 c 3.773437 0 6.832031 3.058594 6.832031 6.832031 v 17.964844 c 0 3.773437 -3.058594 6.832031 -6.832031 6.832031 h -7.242187 c -3.773438 0 -6.832032 -3.058594 -6.832032 -6.832031 v -17.964844 c 0 -3.773437 3.058594 -6.832031 6.832032 -6.832031 z m 0 0" fill="#f6f9fe"/>
                    <path d="m 91.898438 60.09375 h 7.242187 c 3.773437 0 6.832031 3.058594 6.832031 6.832031 v 17.964844 c 0 3.773437 -3.058594 6.832031 -6.832031 6.832031 h -7.242187 c -3.773438 0 -6.832032 -3.058594 -6.832032 -6.832031 v -17.964844 c 0 -3.773437 3.058594 -6.832031 6.832032 -6.832031 z m 0 0" fill="url(#m)"/>
                    <path d="m 50.398438 60.09375 h 20.316406 c 3.773437 0 6.832031 3.058594 6.832031 6.832031 v 17.964844 c 0 3.773437 -3.058594 6.832031 -6.832031 6.832031 h -20.316406 c -3.773438 0 -6.832032 -3.058594 -6.832032 -6.832031 v -17.964844 c 0 -3.773437 3.058594 -6.832031 6.832032 -6.832031 z m 0 0" fill="#f6f9fe"/>
                    <path d="m 50.398438 60.09375 h 20.316406 c 3.773437 0 6.832031 3.058594 6.832031 6.832031 v 17.964844 c 0 3.773437 -3.058594 6.832031 -6.832031 6.832031 h -20.316406 c -3.773438 0 -6.832032 -3.058594 -6.832032 -6.832031 v -17.964844 c 0 -3.773437 3.058594 -6.832031 6.832032 -6.832031 z m 0 0" fill="url(#n)"/>
                    <path d="m 51.050781 15.980469 h 47.398438 c 4.179687 0 7.566406 3.386719 7.566406 7.566406 v 19.894531 c 0 4.179688 -3.386719 7.566406 -7.566406 7.566406 h -47.398438 c -4.175781 0 -7.566406 -3.386718 -7.566406 -7.566406 v -19.894531 c 0 -4.179687 3.390625 -7.566406 7.566406 -7.566406 z m 0 0" fill="#f6f9fe"/>
                    <path d="m 51.050781 15.980469 h 47.398438 c 4.179687 0 7.566406 3.386719 7.566406 7.566406 v 19.894531 c 0 4.179688 -3.386719 7.566406 -7.566406 7.566406 h -47.398438 c -4.175781 0 -7.566406 -3.386718 -7.566406 -7.566406 v -19.894531 c 0 -4.179687 3.390625 -7.566406 7.566406 -7.566406 z m 0 0" fill="url(#o)"/>
                    <path d="m 35.039062 25.34375 c 0 2.644531 -2.144531 4.789062 -4.792968 4.789062 c -2.644532 0 -4.789063 -2.144531 -4.789063 -4.789062 s 2.144531 -4.789062 4.789063 -4.789062 c 2.648437 0 4.792968 2.144531 4.792968 4.789062 z m 0 0" fill="#adadad"/>
                    <path d="m 35.039062 25.34375 c 0 2.644531 -2.144531 4.789062 -4.792968 4.789062 c -2.644532 0 -4.789063 -2.144531 -4.789063 -4.789062 s 2.144531 -4.789062 4.789063 -4.789062 c 2.648437 0 4.792968 2.144531 4.792968 4.789062 z m 0 0" fill="url(#p)"/>
                    <path d="m 21.347656 14.976562 c -1.699218 -0.042968 -3.441406 0.003907 -5.039062 0.648438 c -3.328125 1.21875 -5.945313 4.234375 -6.570313 7.738281 c -0.367187 1.921875 -0.132812 3.890625 -0.199219 5.832031 c 0.023438 1.792969 -0.078124 3.59375 0.113282 5.378907 c 0.558594 3.929687 3.574218 7.386719 7.417968 8.421875 c 0.417969 0.191406 0.964844 0.199218 1.222657 -0.246094 c 0.332031 -0.566406 0.085937 -1.25 0.160156 -1.871094 c -0.027344 -0.894531 0.050781 -1.804687 -0.039063 -2.691406 c -0.34375 -0.660156 -1.1875 -0.726562 -1.679687 -1.238281 c -1.21875 -0.949219 -1.9375 -2.492188 -1.84375 -4.039063 c -0.109375 -2.578125 0 -5.160156 -0.0625 -7.742187 c 0.128906 -2.222657 1.785156 -4.378907 4.035156 -4.761719 c 1.277344 -0.222656 2.691407 -0.140625 4.023438 -0.136719 c 2.183593 0.1875 4.320312 1.867188 4.609375 4.101563 c 0.003906 0.363281 0.097656 0.703125 0.066406 1.050781 c 0.210938 1.179687 1.207031 2.171875 2.414062 2.285156 c 1.414063 0.191407 2.804688 -0.921875 2.960938 -2.335937 c 0.09375 -4.09375 -2.578125 -8.070313 -6.367188 -9.597656 c -1.636718 -0.714844 -3.457031 -0.851563 -5.222656 -0.796876 z m 0 0" fill="#755037"/>
                    <path d="m 21.347656 14.976562 c -1.699218 -0.042968 -3.441406 0.003907 -5.039062 0.648438 c -3.328125 1.21875 -5.945313 4.234375 -6.570313 7.738281 c -0.367187 1.921875 -0.132812 3.890625 -0.199219 5.832031 c 0.023438 1.792969 -0.078124 3.59375 0.113282 5.378907 c 0.558594 3.929687 3.574218 7.386719 7.417968 8.421875 c 0.417969 0.191406 0.964844 0.199218 1.222657 -0.246094 c 0.332031 -0.566406 0.085937 -1.25 0.160156 -1.871094 c -0.027344 -0.894531 0.050781 -1.804687 -0.039063 -2.691406 c -0.34375 -0.660156 -1.1875 -0.726562 -1.679687 -1.238281 c -1.21875 -0.949219 -1.9375 -2.492188 -1.84375 -4.039063 c -0.109375 -2.578125 0 -5.160156 -0.0625 -7.742187 c 0.128906 -2.222657 1.785156 -4.378907 4.035156 -4.761719 c 1.277344 -0.222656 2.691407 -0.140625 4.023438 -0.136719 c 2.183593 0.1875 4.320312 1.867188 4.609375 4.101563 c 0.003906 0.363281 0.097656 0.703125 0.066406 1.050781 c 0.210938 1.179687 1.207031 2.171875 2.414062 2.285156 c 1.414063 0.191407 2.804688 -0.921875 2.960938 -2.335937 c 0.09375 -4.09375 -2.578125 -8.070313 -6.367188 -9.597656 c -1.636718 -0.714844 -3.457031 -0.851563 -5.222656 -0.796876 z m 0 0" fill="url(#q)"/>
                    <path d="m 35.039062 44.269531 c 0 2.644531 -2.144531 4.785157 -4.792968 4.785157 c -2.644532 0 -4.789063 -2.140626 -4.789063 -4.785157 s 2.144531 -4.789062 4.789063 -4.789062 c 2.648437 0 4.792968 2.144531 4.792968 4.789062 z m 0 0" fill="#adadad"/>
                    <path d="m 35.039062 44.269531 c 0 2.644531 -2.144531 4.785157 -4.792968 4.785157 c -2.644532 0 -4.789063 -2.140626 -4.789063 -4.785157 s 2.144531 -4.789062 4.789063 -4.789062 c 2.648437 0 4.792968 2.144531 4.792968 4.789062 z m 0 0" fill="url(#r)"/>
                    <path d="m 21.347656 33.898438 c -1.699218 -0.039063 -3.441406 0.007812 -5.039062 0.648437 c -3.328125 1.222656 -5.945313 4.238281 -6.570313 7.742187 c -0.367187 1.921876 -0.132812 3.886719 -0.199219 5.832032 c 0.023438 1.792968 -0.078124 3.59375 0.113282 5.378906 c 0.558594 3.929688 3.574218 7.386719 7.417968 8.421875 c 0.417969 0.191406 0.964844 0.199219 1.222657 -0.246094 c 0.332031 -0.566406 0.085937 -1.253906 0.160156 -1.871093 c -0.027344 -0.894532 0.050781 -1.804688 -0.039063 -2.691407 c -0.34375 -0.660156 -1.1875 -0.726562 -1.679687 -1.242187 c -1.21875 -0.949219 -1.9375 -2.488282 -1.84375 -4.035156 c -0.109375 -2.578126 0 -5.164063 -0.0625 -7.742188 c 0.128906 -2.222656 1.785156 -4.382812 4.035156 -4.761719 c 1.277344 -0.222656 2.691407 -0.140625 4.023438 -0.136719 c 2.183593 0.1875 4.320312 1.863282 4.609375 4.101563 c 0.003906 0.363281 0.097656 0.703125 0.066406 1.050781 c 0.210938 1.179688 1.207031 2.171875 2.414062 2.285156 c 1.414063 0.191407 2.804688 -0.925781 2.960938 -2.339843 c 0.09375 -4.089844 -2.578125 -8.066407 -6.367188 -9.59375 c -1.636718 -0.714844 -3.457031 -0.855469 -5.222656 -0.800781 z m 0 0" fill="#755037"/>
                    <path d="m 21.347656 33.898438 c -1.699218 -0.039063 -3.441406 0.007812 -5.039062 0.648437 c -3.328125 1.222656 -5.945313 4.238281 -6.570313 7.742187 c -0.367187 1.921876 -0.132812 3.886719 -0.199219 5.832032 c 0.023438 1.792968 -0.078124 3.59375 0.113282 5.378906 c 0.558594 3.929688 3.574218 7.386719 7.417968 8.421875 c 0.417969 0.191406 0.964844 0.199219 1.222657 -0.246094 c 0.332031 -0.566406 0.085937 -1.253906 0.160156 -1.871093 c -0.027344 -0.894532 0.050781 -1.804688 -0.039063 -2.691407 c -0.34375 -0.660156 -1.1875 -0.726562 -1.679687 -1.242187 c -1.21875 -0.949219 -1.9375 -2.488282 -1.84375 -4.035156 c -0.109375 -2.578126 0 -5.164063 -0.0625 -7.742188 c 0.128906 -2.222656 1.785156 -4.382812 4.035156 -4.761719 c 1.277344 -0.222656 2.691407 -0.140625 4.023438 -0.136719 c 2.183593 0.1875 4.320312 1.863282 4.609375 4.101563 c 0.003906 0.363281 0.097656 0.703125 0.066406 1.050781 c 0.210938 1.179688 1.207031 2.171875 2.414062 2.285156 c 1.414063 0.191407 2.804688 -0.925781 2.960938 -2.339843 c 0.09375 -4.089844 -2.578125 -8.066407 -6.367188 -9.59375 c -1.636718 -0.714844 -3.457031 -0.855469 -5.222656 -0.800781 z m 0 0" fill="url(#s)"/>
                    <path d="m 35.039062 62.847656 c 0 2.644532 -2.144531 4.785156 -4.792968 4.785156 c -2.644532 0 -4.789063 -2.140624 -4.789063 -4.785156 c 0 -2.644531 2.144531 -4.789062 4.789063 -4.789062 c 2.648437 0 4.792968 2.144531 4.792968 4.789062 z m 0 0" fill="#adadad"/>
                    <path d="m 35.039062 62.847656 c 0 2.644532 -2.144531 4.785156 -4.792968 4.785156 c -2.644532 0 -4.789063 -2.140624 -4.789063 -4.785156 c 0 -2.644531 2.144531 -4.789062 4.789063 -4.789062 c 2.648437 0 4.792968 2.144531 4.792968 4.789062 z m 0 0" fill="url(#t)"/>
                    <path d="m 21.347656 52.476562 c -1.699218 -0.039062 -3.441406 0.003907 -5.039062 0.648438 c -3.328125 1.222656 -5.945313 4.238281 -6.570313 7.742188 c -0.367187 1.921874 -0.132812 3.886718 -0.199219 5.832031 c 0.023438 1.789062 -0.078124 3.59375 0.113282 5.378906 c 0.558594 3.925781 3.574218 7.386719 7.417968 8.421875 c 0.417969 0.1875 0.964844 0.199219 1.222657 -0.25 c 0.332031 -0.566406 0.085937 -1.25 0.160156 -1.867188 c -0.027344 -0.894531 0.050781 -1.804687 -0.039063 -2.691406 c -0.34375 -0.660156 -1.1875 -0.726562 -1.679687 -1.242187 c -1.21875 -0.949219 -1.9375 -2.488281 -1.84375 -4.035157 c -0.109375 -2.578124 0 -5.164062 -0.0625 -7.742187 c 0.128906 -2.222656 1.785156 -4.382813 4.035156 -4.761719 c 1.277344 -0.222656 2.691407 -0.140625 4.023438 -0.136718 c 2.183593 0.1875 4.320312 1.863281 4.609375 4.101562 c 0.003906 0.363281 0.097656 0.699219 0.066406 1.050781 c 0.210938 1.175781 1.207031 2.171875 2.414062 2.285157 c 1.414063 0.191406 2.804688 -0.925782 2.960938 -2.339844 c 0.09375 -4.089844 -2.578125 -8.066406 -6.367188 -9.59375 c -1.636718 -0.714844 -3.457031 -0.855469 -5.222656 -0.800782 z m 0 0" fill="#755037"/>
                    <path d="m 21.347656 52.476562 c -1.699218 -0.039062 -3.441406 0.003907 -5.039062 0.648438 c -3.328125 1.222656 -5.945313 4.238281 -6.570313 7.742188 c -0.367187 1.921874 -0.132812 3.886718 -0.199219 5.832031 c 0.023438 1.789062 -0.078124 3.59375 0.113282 5.378906 c 0.558594 3.925781 3.574218 7.386719 7.417968 8.421875 c 0.417969 0.1875 0.964844 0.199219 1.222657 -0.25 c 0.332031 -0.566406 0.085937 -1.25 0.160156 -1.867188 c -0.027344 -0.894531 0.050781 -1.804687 -0.039063 -2.691406 c -0.34375 -0.660156 -1.1875 -0.726562 -1.679687 -1.242187 c -1.21875 -0.949219 -1.9375 -2.488281 -1.84375 -4.035157 c -0.109375 -2.578124 0 -5.164062 -0.0625 -7.742187 c 0.128906 -2.222656 1.785156 -4.382813 4.035156 -4.761719 c 1.277344 -0.222656 2.691407 -0.140625 4.023438 -0.136718 c 2.183593 0.1875 4.320312 1.863281 4.609375 4.101562 c 0.003906 0.363281 0.097656 0.699219 0.066406 1.050781 c 0.210938 1.175781 1.207031 2.171875 2.414062 2.285157 c 1.414063 0.191406 2.804688 -0.925782 2.960938 -2.339844 c 0.09375 -4.089844 -2.578125 -8.066406 -6.367188 -9.59375 c -1.636718 -0.714844 -3.457031 -0.855469 -5.222656 -0.800782 z m 0 0" fill="url(#u)"/>
                    <path d="m 35.039062 81.769531 c 0 2.644531 -2.144531 4.789063 -4.792968 4.789063 c -2.644532 0 -4.789063 -2.144532 -4.789063 -4.789063 s 2.144531 -4.785156 4.789063 -4.785156 c 2.648437 0 4.792968 2.140625 4.792968 4.785156 z m 0 0" fill="#adadad"/>
                    <path d="m 35.039062 81.769531 c 0 2.644531 -2.144531 4.789063 -4.792968 4.789063 c -2.644532 0 -4.789063 -2.144532 -4.789063 -4.789063 s 2.144531 -4.785156 4.789063 -4.785156 c 2.648437 0 4.792968 2.140625 4.792968 4.785156 z m 0 0" fill="url(#v)"/>
                    <path d="m 21.347656 71.402344 c -1.699218 -0.039063 -3.441406 0.003906 -5.039062 0.648437 c -3.328125 1.21875 -5.945313 4.238281 -6.570313 7.742188 c -0.367187 1.921875 -0.132812 3.886719 -0.199219 5.832031 c 0.023438 1.789062 -0.078124 3.59375 0.113282 5.375 c 0.558594 3.929688 3.574218 7.390625 7.417968 8.425781 c 0.417969 0.1875 0.964844 0.199219 1.222657 -0.25 c 0.332031 -0.566406 0.085937 -1.25 0.160156 -1.867187 c -0.027344 -0.898438 0.050781 -1.804688 -0.039063 -2.691406 c -0.34375 -0.660157 -1.1875 -0.726563 -1.679687 -1.242188 c -1.21875 -0.949219 -1.9375 -2.492188 -1.84375 -4.035156 c -0.109375 -2.582032 0 -5.164063 -0.0625 -7.742188 c 0.128906 -2.222656 1.785156 -4.382812 4.035156 -4.761718 c 1.277344 -0.222657 2.691407 -0.140626 4.023438 -0.136719 c 2.183593 0.1875 4.320312 1.863281 4.609375 4.101562 c 0.003906 0.363281 0.097656 0.699219 0.066406 1.050781 c 0.210938 1.175782 1.207031 2.167969 2.414062 2.285157 c 1.414063 0.191406 2.804688 -0.925781 2.960938 -2.339844 c 0.09375 -4.089844 -2.578125 -8.066406 -6.367188 -9.59375 c -1.636718 -0.71875 -3.457031 -0.855469 -5.222656 -0.800781 z m 0 0" fill="#755037"/>
                    <path d="m 21.347656 71.402344 c -1.699218 -0.039063 -3.441406 0.003906 -5.039062 0.648437 c -3.328125 1.21875 -5.945313 4.238281 -6.570313 7.742188 c -0.367187 1.921875 -0.132812 3.886719 -0.199219 5.832031 c 0.023438 1.789062 -0.078124 3.59375 0.113282 5.375 c 0.558594 3.929688 3.574218 7.390625 7.417968 8.425781 c 0.417969 0.1875 0.964844 0.199219 1.222657 -0.25 c 0.332031 -0.566406 0.085937 -1.25 0.160156 -1.867187 c -0.027344 -0.898438 0.050781 -1.804688 -0.039063 -2.691406 c -0.34375 -0.660157 -1.1875 -0.726563 -1.679687 -1.242188 c -1.21875 -0.949219 -1.9375 -2.492188 -1.84375 -4.035156 c -0.109375 -2.582032 0 -5.164063 -0.0625 -7.742188 c 0.128906 -2.222656 1.785156 -4.382812 4.035156 -4.761718 c 1.277344 -0.222657 2.691407 -0.140626 4.023438 -0.136719 c 2.183593 0.1875 4.320312 1.863281 4.609375 4.101562 c 0.003906 0.363281 0.097656 0.699219 0.066406 1.050781 c 0.210938 1.175782 1.207031 2.167969 2.414062 2.285157 c 1.414063 0.191406 2.804688 -0.925781 2.960938 -2.339844 c 0.09375 -4.089844 -2.578125 -8.066406 -6.367188 -9.59375 c -1.636718 -0.71875 -3.457031 -0.855469 -5.222656 -0.800781 z m 0 0" fill="url(#w)"/>
                </g>
            </g>
        </g>
    </mask>
    <mask id="A">
        <g filter="url(#a)">
            <rect fill-opacity="0.8" height="184.32" width="184.32" x="-28.16" y="-28.16"/>
        </g>
    </mask>
    <linearGradient id="B" gradientTransform="matrix(0 0.37 -0.98462 0 295.38501 -30.360001)" gradientUnits="userSpaceOnUse" x1="300" x2="428" y1="235" y2="235">
        <stop offset="0" stop-color="#f9f06b"/>
        <stop offset="1" stop-color="#f5c211"/>
    </linearGradient>
    <clipPath id="C">
        <rect height="128" width="128"/>
    </clipPath>
    <clipPath id="D">
        <rect height="128" width="128"/>
    </clipPath>
    <path d="m 29.585938 20.285156 h 75.425781 c 6.140625 0 11.117187 4.976563 11.117187 11.117188 v 73.480468 c 0 6.140626 -4.976562 11.117188 -11.117187 11.117188 h -75.425781 c -6.140626 0 -11.117188 -4.976562 -11.117188 -11.117188 v -73.480468 c 0 -6.140625 4.976562 -11.117188 11.117188 -11.117188 z m 0 0" fill="#755037"/>
    <path d="m 29.585938 20.285156 h 75.425781 c 6.140625 0 11.117187 4.976563 11.117187 11.117188 v 73.480468 c 0 6.140626 -4.976562 11.117188 -11.117187 11.117188 h -75.425781 c -6.140626 0 -11.117188 -4.976562 -11.117188 -11.117188 v -73.480468 c 0 -6.140625 4.976562 -11.117188 11.117188 -11.117188 z m 0 0" fill="url(#b)"/>
    <path d="m 29.625 16.046875 h 75.347656 c 6.160156 0 11.15625 4.996094 11.15625 11.160156 v 73.746094 c 0 6.164063 -4.996094 11.15625 -11.15625 11.15625 h -75.347656 c -6.160156 0 -11.15625 -4.992187 -11.15625 -11.15625 v -73.746094 c 0 -6.164062 4.996094 -11.160156 11.15625 -11.160156 z m 0 0" fill="#464646"/>
    <path d="m 18.46875 98.113281 v 0.46875 c 0 5.96875 4.804688 10.773438 10.773438 10.773438 h 76.113281 c 5.96875 0 10.773437 -4.804688 10.773437 -10.773438 v -0.46875 c 0 5.933594 -4.777344 10.710938 -10.710937 10.710938 h -76.238281 c -5.933594 0 -10.710938 -4.777344 -10.710938 -10.710938 z m 0 0" fill="url(#d)"/>
    <path d="m 29.585938 20.285156 h 75.425781 c 6.140625 0 11.117187 4.976563 11.117187 11.117188 v 73.480468 c 0 6.140626 -4.976562 11.117188 -11.117187 11.117188 h -75.425781 c -6.140626 0 -11.117188 -4.976562 -11.117188 -11.117188 v -73.480468 c 0 -6.140625 4.976562 -11.117188 11.117188 -11.117188 z m 0 0" fill="url(#f)"/>
    <path d="m 29.585938 20.285156 h 75.425781 c 6.140625 0 11.117187 4.976563 11.117187 11.117188 v 73.480468 c 0 6.140626 -4.976562 11.117188 -11.117187 11.117188 h -75.425781 c -6.140626 0 -11.117188 -4.976562 -11.117188 -11.117188 v -73.480468 c 0 -6.140625 4.976562 -11.117188 11.117188 -11.117188 z m 0 0" fill="url(#g)"/>
    <path d="m 18.46875 94.3125 v 0.472656 c 0 5.96875 4.804688 10.773438 10.773438 10.773438 h 76.113281 c 5.96875 0 10.773437 -4.804688 10.773437 -10.773438 v -0.472656 c 0 5.9375 -4.777344 10.714844 -10.710937 10.714844 h -76.238281 c -5.933594 0 -10.710938 -4.777344 -10.710938 -10.714844 z m 0 0" fill="url(#h)"/>
    <path d="m 29.316406 8.160156 h 75.964844 c 5.992188 0 10.847656 4.859375 10.847656 10.847656 v 71.695313 c 0 5.992187 -4.855468 10.847656 -10.847656 10.847656 h -75.964844 c -5.992187 0 -10.847656 -4.855469 -10.847656 -10.847656 v -71.695313 c 0 -5.988281 4.855469 -10.847656 10.847656 -10.847656 z m 0 0" fill="#212121"/>
    <path d="m 29.316406 8.160156 h 75.964844 c 5.992188 0 10.847656 4.859375 10.847656 10.847656 v 71.695313 c 0 5.992187 -4.855468 10.847656 -10.847656 10.847656 h -75.964844 c -5.992187 0 -10.847656 -4.855469 -10.847656 -10.847656 v -71.695313 c 0 -5.988281 4.855469 -10.847656 10.847656 -10.847656 z m 0 0" fill="url(#j)"/>
    <path d="m 29.316406 8.160156 h 75.964844 c 5.992188 0 10.847656 4.859375 10.847656 10.847656 v 71.695313 c 0 5.992187 -4.855468 10.847656 -10.847656 10.847656 h -75.964844 c -5.992187 0 -10.847656 -4.855469 -10.847656 -10.847656 v -71.695313 c 0 -5.988281 4.855469 -10.847656 10.847656 -10.847656 z m 0 0" fill="url(#k)"/>
    <path d="m 91.898438 60.09375 h 7.242187 c 3.773437 0 6.832031 3.058594 6.832031 6.832031 v 17.964844 c 0 3.773437 -3.058594 6.832031 -6.832031 6.832031 h -7.242187 c -3.773438 0 -6.832032 -3.058594 -6.832032 -6.832031 v -17.964844 c 0 -3.773437 3.058594 -6.832031 6.832032 -6.832031 z m 0 0" fill="#f6f9fe"/>
    <path d="m 91.898438 60.09375 h 7.242187 c 3.773437 0 6.832031 3.058594 6.832031 6.832031 v 17.964844 c 0 3.773437 -3.058594 6.832031 -6.832031 6.832031 h -7.242187 c -3.773438 0 -6.832032 -3.058594 -6.832032 -6.832031 v -17.964844 c 0 -3.773437 3.058594 -6.832031 6.832032 -6.832031 z m 0 0" fill="url(#m)"/>
    <path d="m 50.398438 60.09375 h 20.316406 c 3.773437 0 6.832031 3.058594 6.832031 6.832031 v 17.964844 c 0 3.773437 -3.058594 6.832031 -6.832031 6.832031 h -20.316406 c -3.773438 0 -6.832032 -3.058594 -6.832032 -6.832031 v -17.964844 c 0 -3.773437 3.058594 -6.832031 6.832032 -6.832031 z m 0 0" fill="#f6f9fe"/>
    <path d="m 50.398438 60.09375 h 20.316406 c 3.773437 0 6.832031 3.058594 6.832031 6.832031 v 17.964844 c 0 3.773437 -3.058594 6.832031 -6.832031 6.832031 h -20.316406 c -3.773438 0 -6.832032 -3.058594 -6.832032 -6.832031 v -17.964844 c 0 -3.773437 3.058594 -6.832031 6.832032 -6.832031 z m 0 0" fill="url(#n)"/>
    <path d="m 51.050781 15.980469 h 47.398438 c 4.179687 0 7.566406 3.386719 7.566406 7.566406 v 19.894531 c 0 4.179688 -3.386719 7.566406 -7.566406 7.566406 h -47.398438 c -4.175781 0 -7.566406 -3.386718 -7.566406 -7.566406 v -19.894531 c 0 -4.179687 3.390625 -7.566406 7.566406 -7.566406 z m 0 0" fill="#f6f9fe"/>
    <path d="m 51.050781 15.980469 h 47.398438 c 4.179687 0 7.566406 3.386719 7.566406 7.566406 v 19.894531 c 0 4.179688 -3.386719 7.566406 -7.566406 7.566406 h -47.398438 c -4.175781 0 -7.566406 -3.386718 -7.566406 -7.566406 v -19.894531 c 0 -4.179687 3.390625 -7.566406 7.566406 -7.566406 z m 0 0" fill="url(#o)"/>
    <path d="m 35.039062 25.34375 c 0 2.644531 -2.144531 4.789062 -4.792968 4.789062 c -2.644532 0 -4.789063 -2.144531 -4.789063 -4.789062 s 2.144531 -4.789062 4.789063 -4.789062 c 2.648437 0 4.792968 2.144531 4.792968 4.789062 z m 0 0" fill="#adadad"/>
    <path d="m 35.039062 25.34375 c 0 2.644531 -2.144531 4.789062 -4.792968 4.789062 c -2.644532 0 -4.789063 -2.144531 -4.789063 -4.789062 s 2.144531 -4.789062 4.789063 -4.789062 c 2.648437 0 4.792968 2.144531 4.792968 4.789062 z m 0 0" fill="url(#p)"/>
    <path d="m 21.347656 14.976562 c -1.699218 -0.042968 -3.441406 0.003907 -5.039062 0.648438 c -3.328125 1.21875 -5.945313 4.234375 -6.570313 7.738281 c -0.367187 1.921875 -0.132812 3.890625 -0.199219 5.832031 c 0.023438 1.792969 -0.078124 3.59375 0.113282 5.378907 c 0.558594 3.929687 3.574218 7.386719 7.417968 8.421875 c 0.417969 0.191406 0.964844 0.199218 1.222657 -0.246094 c 0.332031 -0.566406 0.085937 -1.25 0.160156 -1.871094 c -0.027344 -0.894531 0.050781 -1.804687 -0.039063 -2.691406 c -0.34375 -0.660156 -1.1875 -0.726562 -1.679687 -1.238281 c -1.21875 -0.949219 -1.9375 -2.492188 -1.84375 -4.039063 c -0.109375 -2.578125 0 -5.160156 -0.0625 -7.742187 c 0.128906 -2.222657 1.785156 -4.378907 4.035156 -4.761719 c 1.277344 -0.222656 2.691407 -0.140625 4.023438 -0.136719 c 2.183593 0.1875 4.320312 1.867188 4.609375 4.101563 c 0.003906 0.363281 0.097656 0.703125 0.066406 1.050781 c 0.210938 1.179687 1.207031 2.171875 2.414062 2.285156 c 1.414063 0.191407 2.804688 -0.921875 2.960938 -2.335937 c 0.09375 -4.09375 -2.578125 -8.070313 -6.367188 -9.597656 c -1.636718 -0.714844 -3.457031 -0.851563 -5.222656 -0.796876 z m 0 0" fill="#755037"/>
    <path d="m 21.347656 14.976562 c -1.699218 -0.042968 -3.441406 0.003907 -5.039062 0.648438 c -3.328125 1.21875 -5.945313 4.234375 -6.570313 7.738281 c -0.367187 1.921875 -0.132812 3.890625 -0.199219 5.832031 c 0.023438 1.792969 -0.078124 3.59375 0.113282 5.378907 c 0.558594 3.929687 3.574218 7.386719 7.417968 8.421875 c 0.417969 0.191406 0.964844 0.199218 1.222657 -0.246094 c 0.332031 -0.566406 0.085937 -1.25 0.160156 -1.871094 c -0.027344 -0.894531 0.050781 -1.804687 -0.039063 -2.691406 c -0.34375 -0.660156 -1.1875 -0.726562 -1.679687 -1.238281 c -1.21875 -0.949219 -1.9375 -2.492188 -1.84375 -4.039063 c -0.109375 -2.578125 0 -5.160156 -0.0625 -7.742187 c 0.128906 -2.222657 1.785156 -4.378907 4.035156 -4.761719 c 1.277344 -0.222656 2.691407 -0.140625 4.023438 -0.136719 c 2.183593 0.1875 4.320312 1.867188 4.609375 4.101563 c 0.003906 0.363281 0.097656 0.703125 0.066406 1.050781 c 0.210938 1.179687 1.207031 2.171875 2.414062 2.285156 c 1.414063 0.191407 2.804688 -0.921875 2.960938 -2.335937 c 0.09375 -4.09375 -2.578125 -8.070313 -6.367188 -9.597656 c -1.636718 -0.714844 -3.457031 -0.851563 -5.222656 -0.796876 z m 0 0" fill="url(#q)"/>
    <path d="m 35.039062 44.269531 c 0 2.644531 -2.144531 4.785157 -4.792968 4.785157 c -2.644532 0 -4.789063 -2.140626 -4.789063 -4.785157 s 2.144531 -4.789062 4.789063 -4.789062 c 2.648437 0 4.792968 2.144531 4.792968 4.789062 z m 0 0" fill="#adadad"/>
    <path d="m 35.039062 44.269531 c 0 2.644531 -2.144531 4.785157 -4.792968 4.785157 c -2.644532 0 -4.789063 -2.140626 -4.789063 -4.785157 s 2.144531 -4.789062 4.789063 -4.789062 c 2.648437 0 4.792968 2.144531 4.792968 4.789062 z m 0 0" fill="url(#r)"/>
    <path d="m 21.347656 33.898438 c -1.699218 -0.039063 -3.441406 0.007812 -5.039062 0.648437 c -3.328125 1.222656 -5.945313 4.238281 -6.570313 7.742187 c -0.367187 1.921876 -0.132812 3.886719 -0.199219 5.832032 c 0.023438 1.792968 -0.078124 3.59375 0.113282 5.378906 c 0.558594 3.929688 3.574218 7.386719 7.417968 8.421875 c 0.417969 0.191406 0.964844 0.199219 1.222657 -0.246094 c 0.332031 -0.566406 0.085937 -1.253906 0.160156 -1.871093 c -0.027344 -0.894532 0.050781 -1.804688 -0.039063 -2.691407 c -0.34375 -0.660156 -1.1875 -0.726562 -1.679687 -1.242187 c -1.21875 -0.949219 -1.9375 -2.488282 -1.84375 -4.035156 c -0.109375 -2.578126 0 -5.164063 -0.0625 -7.742188 c 0.128906 -2.222656 1.785156 -4.382812 4.035156 -4.761719 c 1.277344 -0.222656 2.691407 -0.140625 4.023438 -0.136719 c 2.183593 0.1875 4.320312 1.863282 4.609375 4.101563 c 0.003906 0.363281 0.097656 0.703125 0.066406 1.050781 c 0.210938 1.179688 1.207031 2.171875 2.414062 2.285156 c 1.414063 0.191407 2.804688 -0.925781 2.960938 -2.339843 c 0.09375 -4.089844 -2.578125 -8.066407 -6.367188 -9.59375 c -1.636718 -0.714844 -3.457031 -0.855469 -5.222656 -0.800781 z m 0 0" fill="#755037"/>
    <path d="m 21.347656 33.898438 c -1.699218 -0.039063 -3.441406 0.007812 -5.039062 0.648437 c -3.328125 1.222656 -5.945313 4.238281 -6.570313 7.742187 c -0.367187 1.921876 -0.132812 3.886719 -0.199219 5.832032 c 0.023438 1.792968 -0.078124 3.59375 0.113282 5.378906 c 0.558594 3.929688 3.574218 7.386719 7.417968 8.421875 c 0.417969 0.191406 0.964844 0.199219 1.222657 -0.246094 c 0.332031 -0.566406 0.085937 -1.253906 0.160156 -1.871093 c -0.027344 -0.894532 0.050781 -1.804688 -0.039063 -2.691407 c -0.34375 -0.660156 -1.1875 -0.726562 -1.679687 -1.242187 c -1.21875 -0.949219 -1.9375 -2.488282 -1.84375 -4.035156 c -0.109375 -2.578126 0 -5.164063 -0.0625 -7.742188 c 0.128906 -2.222656 1.785156 -4.382812 4.035156 -4.761719 c 1.277344 -0.222656 2.691407 -0.140625 4.023438 -0.136719 c 2.183593 0.1875 4.320312 1.863282 4.609375 4.101563 c 0.003906 0.363281 0.097656 0.703125 0.066406 1.050781 c 0.210938 1.179688 1.207031 2.171875 2.414062 2.285156 c 1.414063 0.191407 2.804688 -0.925781 2.960938 -2.339843 c 0.09375 -4.089844 -2.578125 -8.066407 -6.367188 -9.59375 c -1.636718 -0.714844 -3.457031 -0.855469 -5.222656 -0.800781 z m 0 0" fill="url(#s)"/>
    <path d="m 35.039062 62.847656 c 0 2.644532 -2.144531 4.785156 -4.792968 4.785156 c -2.644532 0 -4.789063 -2.140624 -4.789063 -4.785156 c 0 -2.644531 2.144531 -4.789062 4.789063 -4.789062 c 2.648437 0 4.792968 2.144531 4.792968 4.789062 z m 0 0" fill="#adadad"/>
    <path d="m 35.039062 62.847656 c 0 2.644532 -2.144531 4.785156 -4.792968 4.785156 c -2.644532 0 -4.789063 -2.140624 -4.789063 -4.785156 c 0 -2.644531 2.144531 -4.789062 4.789063 -4.789062 c 2.648437 0 4.792968 2.144531 4.792968 4.789062 z m 0 0" fill="url(#t)"/>
    <path d="m 21.347656 52.476562 c -1.699218 -0.039062 -3.441406 0.003907 -5.039062 0.648438 c -3.328125 1.222656 -5.945313 4.238281 -6.570313 7.742188 c -0.367187 1.921874 -0.132812 3.886718 -0.199219 5.832031 c 0.023438 1.789062 -0.078124 3.59375 0.113282 5.378906 c 0.558594 3.925781 3.574218 7.386719 7.417968 8.421875 c 0.417969 0.1875 0.964844 0.199219 1.222657 -0.25 c 0.332031 -0.566406 0.085937 -1.25 0.160156 -1.867188 c -0.027344 -0.894531 0.050781 -1.804687 -0.039063 -2.691406 c -0.34375 -0.660156 -1.1875 -0.726562 -1.679687 -1.242187 c -1.21875 -0.949219 -1.9375 -2.488281 -1.84375 -4.035157 c -0.109375 -2.578124 0 -5.164062 -0.0625 -7.742187 c 0.128906 -2.222656 1.785156 -4.382813 4.035156 -4.761719 c 1.277344 -0.222656 2.691407 -0.140625 4.023438 -0.136718 c 2.183593 0.1875 4.320312 1.863281 4.609375 4.101562 c 0.003906 0.363281 0.097656 0.699219 0.066406 1.050781 c 0.210938 1.175781 1.207031 2.171875 2.414062 2.285157 c 1.414063 0.191406 2.804688 -0.925782 2.960938 -2.339844 c 0.09375 -4.089844 -2.578125 -8.066406 -6.367188 -9.59375 c -1.636718 -0.714844 -3.457031 -0.855469 -5.222656 -0.800782 z m 0 0" fill="#755037"/>
    <path d="m 21.347656 52.476562 c -1.699218 -0.039062 -3.441406 0.003907 -5.039062 0.648438 c -3.328125 1.222656 -5.945313 4.238281 -6.570313 7.742188 c -0.367187 1.921874 -0.132812 3.886718 -0.199219 5.832031 c 0.023438 1.789062 -0.078124 3.59375 0.113282 5.378906 c 0.558594 3.925781 3.574218 7.386719 7.417968 8.421875 c 0.417969 0.1875 0.964844 0.199219 1.222657 -0.25 c 0.332031 -0.566406 0.085937 -1.25 0.160156 -1.867188 c -0.027344 -0.894531 0.050781 -1.804687 -0.039063 -2.691406 c -0.34375 -0.660156 -1.1875 -0.726562 -1.679687 -1.242187 c -1.21875 -0.949219 -1.9375 -2.488281 -1.84375 -4.035157 c -0.109375 -2.578124 0 -5.164062 -0.0625 -7.742187 c 0.128906 -2.222656 1.785156 -4.382813 4.035156 -4.761719 c 1.277344 -0.222656 2.691407 -0.140625 4.023438 -0.136718 c 2.183593 0.1875 4.320312 1.863281 4.609375 4.101562 c 0.003906 0.363281 0.097656 0.699219 0.066406 1.050781 c 0.210938 1.175781 1.207031 2.171875 2.414062 2.285157 c 1.414063 0.191406 2.804688 -0.925782 2.960938 -2.339844 c 0.09375 -4.089844 -2.578125 -8.066406 -6.367188 -9.59375 c -1.636718 -0.714844 -3.457031 -0.855469 -5.222656 -0.800782 z m 0 0" fill="url(#u)"/>
    <path d="m 35.039062 81.769531 c 0 2.644531 -2.144531 4.789063 -4.792968 4.789063 c -2.644532 0 -4.789063 -2.144532 -4.789063 -4.789063 s 2.144531 -4.785156 4.789063 -4.785156 c 2.648437 0 4.792968 2.140625 4.792968 4.785156 z m 0 0" fill="#adadad"/>
    <path d="m 35.039062 81.769531 c 0 2.644531 -2.144531 4.789063 -4.792968 4.789063 c -2.644532 0 -4.789063 -2.144532 -4.789063 -4.789063 s 2.144531 -4.785156 4.789063 -4.785156 c 2.648437 0 4.792968 2.140625 4.792968 4.785156 z m 0 0" fill="url(#v)"/>
    <path d="m 21.347656 71.402344 c -1.699218 -0.039063 -3.441406 0.003906 -5.039062 0.648437 c -3.328125 1.21875 -5.945313 4.238281 -6.570313 7.742188 c -0.367187 1.921875 -0.132812 3.886719 -0.199219 5.832031 c 0.023438 1.789062 -0.078124 3.59375 0.113282 5.375 c 0.558594 3.929688 3.574218 7.390625 7.417968 8.425781 c 0.417969 0.1875 0.964844 0.199219 1.222657 -0.25 c 0.332031 -0.566406 0.085937 -1.25 0.160156 -1.867187 c -0.027344 -0.898438 0.050781 -1.804688 -0.039063 -2.691406 c -0.34375 -0.660157 -1.1875 -0.726563 -1.679687 -1.242188 c -1.21875 -0.949219 -1.9375 -2.492188 -1.84375 -4.035156 c -0.109375 -2.582032 0 -5.164063 -0.0625 -7.742188 c 0.128906 -2.222656 1.785156 -4.382812 4.035156 -4.761718 c 1.277344 -0.222657 2.691407 -0.140626 4.023438 -0.136719 c 2.183593 0.1875 4.320312 1.863281 4.609375 4.101562 c 0.003906 0.363281 0.097656 0.699219 0.066406 1.050781 c 0.210938 1.175782 1.207031 2.167969 2.414062 2.285157 c 1.414063 0.191406 2.804688 -0.925781 2.960938 -2.339844 c 0.09375 -4.089844 -2.578125 -8.066406 -6.367188 -9.59375 c -1.636718 -0.71875 -3.457031 -0.855469 -5.222656 -0.800781 z m 0 0" fill="#755037"/>
    <path d="m 21.347656 71.402344 c -1.699218 -0.039063 -3.441406 0.003906 -5.039062 0.648437 c -3.328125 1.21875 -5.945313 4.238281 -6.570313 7.742188 c -0.367187 1.921875 -0.132812 3.886719 -0.199219 5.832031 c 0.023438 1.789062 -0.078124 3.59375 0.113282 5.375 c 0.558594 3.929688 3.574218 7.390625 7.417968 8.425781 c 0.417969 0.1875 0.964844 0.199219 1.222657 -0.25 c 0.332031 -0.566406 0.085937 -1.25 0.160156 -1.867187 c -0.027344 -0.898438 0.050781 -1.804688 -0.039063 -2.691406 c -0.34375 -0.660157 -1.1875 -0.726563 -1.679687 -1.242188 c -1.21875 -0.949219 -1.9375 -2.492188 -1.84375 -4.035156 c -0.109375 -2.582032 0 -5.164063 -0.0625 -7.742188 c 0.128906 -2.222656 1.785156 -4.382812 4.035156 -4.761718 c 1.277344 -0.222657 2.691407 -0.140626 4.023438 -0.136719 c 2.183593 0.1875 4.320312 1.863281 4.609375 4.101562 c 0.003906 0.363281 0.097656 0.699219 0.066406 1.050781 c 0.210938 1.175782 1.207031 2.167969 2.414062 2.285157 c 1.414063 0.191406 2.804688 -0.925781 2.960938 -2.339844 c 0.09375 -4.089844 -2.578125 -8.066406 -6.367188 -9.59375 c -1.636718 -0.71875 -3.457031 -0.855469 -5.222656 -0.800781 z m 0 0" fill="url(#w)"/>
    <g mask="url(#z)">
        <g clip-path="url(#D)">
            <g mask="url(#A)">
                <g clip-path="url(#C)">
                    <path d="m 128 80.640625 v 47.359375 h -128 v -47.359375 z m 0 0" fill="url(#B)"/>
                    <path d="m 13.308594 80.640625 l 47.355468 47.359375 h 21.214844 l -47.359375 -47.359375 z m 42.421875 0 l 47.363281 47.359375 h 21.214844 l -47.363282 -47.359375 z m 42.429687 0 l 29.839844 29.839844 v -21.210938 l -8.628906 -8.628906 z m -98.160156 7.90625 v 21.214844 l 18.238281 18.238281 h 21.214844 z m 0 0"/>
                </g>
            </g>
        </g>
    </g>
</svg>
