<?xml version="1.0" encoding="UTF-8"?>
<svg height="128px" viewBox="0 0 128 128" width="128px" xmlns="http://www.w3.org/2000/svg" xmlns:xlink="http://www.w3.org/1999/xlink">
    <linearGradient id="a" gradientUnits="userSpaceOnUse" x1="28.3133787316" x2="83.38272644825" y1="113.4712926935" y2="112.63841932935">
        <stop offset="0" stop-color="#5b361c"/>
        <stop offset="1" stop-color="#5b361c" stop-opacity="0"/>
    </linearGradient>
    <linearGradient id="b" gradientUnits="userSpaceOnUse">
        <stop offset="0" stop-color="#464646"/>
        <stop offset="1" stop-color="#dcdcdc" stop-opacity="0"/>
    </linearGradient>
    <linearGradient id="c" x1="29.48082400511" x2="22.6663657953" xlink:href="#b" y1="105.68057541238" y2="105.68057541238"/>
    <linearGradient id="d" x1="112.01690939429" x2="104.56768993311" xlink:href="#b" y1="105.88449259486" y2="105.88449259486"/>
    <linearGradient id="e" gradientUnits="userSpaceOnUse" x1="86.68664491348" x2="64.69463777249" y1="12.92414595768" y2="47.69478215871">
        <stop offset="0" stop-color="#666666"/>
        <stop offset="1" stop-color="#4d4d4d" stop-opacity="0"/>
    </linearGradient>
    <linearGradient id="f" gradientUnits="userSpaceOnUse">
        <stop offset="0" stop-color="#11499d"/>
        <stop offset="1" stop-color="#11499d" stop-opacity="0"/>
    </linearGradient>
    <linearGradient id="g" x1="127.17243413619" x2="93.25001595669" xlink:href="#f" y1="126.78753516948" y2="79.87538996242"/>
    <linearGradient id="h" x1="33.94009880453" x2="64.66846519762" xlink:href="#f" y1="141.1775790008" y2="79.58701526624"/>
    <linearGradient id="i" x1="29.3551326553" x2="62.63676119512" xlink:href="#f" y1="-29.54852759021" y2="45.25868338306"/>
    <linearGradient id="j" gradientUnits="userSpaceOnUse">
        <stop offset="0"/>
        <stop offset="1" stop-opacity="0"/>
    </linearGradient>
    <linearGradient id="k" x1="15.83397531383" x2="20.41179951603" xlink:href="#j" y1="63.01437703875" y2="24.5759380774"/>
    <linearGradient id="l" x1="15.83397531383" x2="20.41179951603" xlink:href="#j" y1="81.11150903875" y2="42.6730700774"/>
    <linearGradient id="m" x1="15.83397531383" x2="20.41179951603" xlink:href="#j" y1="98.77885703875" y2="60.3404180774"/>
    <linearGradient id="n" x1="15.83397531383" x2="20.41179951603" xlink:href="#j" y1="116.87598503875" y2="78.4375460774"/>
    <path d="m 31.308594 24.699219 h 71.804687 c 5.847657 0 10.585938 4.738281 10.585938 10.585937 v 69.949219 c 0 5.847656 -4.738281 10.585937 -10.585938 10.585937 h -71.804687 c -5.84375 0 -10.582032 -4.738281 -10.582032 -10.585937 v -69.949219 c 0 -5.847656 4.738282 -10.585937 10.582032 -10.585937 z m 0 0" fill="#755037"/>
    <path d="m 31.308594 24.699219 h 71.804687 c 5.847657 0 10.585938 4.738281 10.585938 10.585937 v 69.949219 c 0 5.847656 -4.738281 10.585937 -10.585938 10.585937 h -71.804687 c -5.84375 0 -10.582032 -4.738281 -10.582032 -10.585937 v -69.949219 c 0 -5.847656 4.738282 -10.585937 10.582032 -10.585937 z m 0 0" fill="url(#a)"/>
    <path d="m 31.347656 20.667969 h 71.730469 c 5.863281 0 10.621094 4.753906 10.621094 10.621093 v 70.207032 c 0 5.867187 -4.757813 10.621094 -10.621094 10.621094 h -71.730469 c -5.867187 0 -10.621094 -4.753907 -10.621094 -10.621094 v -70.207032 c 0 -5.867187 4.753907 -10.621093 10.621094 -10.621093 z m 0 0" fill="#464646"/>
    <path d="m 31.347656 20.667969 h 71.730469 c 5.863281 0 10.621094 4.753906 10.621094 10.621093 v 70.207032 c 0 5.867187 -4.757813 10.621094 -10.621094 10.621094 h -71.730469 c -5.867187 0 -10.621094 -4.753907 -10.621094 -10.621094 v -70.207032 c 0 -5.867187 4.753907 -10.621093 10.621094 -10.621093 z m 0 0" fill="url(#c)"/>
    <path d="m 31.347656 20.667969 h 71.730469 c 5.863281 0 10.621094 4.753906 10.621094 10.621093 v 70.207032 c 0 5.867187 -4.757813 10.621094 -10.621094 10.621094 h -71.730469 c -5.867187 0 -10.621094 -4.753907 -10.621094 -10.621094 v -70.207032 c 0 -5.867187 4.753907 -10.621093 10.621094 -10.621093 z m 0 0" fill="url(#d)"/>
    <path d="m 31.050781 13.160156 h 72.320313 c 5.703125 0 10.328125 4.621094 10.328125 10.324219 v 68.253906 c 0 5.703125 -4.625 10.328125 -10.328125 10.328125 h -72.320313 c -5.703125 0 -10.324219 -4.625 -10.324219 -10.328125 v -68.253906 c 0 -5.703125 4.621094 -10.324219 10.324219 -10.324219 z m 0 0" fill="#212121"/>
    <path d="m 31.050781 13.160156 h 72.320313 c 5.703125 0 10.328125 4.621094 10.328125 10.324219 v 68.253906 c 0 5.703125 -4.625 10.328125 -10.328125 10.328125 h -72.320313 c -5.703125 0 -10.324219 -4.625 -10.324219 -10.328125 v -68.253906 c 0 -5.703125 4.621094 -10.324219 10.324219 -10.324219 z m 0 0" fill="url(#e)"/>
    <path d="m 90.628906 62.597656 h 6.898438 c 3.589844 0 6.503906 2.914063 6.503906 6.507813 v 17.097656 c 0 3.59375 -2.914062 6.503906 -6.503906 6.503906 h -6.898438 c -3.589844 0 -6.503906 -2.910156 -6.503906 -6.503906 v -17.097656 c 0 -3.59375 2.914062 -6.507813 6.503906 -6.507813 z m 0 0" fill="#f6f9fe"/>
    <path d="m 90.628906 62.597656 h 6.898438 c 3.589844 0 6.503906 2.914063 6.503906 6.507813 v 17.097656 c 0 3.59375 -2.914062 6.503906 -6.503906 6.503906 h -6.898438 c -3.589844 0 -6.503906 -2.910156 -6.503906 -6.503906 v -17.097656 c 0 -3.59375 2.914062 -6.507813 6.503906 -6.507813 z m 0 0" fill="url(#g)"/>
    <path d="m 51.125 62.597656 h 19.339844 c 3.59375 0 6.503906 2.914063 6.503906 6.507813 v 17.097656 c 0 3.59375 -2.910156 6.503906 -6.503906 6.503906 h -19.339844 c -3.59375 0 -6.503906 -2.910156 -6.503906 -6.503906 v -17.097656 c 0 -3.59375 2.910156 -6.507813 6.503906 -6.507813 z m 0 0" fill="#f6f9fe"/>
    <path d="m 51.125 62.597656 h 19.339844 c 3.59375 0 6.503906 2.914063 6.503906 6.507813 v 17.097656 c 0 3.59375 -2.910156 6.503906 -6.503906 6.503906 h -19.339844 c -3.59375 0 -6.503906 -2.910156 -6.503906 -6.503906 v -17.097656 c 0 -3.59375 2.910156 -6.507813 6.503906 -6.507813 z m 0 0" fill="url(#h)"/>
    <path d="m 51.746094 20.601562 h 45.121094 c 3.976562 0 7.203124 3.226563 7.203124 7.203126 v 18.941406 c 0 3.976562 -3.226562 7.203125 -7.203124 7.203125 h -45.121094 c -3.980469 0 -7.203125 -3.226563 -7.203125 -7.203125 v -18.941406 c 0 -3.976563 3.222656 -7.203126 7.203125 -7.203126 z m 0 0" fill="#f6f9fe"/>
    <path d="m 51.746094 20.601562 h 45.121094 c 3.976562 0 7.203124 3.226563 7.203124 7.203126 v 18.941406 c 0 3.976562 -3.226562 7.203125 -7.203124 7.203125 h -45.121094 c -3.980469 0 -7.203125 -3.226563 -7.203125 -7.203125 v -18.941406 c 0 -3.976563 3.222656 -7.203126 7.203125 -7.203126 z m 0 0" fill="url(#i)"/>
    <path d="m 36.5 29.515625 c 0 2.515625 -2.042969 4.558594 -4.558594 4.558594 c -2.519531 0 -4.5625 -2.042969 -4.5625 -4.558594 c 0 -2.519531 2.042969 -4.558594 4.5625 -4.558594 c 2.515625 0 4.558594 2.039063 4.558594 4.558594 z m 0 0" fill="#545454"/>
    <path d="m 23.464844 19.644531 c -1.617188 -0.039062 -3.273438 0.003907 -4.796875 0.617188 c -3.167969 1.164062 -5.65625 4.035156 -6.25 7.371093 c -0.351563 1.828126 -0.128907 3.699219 -0.191407 5.550782 c 0.023438 1.707031 -0.078124 3.421875 0.105469 5.121094 c 0.535157 3.738281 3.40625 7.03125 7.0625 8.019531 c 0.398438 0.179687 0.921875 0.1875 1.164063 -0.238281 c 0.316406 -0.539063 0.082031 -1.191407 0.152344 -1.777344 c -0.023438 -0.855469 0.050781 -1.71875 -0.039063 -2.5625 c -0.324219 -0.628906 -1.128906 -0.695313 -1.597656 -1.183594 c -1.160157 -0.902344 -1.84375 -2.371094 -1.753907 -3.84375 c -0.105468 -2.453125 0 -4.914062 -0.0625 -7.367188 c 0.125 -2.117187 1.703126 -4.171874 3.84375 -4.535156 c 1.21875 -0.210937 2.5625 -0.132812 3.832032 -0.128906 c 2.074218 0.175781 4.113281 1.773438 4.386718 3.902344 c 0.003907 0.347656 0.09375 0.667968 0.066407 1 c 0.195312 1.121094 1.144531 2.066406 2.292969 2.179687 c 1.347656 0.179688 2.671874 -0.882812 2.820312 -2.230469 c 0.089844 -3.894531 -2.453125 -7.679687 -6.0625 -9.132812 c -1.558594 -0.683594 -3.289062 -0.8125 -4.972656 -0.761719 z m 0 0" fill="#755037"/>
    <path d="m 23.464844 19.644531 c -1.617188 -0.039062 -3.273438 0.003907 -4.796875 0.617188 c -3.167969 1.164062 -5.65625 4.035156 -6.25 7.371093 c -0.351563 1.828126 -0.128907 3.699219 -0.191407 5.550782 c 0.023438 1.707031 -0.078124 3.421875 0.105469 5.121094 c 0.535157 3.738281 3.40625 7.03125 7.0625 8.019531 c 0.398438 0.179687 0.921875 0.1875 1.164063 -0.238281 c 0.316406 -0.539063 0.082031 -1.191407 0.152344 -1.777344 c -0.023438 -0.855469 0.050781 -1.71875 -0.039063 -2.5625 c -0.324219 -0.628906 -1.128906 -0.695313 -1.597656 -1.183594 c -1.160157 -0.902344 -1.84375 -2.371094 -1.753907 -3.84375 c -0.105468 -2.453125 0 -4.914062 -0.0625 -7.367188 c 0.125 -2.117187 1.703126 -4.171874 3.84375 -4.535156 c 1.21875 -0.210937 2.5625 -0.132812 3.832032 -0.128906 c 2.074218 0.175781 4.113281 1.773438 4.386718 3.902344 c 0.003907 0.347656 0.09375 0.667968 0.066407 1 c 0.195312 1.121094 1.144531 2.066406 2.292969 2.179687 c 1.347656 0.179688 2.671874 -0.882812 2.820312 -2.230469 c 0.089844 -3.894531 -2.453125 -7.679687 -6.0625 -9.132812 c -1.558594 -0.683594 -3.289062 -0.8125 -4.972656 -0.761719 z m 0 0" fill="url(#k)"/>
    <path d="m 36.5 47.613281 c 0 2.515625 -2.042969 4.558594 -4.558594 4.558594 c -2.519531 0 -4.5625 -2.042969 -4.5625 -4.558594 c 0 -2.519531 2.042969 -4.558593 4.5625 -4.558593 c 2.515625 0 4.558594 2.039062 4.558594 4.558593 z m 0 0" fill="#545454"/>
    <path d="m 23.464844 37.742188 c -1.617188 -0.039063 -3.273438 0.003906 -4.796875 0.617187 c -3.167969 1.160156 -5.65625 4.035156 -6.25 7.367187 c -0.351563 1.832032 -0.128907 3.703126 -0.191407 5.554688 c 0.023438 1.703125 -0.078124 3.421875 0.105469 5.117188 c 0.535157 3.742187 3.40625 7.035156 7.0625 8.019531 c 0.398438 0.183593 0.921875 0.191406 1.164063 -0.234375 c 0.316406 -0.539063 0.082031 -1.191406 0.152344 -1.78125 c -0.023438 -0.851563 0.050781 -1.714844 -0.039063 -2.5625 c -0.324219 -0.628906 -1.128906 -0.691406 -1.597656 -1.179688 c -1.160157 -0.902344 -1.84375 -2.371094 -1.753907 -3.84375 c -0.105468 -2.453125 0 -4.914062 -0.0625 -7.367187 c 0.125 -2.117188 1.703126 -4.171875 3.84375 -4.535157 c 1.21875 -0.210937 2.5625 -0.132812 3.832032 -0.128906 c 2.074218 0.175782 4.113281 1.773438 4.386718 3.902344 c 0.003907 0.347656 0.09375 0.667969 0.066407 1 c 0.195312 1.121094 1.144531 2.066406 2.292969 2.175781 c 1.347656 0.183594 2.671874 -0.878906 2.820312 -2.226562 c 0.089844 -3.894531 -2.453125 -7.679688 -6.0625 -9.132813 c -1.558594 -0.683594 -3.289062 -0.8125 -4.972656 -0.761718 z m 0 0" fill="#755037"/>
    <path d="m 23.464844 37.742188 c -1.617188 -0.039063 -3.273438 0.003906 -4.796875 0.617187 c -3.167969 1.160156 -5.65625 4.035156 -6.25 7.367187 c -0.351563 1.832032 -0.128907 3.703126 -0.191407 5.554688 c 0.023438 1.703125 -0.078124 3.421875 0.105469 5.117188 c 0.535157 3.742187 3.40625 7.035156 7.0625 8.019531 c 0.398438 0.183593 0.921875 0.191406 1.164063 -0.234375 c 0.316406 -0.539063 0.082031 -1.191406 0.152344 -1.78125 c -0.023438 -0.851563 0.050781 -1.714844 -0.039063 -2.5625 c -0.324219 -0.628906 -1.128906 -0.691406 -1.597656 -1.179688 c -1.160157 -0.902344 -1.84375 -2.371094 -1.753907 -3.84375 c -0.105468 -2.453125 0 -4.914062 -0.0625 -7.367187 c 0.125 -2.117188 1.703126 -4.171875 3.84375 -4.535157 c 1.21875 -0.210937 2.5625 -0.132812 3.832032 -0.128906 c 2.074218 0.175782 4.113281 1.773438 4.386718 3.902344 c 0.003907 0.347656 0.09375 0.667969 0.066407 1 c 0.195312 1.121094 1.144531 2.066406 2.292969 2.175781 c 1.347656 0.183594 2.671874 -0.878906 2.820312 -2.226562 c 0.089844 -3.894531 -2.453125 -7.679688 -6.0625 -9.132813 c -1.558594 -0.683594 -3.289062 -0.8125 -4.972656 -0.761718 z m 0 0" fill="url(#l)"/>
    <path d="m 36.5 65.28125 c 0 2.515625 -2.042969 4.558594 -4.558594 4.558594 c -2.519531 0 -4.5625 -2.042969 -4.5625 -4.558594 c 0 -2.519531 2.042969 -4.558594 4.5625 -4.558594 c 2.515625 0 4.558594 2.039063 4.558594 4.558594 z m 0 0" fill="#545454"/>
    <path d="m 23.464844 55.410156 c -1.617188 -0.039062 -3.273438 0.003906 -4.796875 0.617188 c -3.167969 1.160156 -5.65625 4.03125 -6.25 7.367187 c -0.351563 1.832031 -0.128907 3.703125 -0.191407 5.554688 c 0.023438 1.703125 -0.078124 3.417969 0.105469 5.117187 c 0.535157 3.742188 3.40625 7.035156 7.0625 8.019532 c 0.398438 0.179687 0.921875 0.191406 1.164063 -0.234376 c 0.316406 -0.539062 0.082031 -1.191406 0.152344 -1.78125 c -0.023438 -0.851562 0.050781 -1.714843 -0.039063 -2.5625 c -0.324219 -0.628906 -1.128906 -0.691406 -1.597656 -1.179687 c -1.160157 -0.902344 -1.84375 -2.371094 -1.753907 -3.84375 c -0.105468 -2.453125 0 -4.914063 -0.0625 -7.371094 c 0.125 -2.113281 1.703126 -4.171875 3.84375 -4.53125 c 1.21875 -0.210937 2.5625 -0.132812 3.832032 -0.128906 c 2.074218 0.175781 4.113281 1.773437 4.386718 3.902344 c 0.003907 0.347656 0.09375 0.667969 0.066407 1 c 0.195312 1.121093 1.144531 2.066406 2.292969 2.175781 c 1.347656 0.183594 2.671874 -0.878906 2.820312 -2.226562 c 0.089844 -3.894532 -2.453125 -7.679688 -6.0625 -9.132813 c -1.558594 -0.683594 -3.289062 -0.816406 -4.972656 -0.761719 z m 0 0" fill="#755037"/>
    <path d="m 23.464844 55.410156 c -1.617188 -0.039062 -3.273438 0.003906 -4.796875 0.617188 c -3.167969 1.160156 -5.65625 4.03125 -6.25 7.367187 c -0.351563 1.832031 -0.128907 3.703125 -0.191407 5.554688 c 0.023438 1.703125 -0.078124 3.417969 0.105469 5.117187 c 0.535157 3.742188 3.40625 7.035156 7.0625 8.019532 c 0.398438 0.179687 0.921875 0.191406 1.164063 -0.234376 c 0.316406 -0.539062 0.082031 -1.191406 0.152344 -1.78125 c -0.023438 -0.851562 0.050781 -1.714843 -0.039063 -2.5625 c -0.324219 -0.628906 -1.128906 -0.691406 -1.597656 -1.179687 c -1.160157 -0.902344 -1.84375 -2.371094 -1.753907 -3.84375 c -0.105468 -2.453125 0 -4.914063 -0.0625 -7.371094 c 0.125 -2.113281 1.703126 -4.171875 3.84375 -4.53125 c 1.21875 -0.210937 2.5625 -0.132812 3.832032 -0.128906 c 2.074218 0.175781 4.113281 1.773437 4.386718 3.902344 c 0.003907 0.347656 0.09375 0.667969 0.066407 1 c 0.195312 1.121093 1.144531 2.066406 2.292969 2.175781 c 1.347656 0.183594 2.671874 -0.878906 2.820312 -2.226562 c 0.089844 -3.894532 -2.453125 -7.679688 -6.0625 -9.132813 c -1.558594 -0.683594 -3.289062 -0.816406 -4.972656 -0.761719 z m 0 0" fill="url(#m)"/>
    <path d="m 36.5 83.378906 c 0 2.515625 -2.042969 4.558594 -4.558594 4.558594 c -2.519531 0 -4.5625 -2.042969 -4.5625 -4.558594 c 0 -2.519531 2.042969 -4.558594 4.5625 -4.558594 c 2.515625 0 4.558594 2.039063 4.558594 4.558594 z m 0 0" fill="#545454"/>
    <path d="m 23.464844 73.507812 c -1.617188 -0.039062 -3.273438 0.003907 -4.796875 0.617188 c -3.167969 1.160156 -5.65625 4.03125 -6.25 7.367188 c -0.351563 1.832031 -0.128907 3.703124 -0.191407 5.550781 c 0.023438 1.707031 -0.078124 3.421875 0.105469 5.121093 c 0.535157 3.742188 3.40625 7.035157 7.0625 8.019532 c 0.398438 0.179687 0.921875 0.191406 1.164063 -0.234375 c 0.316406 -0.539063 0.082031 -1.191407 0.152344 -1.78125 c -0.023438 -0.851563 0.050781 -1.71875 -0.039063 -2.5625 c -0.324219 -0.628907 -1.128906 -0.691407 -1.597656 -1.179688 c -1.160157 -0.90625 -1.84375 -2.371093 -1.753907 -3.84375 c -0.105468 -2.457031 0 -4.914062 -0.0625 -7.371093 c 0.125 -2.113282 1.703126 -4.171876 3.84375 -4.53125 c 1.21875 -0.214844 2.5625 -0.132813 3.832032 -0.132813 c 2.074218 0.179687 4.113281 1.777344 4.386718 3.90625 c 0.003907 0.34375 0.09375 0.667969 0.066407 1 c 0.195312 1.121094 1.144531 2.066406 2.292969 2.175781 c 1.347656 0.183594 2.671874 -0.878906 2.820312 -2.226562 c 0.089844 -3.894532 -2.453125 -7.679688 -6.0625 -9.132813 c -1.558594 -0.683593 -3.289062 -0.816406 -4.972656 -0.761719 z m 0 0" fill="#755037"/>
    <path d="m 23.464844 73.507812 c -1.617188 -0.039062 -3.273438 0.003907 -4.796875 0.617188 c -3.167969 1.160156 -5.65625 4.03125 -6.25 7.367188 c -0.351563 1.832031 -0.128907 3.703124 -0.191407 5.550781 c 0.023438 1.707031 -0.078124 3.421875 0.105469 5.121093 c 0.535157 3.742188 3.40625 7.035157 7.0625 8.019532 c 0.398438 0.179687 0.921875 0.191406 1.164063 -0.234375 c 0.316406 -0.539063 0.082031 -1.191407 0.152344 -1.78125 c -0.023438 -0.851563 0.050781 -1.71875 -0.039063 -2.5625 c -0.324219 -0.628907 -1.128906 -0.691407 -1.597656 -1.179688 c -1.160157 -0.90625 -1.84375 -2.371093 -1.753907 -3.84375 c -0.105468 -2.457031 0 -4.914062 -0.0625 -7.371093 c 0.125 -2.113282 1.703126 -4.171876 3.84375 -4.53125 c 1.21875 -0.214844 2.5625 -0.132813 3.832032 -0.132813 c 2.074218 0.179687 4.113281 1.777344 4.386718 3.90625 c 0.003907 0.34375 0.09375 0.667969 0.066407 1 c 0.195312 1.121094 1.144531 2.066406 2.292969 2.175781 c 1.347656 0.183594 2.671874 -0.878906 2.820312 -2.226562 c 0.089844 -3.894532 -2.453125 -7.679688 -6.0625 -9.132813 c -1.558594 -0.683593 -3.289062 -0.816406 -4.972656 -0.761719 z m 0 0" fill="url(#n)"/>
</svg>
