<?xml version="1.0" encoding="UTF-8" standalone="no"?>
<!-- Created with Inkscape (http://www.inkscape.org/) -->

<svg
   width="200mm"
   height="200mm"
   viewBox="0 0 200 200"
   version="1.1"
   id="svg1"
   inkscape:version="1.3.2 (091e20ef0f, 2023-11-25, custom)"
   sodipodi:docname="com.maxrdz.Gallery.Devel.svg"
   xmlns:inkscape="http://www.inkscape.org/namespaces/inkscape"
   xmlns:sodipodi="http://sodipodi.sourceforge.net/DTD/sodipodi-0.dtd"
   xmlns:xlink="http://www.w3.org/1999/xlink"
   xmlns="http://www.w3.org/2000/svg"
   xmlns:svg="http://www.w3.org/2000/svg">
  <sodipodi:namedview
     id="namedview1"
     pagecolor="#ffffff"
     bordercolor="#000000"
     borderopacity="0.25"
     inkscape:showpageshadow="2"
     inkscape:pageopacity="0.0"
     inkscape:pagecheckerboard="0"
     inkscape:deskcolor="#d1d1d1"
     inkscape:document-units="mm"
     inkscape:zoom="0.35355339"
     inkscape:cx="446.89148"
     inkscape:cy="309.71277"
     inkscape:window-width="1444"
     inkscape:window-height="751"
     inkscape:window-x="18"
     inkscape:window-y="117"
     inkscape:window-maximized="0"
     inkscape:current-layer="layer3" />
  <defs
     id="defs1">
    <linearGradient
       id="linearGradient51"
       inkscape:collect="always">
      <stop
         style="stop-color:#11499d;stop-opacity:1;"
         offset="0"
         id="stop51" />
      <stop
         style="stop-color:#11499d;stop-opacity:0;"
         offset="1"
         id="stop52" />
    </linearGradient>
    <linearGradient
       id="linearGradient49"
       inkscape:collect="always">
      <stop
         style="stop-color:#11499d;stop-opacity:1;"
         offset="0"
         id="stop49" />
      <stop
         style="stop-color:#11499d;stop-opacity:0;"
         offset="1"
         id="stop50" />
    </linearGradient>
    <linearGradient
       id="linearGradient47"
       inkscape:collect="always">
      <stop
         style="stop-color:#11499d;stop-opacity:1;"
         offset="0"
         id="stop47" />
      <stop
         style="stop-color:#11499d;stop-opacity:0;"
         offset="1"
         id="stop48" />
    </linearGradient>
    <linearGradient
       id="linearGradient46"
       inkscape:collect="always">
      <stop
         style="stop-color:#555555;stop-opacity:1;"
         offset="0"
         id="stop45" />
      <stop
         style="stop-color:#bebebe;stop-opacity:0;"
         offset="1"
         id="stop46" />
    </linearGradient>
    <linearGradient
       id="linearGradient42"
       inkscape:collect="always">
      <stop
         style="stop-color:#555555;stop-opacity:1;"
         offset="0"
         id="stop43" />
      <stop
         style="stop-color:#bebebe;stop-opacity:0;"
         offset="1"
         id="stop44" />
    </linearGradient>
    <linearGradient
       id="linearGradient35"
       inkscape:collect="always">
      <stop
         style="stop-color:#747474;stop-opacity:1;"
         offset="0"
         id="stop35" />
      <stop
         style="stop-color:#5c5c5c;stop-opacity:0;"
         offset="1"
         id="stop36" />
    </linearGradient>
    <linearGradient
       id="linearGradient14"
       inkscape:collect="always">
      <stop
         style="stop-color:#000000;stop-opacity:1;"
         offset="0"
         id="stop14" />
      <stop
         style="stop-color:#000000;stop-opacity:0;"
         offset="1"
         id="stop15" />
    </linearGradient>
    <linearGradient
       inkscape:collect="always"
       xlink:href="#linearGradient14"
       id="linearGradient15"
       x1="18.795078"
       y1="107.23601"
       x2="26.338737"
       y2="43.894459"
       gradientUnits="userSpaceOnUse" />
    <linearGradient
       inkscape:collect="always"
       xlink:href="#linearGradient35"
       id="linearGradient36"
       x1="120.29066"
       y1="41.657871"
       x2="84.461205"
       y2="100.55283"
       gradientUnits="userSpaceOnUse" />
    <linearGradient
       inkscape:collect="always"
       xlink:href="#linearGradient46"
       id="linearGradient44"
       x1="41.566307"
       y1="181.05515"
       x2="30.336966"
       y2="181.05515"
       gradientUnits="userSpaceOnUse" />
    <linearGradient
       inkscape:collect="always"
       xlink:href="#linearGradient42"
       id="linearGradient45"
       gradientUnits="userSpaceOnUse"
       x1="177.57504"
       y1="181.39117"
       x2="165.2997"
       y2="181.39117" />
    <linearGradient
       inkscape:collect="always"
       xlink:href="#linearGradient47"
       id="linearGradient48"
       x1="41.359184"
       y1="-41.784832"
       x2="96.20298"
       y2="81.487724"
       gradientUnits="userSpaceOnUse" />
    <linearGradient
       inkscape:collect="always"
       xlink:href="#linearGradient49"
       id="linearGradient50"
       x1="202.54938"
       y1="215.83667"
       x2="146.64964"
       y2="138.53156"
       gradientUnits="userSpaceOnUse" />
    <linearGradient
       inkscape:collect="always"
       xlink:href="#linearGradient51"
       id="linearGradient52"
       x1="48.914612"
       y1="239.54959"
       x2="99.550964"
       y2="138.05635"
       gradientUnits="userSpaceOnUse" />
    <linearGradient
       inkscape:collect="always"
       xlink:href="#linearGradient14"
       id="linearGradient53"
       gradientUnits="userSpaceOnUse"
       x1="18.795078"
       y1="107.23601"
       x2="26.338737"
       y2="43.894459" />
    <linearGradient
       inkscape:collect="always"
       xlink:href="#linearGradient14"
       id="linearGradient57"
       gradientUnits="userSpaceOnUse"
       x1="18.795078"
       y1="107.23601"
       x2="26.338737"
       y2="43.894459" />
    <linearGradient
       inkscape:collect="always"
       xlink:href="#linearGradient14"
       id="linearGradient58"
       gradientUnits="userSpaceOnUse"
       x1="18.795078"
       y1="107.23601"
       x2="26.338737"
       y2="43.894459" />
    <mask
       maskUnits="userSpaceOnUse"
       id="mask106">
      <g
         inkscape:groupmode="layer"
         id="g125"
         inkscape:label="logo copy"
         transform="matrix(1,0,0,0.96102275,6.0570946,-4.4452797)">
        <g
           id="g109"
           inkscape:label="base"
           transform="matrix(1.1370885,0,0,1.1370885,-15.688357,-15.467388)">
          <rect
             style="fill:#755037;fill-opacity:1;stroke-width:6.31452;stroke-linecap:round;stroke-linejoin:round;stroke-dasharray:none"
             id="rect106"
             width="153.20749"
             height="150.15456"
             x="27.139244"
             y="47.609276"
             ry="17.440838"
             inkscape:label="cover" />
          <rect
             style="fill:#555555;fill-opacity:1;stroke-width:6.32599;stroke-linecap:round;stroke-linejoin:round;stroke-dasharray:none"
             id="rect107"
             width="153.20749"
             height="150.70073"
             x="27.139244"
             y="40.96331"
             ry="17.504278"
             inkscape:label="pages" />
          <rect
             style="fill:url(#linearGradient125);fill-opacity:1;stroke-width:6.32599;stroke-linecap:round;stroke-linejoin:round;stroke-dasharray:none"
             id="rect108"
             width="153.20749"
             height="150.70073"
             x="27.139244"
             y="40.96331"
             ry="17.504278"
             inkscape:label="left_gradient" />
          <rect
             style="fill:url(#linearGradient126);fill-opacity:1;stroke-width:6.32599;stroke-linecap:round;stroke-linejoin:round;stroke-dasharray:none"
             id="rect109"
             width="153.20749"
             height="150.70073"
             x="27.139244"
             y="40.96331"
             ry="17.504278"
             inkscape:label="right_gradient" />
        </g>
        <g
           id="g117"
           inkscape:label="page"
           transform="matrix(1.1370885,0,0,1.1370885,-15.688357,-15.467388)">
          <rect
             style="fill:#333333;fill-opacity:1;stroke-width:6.23734;stroke-linecap:round;stroke-linejoin:round;stroke-dasharray:none"
             id="rect110"
             width="153.20749"
             height="146.50662"
             x="27.139244"
             y="28.591125"
             ry="17.01712"
             inkscape:label="page" />
          <rect
             style="fill:url(#linearGradient127);fill-opacity:1;stroke-width:6.23734;stroke-linecap:round;stroke-linejoin:round;stroke-dasharray:none"
             id="rect111"
             width="153.20749"
             height="146.50662"
             x="27.139244"
             y="28.591125"
             ry="17.01712"
             inkscape:label="gradient" />
          <rect
             style="fill:#f6f9fe;fill-opacity:1;stroke-width:4.06342;stroke-linecap:round;stroke-linejoin:round"
             id="rect112"
             width="32.799946"
             height="49.616543"
             x="131.61449"
             y="110.06252"
             ry="10.718571"
             inkscape:label="img3" />
          <rect
             style="fill:url(#linearGradient128);stroke-width:4.06342;stroke-linecap:round;stroke-linejoin:round"
             id="rect113"
             width="32.799946"
             height="49.616543"
             x="131.61449"
             y="110.06252"
             ry="10.718571"
             inkscape:label="img3g" />
          <rect
             style="fill:#f6f9fe;fill-opacity:1;stroke-width:5.18021;stroke-linecap:round;stroke-linejoin:round"
             id="rect114"
             width="53.306866"
             height="49.616543"
             x="66.514175"
             y="110.06252"
             ry="10.718571"
             inkscape:label="img2" />
          <rect
             style="fill:url(#linearGradient129);fill-opacity:1;stroke-width:5.18021;stroke-linecap:round;stroke-linejoin:round"
             id="rect115"
             width="53.306866"
             height="49.616543"
             x="66.514175"
             y="110.06252"
             ry="10.718571"
             inkscape:label="img2g" />
          <rect
             style="fill:#f6f9fe;fill-opacity:1;stroke-width:7.3953;stroke-linecap:round;stroke-linejoin:round"
             id="rect116"
             width="98.095055"
             height="54.951458"
             x="66.385117"
             y="40.856041"
             ry="11.871062"
             inkscape:label="img1" />
          <rect
             style="fill:url(#linearGradient130);fill-opacity:1;stroke-width:7.3953;stroke-linecap:round;stroke-linejoin:round"
             id="rect117"
             width="98.095055"
             height="54.951458"
             x="66.385117"
             y="40.856041"
             ry="11.871062"
             inkscape:label="img1g" />
        </g>
        <g
           id="g118"
           transform="matrix(1.1370885,0,0,1.1370885,-15.366571,-11.475309)">
          <ellipse
             style="fill:#545454;fill-opacity:1;stroke-width:5.25953;stroke-linecap:round;stroke-linejoin:round"
             id="ellipse117"
             cx="45.618568"
             cy="52.127869"
             rx="7.5137115"
             ry="7.5117226"
             transform="translate(-0.2829911,-0.09354432)" />
          <path
             id="path117"
             style="fill:#755037;fill-opacity:1;stroke-width:6.74339;stroke-linecap:round;stroke-linejoin:round"
             d="m 31.371768,35.769531 c -2.663814,-0.06375 -5.396749,0.007 -7.903775,1.016642 -5.220978,1.914568 -9.326403,6.646378 -10.304946,12.143248 -0.576781,3.016776 -0.212144,6.100133 -0.314929,9.148692 0.03899,2.810849 -0.123298,5.637755 0.177993,8.436667 0.879155,6.164558 5.609,11.591701 11.635374,13.215633 0.659165,0.296235 1.517569,0.312848 1.920834,-0.390337 0.522521,-0.888292 0.13171,-1.961197 0.248434,-2.931873 -0.04049,-1.405133 0.08176,-2.830299 -0.0625,-4.222656 -0.535168,-1.036342 -1.862888,-1.140051 -2.632301,-1.945794 -1.910787,-1.489125 -3.036606,-3.907709 -2.89267,-6.332744 -0.171243,-4.046091 -0.0013,-8.098846 -0.100029,-12.14529 0.206552,-3.486073 2.803786,-6.873924 6.332031,-7.470703 2.007373,-0.348877 4.224073,-0.219315 6.314244,-0.213676 3.421346,0.292514 6.775703,2.924023 7.230237,6.434622 0.0071,0.568833 0.151469,1.099229 0.10591,1.646241 0.327228,1.848606 1.890339,3.406581 3.781327,3.587578 C 47.128,56.04591 49.311681,54.293808 49.553409,52.076172 49.704505,45.657438 45.5097,39.41798 39.563567,37.024632 36.997404,35.899289 34.141404,35.682807 31.371768,35.769531 Z" />
          <path
             id="path118"
             style="fill:url(#linearGradient131);fill-opacity:1;stroke-width:6.74339;stroke-linecap:round;stroke-linejoin:round"
             d="m 31.371768,35.769531 c -2.663814,-0.06375 -5.396749,0.007 -7.903775,1.016642 -5.220978,1.914568 -9.326403,6.646378 -10.304946,12.143248 -0.576781,3.016776 -0.212144,6.100133 -0.314929,9.148692 0.03899,2.810849 -0.123298,5.637755 0.177993,8.436667 0.879155,6.164558 5.609,11.591701 11.635374,13.215633 0.659165,0.296235 1.517569,0.312848 1.920834,-0.390337 0.522521,-0.888292 0.13171,-1.961197 0.248434,-2.931873 -0.04049,-1.405133 0.08176,-2.830299 -0.0625,-4.222656 -0.535168,-1.036342 -1.862888,-1.140051 -2.632301,-1.945794 -1.910787,-1.489125 -3.036606,-3.907709 -2.89267,-6.332744 -0.171243,-4.046091 -0.0013,-8.098846 -0.100029,-12.14529 0.206552,-3.486073 2.803786,-6.873924 6.332031,-7.470703 2.007373,-0.348877 4.224073,-0.219315 6.314244,-0.213676 3.421346,0.292514 6.775703,2.924023 7.230237,6.434622 0.0071,0.568833 0.151469,1.099229 0.10591,1.646241 0.327228,1.848606 1.890339,3.406581 3.781327,3.587578 C 47.128,56.04591 49.311681,54.293808 49.553409,52.076172 49.704505,45.657438 45.5097,39.41798 39.563567,37.024632 36.997404,35.899289 34.141404,35.682807 31.371768,35.769531 Z"
             inkscape:label="gradient" />
        </g>
        <g
           id="g120"
           transform="matrix(1.1370885,0,0,1.1370885,-15.366571,22.434626)">
          <ellipse
             style="fill:#545454;fill-opacity:1;stroke-width:5.25953;stroke-linecap:round;stroke-linejoin:round"
             id="ellipse118"
             cx="45.618568"
             cy="52.127869"
             rx="7.5137115"
             ry="7.5117226"
             transform="translate(-0.2829911,-0.09354432)" />
          <path
             id="path119"
             style="fill:#755037;fill-opacity:1;stroke-width:6.74339;stroke-linecap:round;stroke-linejoin:round"
             d="m 31.371768,35.769531 c -2.663814,-0.06375 -5.396749,0.007 -7.903775,1.016642 -5.220978,1.914568 -9.326403,6.646378 -10.304946,12.143248 -0.576781,3.016776 -0.212144,6.100133 -0.314929,9.148692 0.03899,2.810849 -0.123298,5.637755 0.177993,8.436667 0.879155,6.164558 5.609,11.591701 11.635374,13.215633 0.659165,0.296235 1.517569,0.312848 1.920834,-0.390337 0.522521,-0.888292 0.13171,-1.961197 0.248434,-2.931873 -0.04049,-1.405133 0.08176,-2.830299 -0.0625,-4.222656 -0.535168,-1.036342 -1.862888,-1.140051 -2.632301,-1.945794 -1.910787,-1.489125 -3.036606,-3.907709 -2.89267,-6.332744 -0.171243,-4.046091 -0.0013,-8.098846 -0.100029,-12.14529 0.206552,-3.486073 2.803786,-6.873924 6.332031,-7.470703 2.007373,-0.348877 4.224073,-0.219315 6.314244,-0.213676 3.421346,0.292514 6.775703,2.924023 7.230237,6.434622 0.0071,0.568833 0.151469,1.099229 0.10591,1.646241 0.327228,1.848606 1.890339,3.406581 3.781327,3.587578 C 47.128,56.04591 49.311681,54.293808 49.553409,52.076172 49.704505,45.657438 45.5097,39.41798 39.563567,37.024632 36.997404,35.899289 34.141404,35.682807 31.371768,35.769531 Z" />
          <path
             id="path120"
             style="fill:url(#linearGradient132);fill-opacity:1;stroke-width:6.74339;stroke-linecap:round;stroke-linejoin:round"
             d="m 31.371768,35.769531 c -2.663814,-0.06375 -5.396749,0.007 -7.903775,1.016642 -5.220978,1.914568 -9.326403,6.646378 -10.304946,12.143248 -0.576781,3.016776 -0.212144,6.100133 -0.314929,9.148692 0.03899,2.810849 -0.123298,5.637755 0.177993,8.436667 0.879155,6.164558 5.609,11.591701 11.635374,13.215633 0.659165,0.296235 1.517569,0.312848 1.920834,-0.390337 0.522521,-0.888292 0.13171,-1.961197 0.248434,-2.931873 -0.04049,-1.405133 0.08176,-2.830299 -0.0625,-4.222656 -0.535168,-1.036342 -1.862888,-1.140051 -2.632301,-1.945794 -1.910787,-1.489125 -3.036606,-3.907709 -2.89267,-6.332744 -0.171243,-4.046091 -0.0013,-8.098846 -0.100029,-12.14529 0.206552,-3.486073 2.803786,-6.873924 6.332031,-7.470703 2.007373,-0.348877 4.224073,-0.219315 6.314244,-0.213676 3.421346,0.292514 6.775703,2.924023 7.230237,6.434622 0.0071,0.568833 0.151469,1.099229 0.10591,1.646241 0.327228,1.848606 1.890339,3.406581 3.781327,3.587578 C 47.128,56.04591 49.311681,54.293808 49.553409,52.076172 49.704505,45.657438 45.5097,39.41798 39.563567,37.024632 36.997404,35.899289 34.141404,35.682807 31.371768,35.769531 Z"
             inkscape:label="gradient" />
        </g>
        <g
           id="g122"
           transform="matrix(1.1370885,0,0,1.1370885,-15.366571,55.539245)">
          <ellipse
             style="fill:#545454;fill-opacity:1;stroke-width:5.25953;stroke-linecap:round;stroke-linejoin:round"
             id="ellipse120"
             cx="45.618568"
             cy="52.127869"
             rx="7.5137115"
             ry="7.5117226"
             transform="translate(-0.2829911,-0.09354432)" />
          <path
             id="path121"
             style="fill:#755037;fill-opacity:1;stroke-width:6.74339;stroke-linecap:round;stroke-linejoin:round"
             d="m 31.371768,35.769531 c -2.663814,-0.06375 -5.396749,0.007 -7.903775,1.016642 -5.220978,1.914568 -9.326403,6.646378 -10.304946,12.143248 -0.576781,3.016776 -0.212144,6.100133 -0.314929,9.148692 0.03899,2.810849 -0.123298,5.637755 0.177993,8.436667 0.879155,6.164558 5.609,11.591701 11.635374,13.215633 0.659165,0.296235 1.517569,0.312848 1.920834,-0.390337 0.522521,-0.888292 0.13171,-1.961197 0.248434,-2.931873 -0.04049,-1.405133 0.08176,-2.830299 -0.0625,-4.222656 -0.535168,-1.036342 -1.862888,-1.140051 -2.632301,-1.945794 -1.910787,-1.489125 -3.036606,-3.907709 -2.89267,-6.332744 -0.171243,-4.046091 -0.0013,-8.098846 -0.100029,-12.14529 0.206552,-3.486073 2.803786,-6.873924 6.332031,-7.470703 2.007373,-0.348877 4.224073,-0.219315 6.314244,-0.213676 3.421346,0.292514 6.775703,2.924023 7.230237,6.434622 0.0071,0.568833 0.151469,1.099229 0.10591,1.646241 0.327228,1.848606 1.890339,3.406581 3.781327,3.587578 C 47.128,56.04591 49.311681,54.293808 49.553409,52.076172 49.704505,45.657438 45.5097,39.41798 39.563567,37.024632 36.997404,35.899289 34.141404,35.682807 31.371768,35.769531 Z" />
          <path
             id="path122"
             style="fill:url(#linearGradient133);fill-opacity:1;stroke-width:6.74339;stroke-linecap:round;stroke-linejoin:round"
             d="m 31.371768,35.769531 c -2.663814,-0.06375 -5.396749,0.007 -7.903775,1.016642 -5.220978,1.914568 -9.326403,6.646378 -10.304946,12.143248 -0.576781,3.016776 -0.212144,6.100133 -0.314929,9.148692 0.03899,2.810849 -0.123298,5.637755 0.177993,8.436667 0.879155,6.164558 5.609,11.591701 11.635374,13.215633 0.659165,0.296235 1.517569,0.312848 1.920834,-0.390337 0.522521,-0.888292 0.13171,-1.961197 0.248434,-2.931873 -0.04049,-1.405133 0.08176,-2.830299 -0.0625,-4.222656 -0.535168,-1.036342 -1.862888,-1.140051 -2.632301,-1.945794 -1.910787,-1.489125 -3.036606,-3.907709 -2.89267,-6.332744 -0.171243,-4.046091 -0.0013,-8.098846 -0.100029,-12.14529 0.206552,-3.486073 2.803786,-6.873924 6.332031,-7.470703 2.007373,-0.348877 4.224073,-0.219315 6.314244,-0.213676 3.421346,0.292514 6.775703,2.924023 7.230237,6.434622 0.0071,0.568833 0.151469,1.099229 0.10591,1.646241 0.327228,1.848606 1.890339,3.406581 3.781327,3.587578 C 47.128,56.04591 49.311681,54.293808 49.553409,52.076172 49.704505,45.657438 45.5097,39.41798 39.563567,37.024632 36.997404,35.899289 34.141404,35.682807 31.371768,35.769531 Z"
             inkscape:label="gradient" />
        </g>
        <g
           id="g124"
           transform="matrix(1.1370885,0,0,1.1370885,-15.366571,89.449176)">
          <ellipse
             style="fill:#545454;fill-opacity:1;stroke-width:5.25953;stroke-linecap:round;stroke-linejoin:round"
             id="ellipse122"
             cx="45.618568"
             cy="52.127869"
             rx="7.5137115"
             ry="7.5117226"
             transform="translate(-0.2829911,-0.09354432)" />
          <path
             id="path123"
             style="fill:#755037;fill-opacity:1;stroke-width:6.74339;stroke-linecap:round;stroke-linejoin:round"
             d="m 31.371768,35.769531 c -2.663814,-0.06375 -5.396749,0.007 -7.903775,1.016642 -5.220978,1.914568 -9.326403,6.646378 -10.304946,12.143248 -0.576781,3.016776 -0.212144,6.100133 -0.314929,9.148692 0.03899,2.810849 -0.123298,5.637755 0.177993,8.436667 0.879155,6.164558 5.609,11.591701 11.635374,13.215633 0.659165,0.296235 1.517569,0.312848 1.920834,-0.390337 0.522521,-0.888292 0.13171,-1.961197 0.248434,-2.931873 -0.04049,-1.405133 0.08176,-2.830299 -0.0625,-4.222656 -0.535168,-1.036342 -1.862888,-1.140051 -2.632301,-1.945794 -1.910787,-1.489125 -3.036606,-3.907709 -2.89267,-6.332744 -0.171243,-4.046091 -0.0013,-8.098846 -0.100029,-12.14529 0.206552,-3.486073 2.803786,-6.873924 6.332031,-7.470703 2.007373,-0.348877 4.224073,-0.219315 6.314244,-0.213676 3.421346,0.292514 6.775703,2.924023 7.230237,6.434622 0.0071,0.568833 0.151469,1.099229 0.10591,1.646241 0.327228,1.848606 1.890339,3.406581 3.781327,3.587578 C 47.128,56.04591 49.311681,54.293808 49.553409,52.076172 49.704505,45.657438 45.5097,39.41798 39.563567,37.024632 36.997404,35.899289 34.141404,35.682807 31.371768,35.769531 Z" />
          <path
             id="path124"
             style="fill:url(#linearGradient134);fill-opacity:1;stroke-width:6.74339;stroke-linecap:round;stroke-linejoin:round"
             d="m 31.371768,35.769531 c -2.663814,-0.06375 -5.396749,0.007 -7.903775,1.016642 -5.220978,1.914568 -9.326403,6.646378 -10.304946,12.143248 -0.576781,3.016776 -0.212144,6.100133 -0.314929,9.148692 0.03899,2.810849 -0.123298,5.637755 0.177993,8.436667 0.879155,6.164558 5.609,11.591701 11.635374,13.215633 0.659165,0.296235 1.517569,0.312848 1.920834,-0.390337 0.522521,-0.888292 0.13171,-1.961197 0.248434,-2.931873 -0.04049,-1.405133 0.08176,-2.830299 -0.0625,-4.222656 -0.535168,-1.036342 -1.862888,-1.140051 -2.632301,-1.945794 -1.910787,-1.489125 -3.036606,-3.907709 -2.89267,-6.332744 -0.171243,-4.046091 -0.0013,-8.098846 -0.100029,-12.14529 0.206552,-3.486073 2.803786,-6.873924 6.332031,-7.470703 2.007373,-0.348877 4.224073,-0.219315 6.314244,-0.213676 3.421346,0.292514 6.775703,2.924023 7.230237,6.434622 0.0071,0.568833 0.151469,1.099229 0.10591,1.646241 0.327228,1.848606 1.890339,3.406581 3.781327,3.587578 C 47.128,56.04591 49.311681,54.293808 49.553409,52.076172 49.704505,45.657438 45.5097,39.41798 39.563567,37.024632 36.997404,35.899289 34.141404,35.682807 31.371768,35.769531 Z"
             inkscape:label="gradient" />
        </g>
      </g>
    </mask>
    <linearGradient
       inkscape:collect="always"
       xlink:href="#linearGradient46"
       id="linearGradient125"
       gradientUnits="userSpaceOnUse"
       x1="41.566307"
       y1="181.05515"
       x2="30.336966"
       y2="181.05515" />
    <linearGradient
       inkscape:collect="always"
       xlink:href="#linearGradient42"
       id="linearGradient126"
       gradientUnits="userSpaceOnUse"
       x1="177.57504"
       y1="181.39117"
       x2="165.2997"
       y2="181.39117" />
    <linearGradient
       inkscape:collect="always"
       xlink:href="#linearGradient35"
       id="linearGradient127"
       gradientUnits="userSpaceOnUse"
       x1="120.29066"
       y1="41.657871"
       x2="84.461205"
       y2="100.55283" />
    <linearGradient
       inkscape:collect="always"
       xlink:href="#linearGradient49"
       id="linearGradient128"
       gradientUnits="userSpaceOnUse"
       x1="202.54938"
       y1="215.83667"
       x2="146.64964"
       y2="138.53156" />
    <linearGradient
       inkscape:collect="always"
       xlink:href="#linearGradient51"
       id="linearGradient129"
       gradientUnits="userSpaceOnUse"
       x1="48.914612"
       y1="239.54959"
       x2="99.550964"
       y2="138.05635" />
    <linearGradient
       inkscape:collect="always"
       xlink:href="#linearGradient47"
       id="linearGradient130"
       gradientUnits="userSpaceOnUse"
       x1="41.359184"
       y1="-41.784832"
       x2="96.20298"
       y2="81.487724" />
    <linearGradient
       inkscape:collect="always"
       xlink:href="#linearGradient14"
       id="linearGradient131"
       gradientUnits="userSpaceOnUse"
       x1="18.795078"
       y1="107.23601"
       x2="26.338737"
       y2="43.894459" />
    <linearGradient
       inkscape:collect="always"
       xlink:href="#linearGradient14"
       id="linearGradient132"
       gradientUnits="userSpaceOnUse"
       x1="18.795078"
       y1="107.23601"
       x2="26.338737"
       y2="43.894459" />
    <linearGradient
       inkscape:collect="always"
       xlink:href="#linearGradient14"
       id="linearGradient133"
       gradientUnits="userSpaceOnUse"
       x1="18.795078"
       y1="107.23601"
       x2="26.338737"
       y2="43.894459" />
    <linearGradient
       inkscape:collect="always"
       xlink:href="#linearGradient14"
       id="linearGradient134"
       gradientUnits="userSpaceOnUse"
       x1="18.795078"
       y1="107.23601"
       x2="26.338737"
       y2="43.894459" />
  </defs>
  <g
     inkscape:groupmode="layer"
     id="layer2"
     inkscape:label="logo"
     transform="translate(5.6994395,-13.225422)">
    <g
       id="g34"
       inkscape:label="base"
       transform="matrix(1.1370885,0,0,1.1370885,-15.688357,-15.467388)">
      <rect
         style="fill:#755037;fill-opacity:1;stroke-width:6.31452;stroke-linecap:round;stroke-linejoin:round;stroke-dasharray:none"
         id="rect12"
         width="153.20749"
         height="150.15456"
         x="27.139244"
         y="47.609276"
         ry="17.440838"
         inkscape:label="cover" />
      <rect
         style="fill:#555555;fill-opacity:1;stroke-width:6.32599;stroke-linecap:round;stroke-linejoin:round;stroke-dasharray:none"
         id="rect15"
         width="153.20749"
         height="150.70073"
         x="27.139244"
         y="40.96331"
         ry="17.504278"
         inkscape:label="pages" />
      <rect
         style="fill:url(#linearGradient44);fill-opacity:1;stroke-width:6.32599;stroke-linecap:round;stroke-linejoin:round;stroke-dasharray:none"
         id="rect44"
         width="153.20749"
         height="150.70073"
         x="27.139244"
         y="40.96331"
         ry="17.504278"
         inkscape:label="left_gradient" />
      <rect
         style="fill:url(#linearGradient45);fill-opacity:1;stroke-width:6.32599;stroke-linecap:round;stroke-linejoin:round;stroke-dasharray:none"
         id="rect45"
         width="153.20749"
         height="150.70073"
         x="27.139244"
         y="40.96331"
         ry="17.504278"
         inkscape:label="right_gradient" />
    </g>
    <g
       id="g35"
       inkscape:label="page"
       transform="matrix(1.1370885,0,0,1.1370885,-15.688357,-15.467388)">
      <rect
         style="fill:#333333;fill-opacity:1;stroke-width:6.23734;stroke-linecap:round;stroke-linejoin:round;stroke-dasharray:none"
         id="rect14"
         width="153.20749"
         height="146.50662"
         x="27.139244"
         y="28.591125"
         ry="17.01712"
         inkscape:label="page" />
      <rect
         style="fill:url(#linearGradient36);fill-opacity:1;stroke-width:6.23734;stroke-linecap:round;stroke-linejoin:round;stroke-dasharray:none"
         id="rect35"
         width="153.20749"
         height="146.50662"
         x="27.139244"
         y="28.591125"
         ry="17.01712"
         inkscape:label="gradient" />
      <rect
         style="fill:#f6f9fe;fill-opacity:1;stroke-width:4.06342;stroke-linecap:round;stroke-linejoin:round"
         id="rect36"
         width="32.799946"
         height="49.616543"
         x="131.61449"
         y="110.06252"
         ry="10.718571"
         inkscape:label="img3" />
      <rect
         style="fill:url(#linearGradient50);stroke-width:4.06342;stroke-linecap:round;stroke-linejoin:round"
         id="rect48"
         width="32.799946"
         height="49.616543"
         x="131.61449"
         y="110.06252"
         ry="10.718571"
         inkscape:label="img3g" />
      <rect
         style="fill:#f6f9fe;fill-opacity:1;stroke-width:5.18021;stroke-linecap:round;stroke-linejoin:round"
         id="rect33"
         width="53.306866"
         height="49.616543"
         x="66.514175"
         y="110.06252"
         ry="10.718571"
         inkscape:label="img2" />
      <rect
         style="fill:url(#linearGradient52);fill-opacity:1;stroke-width:5.18021;stroke-linecap:round;stroke-linejoin:round"
         id="rect50"
         width="53.306866"
         height="49.616543"
         x="66.514175"
         y="110.06252"
         ry="10.718571"
         inkscape:label="img2g" />
      <rect
         style="fill:#f6f9fe;fill-opacity:1;stroke-width:7.3953;stroke-linecap:round;stroke-linejoin:round"
         id="rect25"
         width="98.095055"
         height="54.951458"
         x="66.385117"
         y="40.856041"
         ry="11.871062"
         inkscape:label="img1" />
      <rect
         style="fill:url(#linearGradient48);fill-opacity:1;stroke-width:7.3953;stroke-linecap:round;stroke-linejoin:round"
         id="rect46"
         width="98.095055"
         height="54.951458"
         x="66.385117"
         y="40.856041"
         ry="11.871062"
         inkscape:label="img1g" />
    </g>
    <g
       id="g15"
       transform="matrix(1.1370885,0,0,1.1370885,-15.366571,-11.475309)">
      <ellipse
         style="fill:#545454;fill-opacity:1;stroke-width:5.25953;stroke-linecap:round;stroke-linejoin:round"
         id="path15"
         cx="45.618568"
         cy="52.127869"
         rx="7.5137115"
         ry="7.5117226"
         transform="translate(-0.2829911,-0.09354432)" />
      <path
         id="rect13"
         style="fill:#755037;fill-opacity:1;stroke-width:6.74339;stroke-linecap:round;stroke-linejoin:round"
         d="m 31.371768,35.769531 c -2.663814,-0.06375 -5.396749,0.007 -7.903775,1.016642 -5.220978,1.914568 -9.326403,6.646378 -10.304946,12.143248 -0.576781,3.016776 -0.212144,6.100133 -0.314929,9.148692 0.03899,2.810849 -0.123298,5.637755 0.177993,8.436667 0.879155,6.164558 5.609,11.591701 11.635374,13.215633 0.659165,0.296235 1.517569,0.312848 1.920834,-0.390337 0.522521,-0.888292 0.13171,-1.961197 0.248434,-2.931873 -0.04049,-1.405133 0.08176,-2.830299 -0.0625,-4.222656 -0.535168,-1.036342 -1.862888,-1.140051 -2.632301,-1.945794 -1.910787,-1.489125 -3.036606,-3.907709 -2.89267,-6.332744 -0.171243,-4.046091 -0.0013,-8.098846 -0.100029,-12.14529 0.206552,-3.486073 2.803786,-6.873924 6.332031,-7.470703 2.007373,-0.348877 4.224073,-0.219315 6.314244,-0.213676 3.421346,0.292514 6.775703,2.924023 7.230237,6.434622 0.0071,0.568833 0.151469,1.099229 0.10591,1.646241 0.327228,1.848606 1.890339,3.406581 3.781327,3.587578 C 47.128,56.04591 49.311681,54.293808 49.553409,52.076172 49.704505,45.657438 45.5097,39.41798 39.563567,37.024632 36.997404,35.899289 34.141404,35.682807 31.371768,35.769531 Z" />
      <path
         id="path14"
         style="fill:url(#linearGradient53);fill-opacity:1;stroke-width:6.74339;stroke-linecap:round;stroke-linejoin:round"
         d="m 31.371768,35.769531 c -2.663814,-0.06375 -5.396749,0.007 -7.903775,1.016642 -5.220978,1.914568 -9.326403,6.646378 -10.304946,12.143248 -0.576781,3.016776 -0.212144,6.100133 -0.314929,9.148692 0.03899,2.810849 -0.123298,5.637755 0.177993,8.436667 0.879155,6.164558 5.609,11.591701 11.635374,13.215633 0.659165,0.296235 1.517569,0.312848 1.920834,-0.390337 0.522521,-0.888292 0.13171,-1.961197 0.248434,-2.931873 -0.04049,-1.405133 0.08176,-2.830299 -0.0625,-4.222656 -0.535168,-1.036342 -1.862888,-1.140051 -2.632301,-1.945794 -1.910787,-1.489125 -3.036606,-3.907709 -2.89267,-6.332744 -0.171243,-4.046091 -0.0013,-8.098846 -0.100029,-12.14529 0.206552,-3.486073 2.803786,-6.873924 6.332031,-7.470703 2.007373,-0.348877 4.224073,-0.219315 6.314244,-0.213676 3.421346,0.292514 6.775703,2.924023 7.230237,6.434622 0.0071,0.568833 0.151469,1.099229 0.10591,1.646241 0.327228,1.848606 1.890339,3.406581 3.781327,3.587578 C 47.128,56.04591 49.311681,54.293808 49.553409,52.076172 49.704505,45.657438 45.5097,39.41798 39.563567,37.024632 36.997404,35.899289 34.141404,35.682807 31.371768,35.769531 Z"
         inkscape:label="gradient" />
    </g>
    <g
       id="g53"
       transform="matrix(1.1370885,0,0,1.1370885,-15.366571,22.434626)">
      <ellipse
         style="fill:#545454;fill-opacity:1;stroke-width:5.25953;stroke-linecap:round;stroke-linejoin:round"
         id="ellipse52"
         cx="45.618568"
         cy="52.127869"
         rx="7.5137115"
         ry="7.5117226"
         transform="translate(-0.2829911,-0.09354432)" />
      <path
         id="path52"
         style="fill:#755037;fill-opacity:1;stroke-width:6.74339;stroke-linecap:round;stroke-linejoin:round"
         d="m 31.371768,35.769531 c -2.663814,-0.06375 -5.396749,0.007 -7.903775,1.016642 -5.220978,1.914568 -9.326403,6.646378 -10.304946,12.143248 -0.576781,3.016776 -0.212144,6.100133 -0.314929,9.148692 0.03899,2.810849 -0.123298,5.637755 0.177993,8.436667 0.879155,6.164558 5.609,11.591701 11.635374,13.215633 0.659165,0.296235 1.517569,0.312848 1.920834,-0.390337 0.522521,-0.888292 0.13171,-1.961197 0.248434,-2.931873 -0.04049,-1.405133 0.08176,-2.830299 -0.0625,-4.222656 -0.535168,-1.036342 -1.862888,-1.140051 -2.632301,-1.945794 -1.910787,-1.489125 -3.036606,-3.907709 -2.89267,-6.332744 -0.171243,-4.046091 -0.0013,-8.098846 -0.100029,-12.14529 0.206552,-3.486073 2.803786,-6.873924 6.332031,-7.470703 2.007373,-0.348877 4.224073,-0.219315 6.314244,-0.213676 3.421346,0.292514 6.775703,2.924023 7.230237,6.434622 0.0071,0.568833 0.151469,1.099229 0.10591,1.646241 0.327228,1.848606 1.890339,3.406581 3.781327,3.587578 C 47.128,56.04591 49.311681,54.293808 49.553409,52.076172 49.704505,45.657438 45.5097,39.41798 39.563567,37.024632 36.997404,35.899289 34.141404,35.682807 31.371768,35.769531 Z" />
      <path
         id="path53"
         style="fill:url(#linearGradient15);fill-opacity:1;stroke-width:6.74339;stroke-linecap:round;stroke-linejoin:round"
         d="m 31.371768,35.769531 c -2.663814,-0.06375 -5.396749,0.007 -7.903775,1.016642 -5.220978,1.914568 -9.326403,6.646378 -10.304946,12.143248 -0.576781,3.016776 -0.212144,6.100133 -0.314929,9.148692 0.03899,2.810849 -0.123298,5.637755 0.177993,8.436667 0.879155,6.164558 5.609,11.591701 11.635374,13.215633 0.659165,0.296235 1.517569,0.312848 1.920834,-0.390337 0.522521,-0.888292 0.13171,-1.961197 0.248434,-2.931873 -0.04049,-1.405133 0.08176,-2.830299 -0.0625,-4.222656 -0.535168,-1.036342 -1.862888,-1.140051 -2.632301,-1.945794 -1.910787,-1.489125 -3.036606,-3.907709 -2.89267,-6.332744 -0.171243,-4.046091 -0.0013,-8.098846 -0.100029,-12.14529 0.206552,-3.486073 2.803786,-6.873924 6.332031,-7.470703 2.007373,-0.348877 4.224073,-0.219315 6.314244,-0.213676 3.421346,0.292514 6.775703,2.924023 7.230237,6.434622 0.0071,0.568833 0.151469,1.099229 0.10591,1.646241 0.327228,1.848606 1.890339,3.406581 3.781327,3.587578 C 47.128,56.04591 49.311681,54.293808 49.553409,52.076172 49.704505,45.657438 45.5097,39.41798 39.563567,37.024632 36.997404,35.899289 34.141404,35.682807 31.371768,35.769531 Z"
         inkscape:label="gradient" />
    </g>
    <g
       id="g55"
       transform="matrix(1.1370885,0,0,1.1370885,-15.366571,55.539245)">
      <ellipse
         style="fill:#545454;fill-opacity:1;stroke-width:5.25953;stroke-linecap:round;stroke-linejoin:round"
         id="ellipse53"
         cx="45.618568"
         cy="52.127869"
         rx="7.5137115"
         ry="7.5117226"
         transform="translate(-0.2829911,-0.09354432)" />
      <path
         id="path54"
         style="fill:#755037;fill-opacity:1;stroke-width:6.74339;stroke-linecap:round;stroke-linejoin:round"
         d="m 31.371768,35.769531 c -2.663814,-0.06375 -5.396749,0.007 -7.903775,1.016642 -5.220978,1.914568 -9.326403,6.646378 -10.304946,12.143248 -0.576781,3.016776 -0.212144,6.100133 -0.314929,9.148692 0.03899,2.810849 -0.123298,5.637755 0.177993,8.436667 0.879155,6.164558 5.609,11.591701 11.635374,13.215633 0.659165,0.296235 1.517569,0.312848 1.920834,-0.390337 0.522521,-0.888292 0.13171,-1.961197 0.248434,-2.931873 -0.04049,-1.405133 0.08176,-2.830299 -0.0625,-4.222656 -0.535168,-1.036342 -1.862888,-1.140051 -2.632301,-1.945794 -1.910787,-1.489125 -3.036606,-3.907709 -2.89267,-6.332744 -0.171243,-4.046091 -0.0013,-8.098846 -0.100029,-12.14529 0.206552,-3.486073 2.803786,-6.873924 6.332031,-7.470703 2.007373,-0.348877 4.224073,-0.219315 6.314244,-0.213676 3.421346,0.292514 6.775703,2.924023 7.230237,6.434622 0.0071,0.568833 0.151469,1.099229 0.10591,1.646241 0.327228,1.848606 1.890339,3.406581 3.781327,3.587578 C 47.128,56.04591 49.311681,54.293808 49.553409,52.076172 49.704505,45.657438 45.5097,39.41798 39.563567,37.024632 36.997404,35.899289 34.141404,35.682807 31.371768,35.769531 Z" />
      <path
         id="path55"
         style="fill:url(#linearGradient58);fill-opacity:1;stroke-width:6.74339;stroke-linecap:round;stroke-linejoin:round"
         d="m 31.371768,35.769531 c -2.663814,-0.06375 -5.396749,0.007 -7.903775,1.016642 -5.220978,1.914568 -9.326403,6.646378 -10.304946,12.143248 -0.576781,3.016776 -0.212144,6.100133 -0.314929,9.148692 0.03899,2.810849 -0.123298,5.637755 0.177993,8.436667 0.879155,6.164558 5.609,11.591701 11.635374,13.215633 0.659165,0.296235 1.517569,0.312848 1.920834,-0.390337 0.522521,-0.888292 0.13171,-1.961197 0.248434,-2.931873 -0.04049,-1.405133 0.08176,-2.830299 -0.0625,-4.222656 -0.535168,-1.036342 -1.862888,-1.140051 -2.632301,-1.945794 -1.910787,-1.489125 -3.036606,-3.907709 -2.89267,-6.332744 -0.171243,-4.046091 -0.0013,-8.098846 -0.100029,-12.14529 0.206552,-3.486073 2.803786,-6.873924 6.332031,-7.470703 2.007373,-0.348877 4.224073,-0.219315 6.314244,-0.213676 3.421346,0.292514 6.775703,2.924023 7.230237,6.434622 0.0071,0.568833 0.151469,1.099229 0.10591,1.646241 0.327228,1.848606 1.890339,3.406581 3.781327,3.587578 C 47.128,56.04591 49.311681,54.293808 49.553409,52.076172 49.704505,45.657438 45.5097,39.41798 39.563567,37.024632 36.997404,35.899289 34.141404,35.682807 31.371768,35.769531 Z"
         inkscape:label="gradient" />
    </g>
    <g
       id="g57"
       transform="matrix(1.1370885,0,0,1.1370885,-15.366571,89.449176)">
      <ellipse
         style="fill:#545454;fill-opacity:1;stroke-width:5.25953;stroke-linecap:round;stroke-linejoin:round"
         id="ellipse55"
         cx="45.618568"
         cy="52.127869"
         rx="7.5137115"
         ry="7.5117226"
         transform="translate(-0.2829911,-0.09354432)" />
      <path
         id="path56"
         style="fill:#755037;fill-opacity:1;stroke-width:6.74339;stroke-linecap:round;stroke-linejoin:round"
         d="m 31.371768,35.769531 c -2.663814,-0.06375 -5.396749,0.007 -7.903775,1.016642 -5.220978,1.914568 -9.326403,6.646378 -10.304946,12.143248 -0.576781,3.016776 -0.212144,6.100133 -0.314929,9.148692 0.03899,2.810849 -0.123298,5.637755 0.177993,8.436667 0.879155,6.164558 5.609,11.591701 11.635374,13.215633 0.659165,0.296235 1.517569,0.312848 1.920834,-0.390337 0.522521,-0.888292 0.13171,-1.961197 0.248434,-2.931873 -0.04049,-1.405133 0.08176,-2.830299 -0.0625,-4.222656 -0.535168,-1.036342 -1.862888,-1.140051 -2.632301,-1.945794 -1.910787,-1.489125 -3.036606,-3.907709 -2.89267,-6.332744 -0.171243,-4.046091 -0.0013,-8.098846 -0.100029,-12.14529 0.206552,-3.486073 2.803786,-6.873924 6.332031,-7.470703 2.007373,-0.348877 4.224073,-0.219315 6.314244,-0.213676 3.421346,0.292514 6.775703,2.924023 7.230237,6.434622 0.0071,0.568833 0.151469,1.099229 0.10591,1.646241 0.327228,1.848606 1.890339,3.406581 3.781327,3.587578 C 47.128,56.04591 49.311681,54.293808 49.553409,52.076172 49.704505,45.657438 45.5097,39.41798 39.563567,37.024632 36.997404,35.899289 34.141404,35.682807 31.371768,35.769531 Z" />
      <path
         id="path57"
         style="fill:url(#linearGradient57);fill-opacity:1;stroke-width:6.74339;stroke-linecap:round;stroke-linejoin:round"
         d="m 31.371768,35.769531 c -2.663814,-0.06375 -5.396749,0.007 -7.903775,1.016642 -5.220978,1.914568 -9.326403,6.646378 -10.304946,12.143248 -0.576781,3.016776 -0.212144,6.100133 -0.314929,9.148692 0.03899,2.810849 -0.123298,5.637755 0.177993,8.436667 0.879155,6.164558 5.609,11.591701 11.635374,13.215633 0.659165,0.296235 1.517569,0.312848 1.920834,-0.390337 0.522521,-0.888292 0.13171,-1.961197 0.248434,-2.931873 -0.04049,-1.405133 0.08176,-2.830299 -0.0625,-4.222656 -0.535168,-1.036342 -1.862888,-1.140051 -2.632301,-1.945794 -1.910787,-1.489125 -3.036606,-3.907709 -2.89267,-6.332744 -0.171243,-4.046091 -0.0013,-8.098846 -0.100029,-12.14529 0.206552,-3.486073 2.803786,-6.873924 6.332031,-7.470703 2.007373,-0.348877 4.224073,-0.219315 6.314244,-0.213676 3.421346,0.292514 6.775703,2.924023 7.230237,6.434622 0.0071,0.568833 0.151469,1.099229 0.10591,1.646241 0.327228,1.848606 1.890339,3.406581 3.781327,3.587578 C 47.128,56.04591 49.311681,54.293808 49.553409,52.076172 49.704505,45.657438 45.5097,39.41798 39.563567,37.024632 36.997404,35.899289 34.141404,35.682807 31.371768,35.769531 Z"
         inkscape:label="gradient" />
    </g>
  </g>
  <g
     inkscape:groupmode="layer"
     id="layer3"
     inkscape:label="devel">
    <g
       id="g7"
       style="display:inline"
       transform="matrix(1,0,0,1.0405581,-0.35765499,-8.5998502)"
       inkscape:label="devel"
       mask="url(#mask106)">
      <rect
         style="fill:#f9f06b;fill-opacity:1;stroke-width:1.80028;stroke-linecap:round;stroke-linejoin:round;stroke-dasharray:none"
         id="rect7"
         width="59.686249"
         height="22.753231"
         x="90.710312"
         y="163.38885"
         ry="0"
         transform="matrix(3.3361347,0,0,3.3361347,-301.16904,-420.30131)" />
      <path
         d="m 21.267527,124.83131 73.772284,75.08705 H 128.08914 L 54.310785,124.83131 Z m 66.086515,0 73.784478,75.08705 h 33.04932 l -73.78441,-75.08705 z m 66.098708,0 46.48575,47.31032 V 138.51222 L 186.496,124.83131 Z M 0.53487197,137.36646 v 33.6356 l 28.41236203,28.9163 h 33.049321 z m 0,0"
         id="path31"
         style="display:inline;stroke-width:1.57159" />
    </g>
  </g>
</svg>
