<?xml version="1.0" encoding="UTF-8"?>
<svg height="16px" viewBox="0 0 16 16" width="16px" xmlns="http://www.w3.org/2000/svg">
    <path d="m 3.078125 0.25 c -0.875 0 -1.578125 0.703125 -1.578125 1.578125 v 10.417969 c 0 0.871094 0.703125 1.574218 1.578125 1.574218 h 11.039063 c 0.871093 0 1.574218 -0.703124 1.574218 -1.574218 v -10.417969 c 0 -0.875 -0.703125 -1.578125 -1.574218 -1.578125 z m 3.15625 1.136719 h 6.886719 c 0.609375 0 1.101562 0.492187 1.101562 1.101562 v 2.890625 c 0 0.609375 -0.492187 1.097656 -1.101562 1.097656 h -6.886719 c -0.609375 0 -1.097656 -0.488281 -1.097656 -1.097656 v -2.890625 c 0 -0.609375 0.488281 -1.101562 1.097656 -1.101562 z m -3.023437 0.664062 c 0.386718 0 0.699218 0.3125 0.695312 0.695313 c 0.003906 0.386718 -0.308594 0.699218 -0.695312 0.699218 c -0.382813 0 -0.695313 -0.3125 -0.695313 -0.699218 c 0 -0.382813 0.3125 -0.695313 0.695313 -0.695313 z m 0 2.765625 c 0.386718 0 0.699218 0.308594 0.695312 0.695313 c 0 0.382812 -0.308594 0.695312 -0.695312 0.695312 c -0.382813 0 -0.695313 -0.3125 -0.695313 -0.695312 c 0 -0.386719 0.3125 -0.695313 0.695313 -0.695313 z m 0 2.695313 c 0.386718 0 0.699218 0.3125 0.695312 0.695312 c 0.003906 0.382813 -0.308594 0.695313 -0.695312 0.695313 c -0.382813 0 -0.695313 -0.3125 -0.695313 -0.695313 c 0 -0.382812 0.3125 -0.695312 0.695313 -0.695312 z m 2.929687 0.285156 h 2.953125 c 0.550781 0 0.992188 0.445313 0.992188 0.992187 v 2.613282 c 0 0.546875 -0.441407 0.992187 -0.992188 0.992187 h -2.953125 c -0.550781 0 -0.992187 -0.445312 -0.992187 -0.992187 v -2.613282 c 0 -0.546874 0.441406 -0.992187 0.992187 -0.992187 z m 6.03125 0 h 1.050781 c 0.550782 0 0.992188 0.445313 0.992188 0.992187 v 2.613282 c 0 0.546875 -0.441406 0.992187 -0.992188 0.992187 h -1.050781 c -0.550781 0 -0.992187 -0.445312 -0.992187 -0.992187 v -2.613282 c 0 -0.546874 0.441406 -0.992187 0.992187 -0.992187 z m -8.960937 2.476563 c 0.386718 0 0.699218 0.3125 0.695312 0.695312 c 0.003906 0.386719 -0.308594 0.695312 -0.695312 0.695312 c -0.382813 0 -0.695313 -0.308593 -0.695313 -0.695312 c 0 -0.382812 0.3125 -0.695312 0.695313 -0.695312 z m -1.710938 3.460937 v 0.570313 c 0 0.894531 0.722656 1.617187 1.617188 1.617187 h 10.960937 c 0.894531 0 1.613281 -0.722656 1.613281 -1.617187 v -0.570313 c 0 0.898437 -0.722656 1.621094 -1.621094 1.621094 h -10.949218 c -0.898438 0 -1.621094 -0.722657 -1.621094 -1.621094 z m 0 0"/>
    <path d="m 1.917969 1.242188 c -0.246094 -0.007813 -0.5 0 -0.730469 0.09375 c -0.484375 0.175781 -0.863281 0.613281 -0.957031 1.125 c -0.050781 0.277343 -0.019531 0.5625 -0.027344 0.847656 c 0.003906 0.257812 -0.011719 0.519531 0.015625 0.78125 c 0.082031 0.570312 0.519531 1.074218 1.078125 1.222656 c 0.0625 0.027344 0.140625 0.03125 0.179687 -0.035156 c 0.046876 -0.082032 0.011719 -0.183594 0.023438 -0.273438 c -0.003906 -0.128906 0.003906 -0.261718 -0.007812 -0.390625 c -0.050782 -0.09375 -0.171876 -0.105469 -0.242188 -0.179687 c -0.179688 -0.136719 -0.28125 -0.359375 -0.269531 -0.585938 c -0.015625 -0.375 0 -0.75 -0.007813 -1.125 c 0.019532 -0.324218 0.257813 -0.636718 0.585938 -0.691406 c 0.183594 -0.03125 0.390625 -0.019531 0.585937 -0.019531 c 0.316407 0.027343 0.625 0.269531 0.667969 0.59375 c 0 0.054687 0.015625 0.101562 0.007812 0.152343 c 0.03125 0.171876 0.175782 0.316407 0.351563 0.332032 c 0.207031 0.03125 0.410156 -0.132813 0.429687 -0.339844 c 0.015626 -0.59375 -0.375 -1.171875 -0.925781 -1.390625 c -0.234375 -0.105469 -0.5 -0.125 -0.757812 -0.117187 z m 0 0"/>
    <path d="m 1.917969 4.003906 c -0.246094 -0.007812 -0.5 0 -0.730469 0.09375 c -0.484375 0.175782 -0.863281 0.617188 -0.957031 1.125 c -0.050781 0.28125 -0.019531 0.566406 -0.027344 0.847656 c 0.003906 0.261719 -0.011719 0.523438 0.015625 0.78125 c 0.082031 0.570313 0.519531 1.074219 1.078125 1.222657 c 0.0625 0.027343 0.140625 0.03125 0.179687 -0.035157 c 0.046876 -0.082031 0.011719 -0.179687 0.023438 -0.269531 c -0.003906 -0.132812 0.003906 -0.261719 -0.007812 -0.394531 c -0.050782 -0.09375 -0.171876 -0.105469 -0.242188 -0.179688 c -0.179688 -0.136718 -0.28125 -0.359374 -0.269531 -0.585937 c -0.015625 -0.375 0 -0.75 -0.007813 -1.125 c 0.019532 -0.320313 0.257813 -0.636719 0.585938 -0.691406 c 0.183594 -0.03125 0.390625 -0.019531 0.585937 -0.019531 c 0.316407 0.027343 0.625 0.269531 0.667969 0.597656 c 0 0.050781 0.015625 0.101562 0.007812 0.152344 c 0.03125 0.167968 0.175782 0.3125 0.351563 0.332031 c 0.207031 0.027343 0.410156 -0.136719 0.429687 -0.339844 c 0.015626 -0.597656 -0.375 -1.175781 -0.925781 -1.394531 c -0.234375 -0.105469 -0.5 -0.125 -0.757812 -0.117188 z m 0 0"/>
    <path d="m 1.917969 6.699219 c -0.246094 -0.003907 -0.5 0 -0.730469 0.09375 c -0.484375 0.179687 -0.863281 0.617187 -0.957031 1.125 c -0.050781 0.28125 -0.019531 0.566406 -0.027344 0.847656 c 0.003906 0.261719 -0.011719 0.523437 0.015625 0.78125 c 0.082031 0.574219 0.519531 1.074219 1.078125 1.226563 c 0.0625 0.027343 0.140625 0.027343 0.179687 -0.035157 c 0.046876 -0.085937 0.011719 -0.183593 0.023438 -0.273437 c -0.003906 -0.128906 0.003906 -0.261719 -0.007812 -0.390625 c -0.050782 -0.097657 -0.171876 -0.105469 -0.242188 -0.179688 c -0.179688 -0.140625 -0.28125 -0.363281 -0.269531 -0.585937 c -0.015625 -0.375 0 -0.75 -0.007813 -1.125 c 0.019532 -0.324219 0.257813 -0.636719 0.585938 -0.695313 c 0.183594 -0.03125 0.390625 -0.019531 0.585937 -0.019531 c 0.316407 0.027344 0.625 0.273438 0.667969 0.597656 c 0 0.050782 0.015625 0.101563 0.007812 0.152344 c 0.03125 0.171875 0.175782 0.316406 0.351563 0.332031 c 0.207031 0.027344 0.410156 -0.132812 0.429687 -0.339843 c 0.015626 -0.59375 -0.375 -1.171876 -0.925781 -1.394532 c -0.234375 -0.105468 -0.5 -0.125 -0.757812 -0.117187 z m 0 0"/>
    <path d="m 1.917969 9.464844 c -0.246094 -0.007813 -0.5 0 -0.730469 0.09375 c -0.484375 0.175781 -0.863281 0.613281 -0.957031 1.125 c -0.050781 0.277344 -0.019531 0.5625 -0.027344 0.847656 c 0.003906 0.257812 -0.011719 0.519531 0.015625 0.78125 c 0.082031 0.570312 0.519531 1.070312 1.078125 1.222656 c 0.0625 0.027344 0.140625 0.027344 0.179687 -0.035156 c 0.046876 -0.082031 0.011719 -0.183594 0.023438 -0.273438 c -0.003906 -0.128906 0.003906 -0.261718 -0.007812 -0.390624 c -0.050782 -0.097657 -0.171876 -0.105469 -0.242188 -0.179688 c -0.179688 -0.136719 -0.28125 -0.363281 -0.269531 -0.585938 c -0.015625 -0.375 0 -0.75 -0.007813 -1.125 c 0.019532 -0.324218 0.257813 -0.636718 0.585938 -0.691406 c 0.183594 -0.035156 0.390625 -0.023437 0.585937 -0.019531 c 0.316407 0.023437 0.625 0.269531 0.667969 0.59375 c 0 0.054687 0.015625 0.101563 0.007812 0.152344 c 0.03125 0.171875 0.175782 0.316406 0.351563 0.332031 c 0.207031 0.027344 0.410156 -0.132812 0.429687 -0.339844 c 0.015626 -0.59375 -0.375 -1.171875 -0.925781 -1.394531 c -0.234375 -0.101563 -0.5 -0.125 -0.757812 -0.113281 z m 0 0"/>
</svg>
