<?xml version="1.0" encoding="UTF-8" standalone="no"?>
<!-- Created with Inkscape (http://www.inkscape.org/) -->

<svg
   width="200mm"
   height="200mm"
   viewBox="0 0 200 200"
   version="1.1"
   id="svg1"
   inkscape:version="1.3.2 (091e20ef0f, 2023-11-25, custom)"
   sodipodi:docname="com.maxrdz.Gallery-symbolic.svg"
   xmlns:inkscape="http://www.inkscape.org/namespaces/inkscape"
   xmlns:sodipodi="http://sodipodi.sourceforge.net/DTD/sodipodi-0.dtd"
   xmlns="http://www.w3.org/2000/svg"
   xmlns:svg="http://www.w3.org/2000/svg">
  <sodipodi:namedview
     id="namedview1"
     pagecolor="#ffffff"
     bordercolor="#000000"
     borderopacity="0.25"
     inkscape:showpageshadow="2"
     inkscape:pageopacity="0.0"
     inkscape:pagecheckerboard="0"
     inkscape:deskcolor="#d1d1d1"
     inkscape:document-units="mm"
     inkscape:zoom="0.50898196"
     inkscape:cx="501.00008"
     inkscape:cy="300.60005"
     inkscape:window-width="1920"
     inkscape:window-height="1012"
     inkscape:window-x="0"
     inkscape:window-y="38"
     inkscape:window-maximized="1"
     inkscape:current-layer="layer1" />
  <defs
     id="defs1" />
  <g
     inkscape:label="main"
     inkscape:groupmode="layer"
     id="layer1">
    <g
       id="g5"
       transform="matrix(3.3361348,0,0,3.3361348,-206.53646,-391.1852)"
       inkscape:label="bottom_polaroid">
      <path
         id="rect3"
         style="stroke-width:1.12735;stroke-dasharray:none;fill:none;fill-opacity:1;stroke:#2d2d2d;stroke-linecap:round;stroke-linejoin:round;stroke-opacity:1"
         inkscape:label="polaroid"
         d="M 75.896202 140.33622 C 75.627549 140.28153 75.349211 140.25275 75.063935 140.25275 L 57.402164 140.25276 L 79.183324 145.55398 L 79.18332 144.37235 C 79.18332 142.37542 77.776774 140.7191 75.896202 140.33622 z M 34.985174 140.2528 L 33.855691 140.25275 C 31.573483 140.25275 29.736207 142.09011 29.736207 144.37232 L 29.736188 161.81934 L 34.985174 140.2528 z M 79.183386 167.75017 L 73.93451 189.31626 L 75.063843 189.31628 C 77.34605 189.31628 79.183441 187.4791 79.183441 185.1969 L 79.183386 167.75017 z M 29.73621 184.01505 L 29.736177 185.19683 C 29.736177 187.47904 31.573541 189.31631 33.855749 189.31631 L 51.51752 189.31631 L 29.73621 184.01505 z "
         transform="rotate(-13.679011,1.4678032e-5,9.154953e-7)" />
    </g>
    <g
       id="g6"
       transform="matrix(3.3361348,0,0,3.3361348,-301.16905,-420.30131)"
       inkscape:label="top_polaroid"
       style="stroke-width:1.12735;stroke-dasharray:none">
      <rect
         style="fill:none;fill-opacity:1;stroke:#2d2d2d;stroke-width:1.12735;stroke-linecap:round;stroke-linejoin:round;stroke-dasharray:none;stroke-opacity:1"
         id="rect2"
         width="49.447208"
         height="49.063564"
         x="95.526047"
         y="131.42754"
         ry="5.1479383"
         inkscape:label="polaroid" />
      <rect
         style="fill:#000000;fill-opacity:1;stroke:none;stroke-width:1.12735;stroke-linecap:round;stroke-linejoin:round;stroke-dasharray:none;stroke-opacity:1"
         id="rect4"
         width="40.731342"
         height="34.250198"
         x="99.925102"
         y="135.32976"
         ry="4.3842378"
         inkscape:label="image" />
    </g>
  </g>
</svg>
